<svg width="37" height="60" viewBox="0 0 37 60" fill="none" xmlns="http://www.w3.org/2000/svg">
<path d="M10.7812 39.0547H9.78125V40.0547H10.7812V39.0547ZM11.5234 31.4766L12.4627 31.8198L12.4648 31.814L11.5234 31.4766ZM13.9062 27.5703L14.6519 28.2367L14.6588 28.2288L13.9062 27.5703ZM18.2422 23.7422L17.6634 22.9266L17.6554 22.9324L18.2422 23.7422ZM22.1094 20.6562L21.4318 19.9206L21.4222 19.9298L22.1094 20.6562ZM24.2578 17.9609L23.3685 17.5036L23.3634 17.5137L24.2578 17.9609ZM11.1719 10.7344L10.8691 9.7813L10.8659 9.78235L11.1719 10.7344ZM4.49219 13.5078L3.59694 13.9534L4.04539 14.8544L4.9435 14.4002L4.49219 13.5078ZM0.234375 4.95312L-0.254228 4.08062L-1.08527 4.546L-0.660868 5.3987L0.234375 4.95312ZM8.71094 1.4375L8.99 2.3978L8.99753 2.39555L8.71094 1.4375ZM31.6406 4.09375L30.9798 4.84437L30.9867 4.85028L31.6406 4.09375ZM35.1953 19.9531L34.2784 19.5538L34.2754 19.561L35.1953 19.9531ZM32.0703 24.4062L32.7707 25.1201L32.7708 25.1199L32.0703 24.4062ZM26.875 28.7031L26.288 27.8935L26.2836 27.8967L26.875 28.7031ZM21.5625 33.9375L20.634 33.5661L20.6307 33.5744L20.6275 33.5828L21.5625 33.9375ZM21.1328 39.0547V40.0547H22.1328V39.0547H21.1328ZM11.5234 47.2578L10.9334 46.4504L10.926 46.4559L11.5234 47.2578ZM21.1719 47.2578L20.5744 48.0597L20.5819 48.0652L21.1719 47.2578ZM21.1719 57.4922L20.5621 56.6995L20.5547 56.7053L21.1719 57.4922ZM11.5234 57.4922L10.9063 58.2791L10.9137 58.2848L11.5234 57.4922ZM11.7812 39.0547V36.1641H9.78125V39.0547H11.7812ZM11.7812 36.1641C11.7812 34.4845 12.0161 33.0421 12.4627 31.8198L10.5842 31.1334C10.0412 32.6194 9.78125 34.302 9.78125 36.1641H11.7812ZM12.4648 31.814C12.9112 30.5687 13.6337 29.376 14.6519 28.2366L13.1606 26.904C11.9913 28.2125 11.1252 29.624 10.5821 31.1391L12.4648 31.814ZM14.6588 28.2288C15.6898 27.0505 17.0739 25.8237 18.829 24.5519L17.6554 22.9324C15.8167 24.2648 14.3102 25.5901 13.1537 26.9118L14.6588 28.2288ZM18.8209 24.5577C20.4571 23.3966 21.7868 22.3379 22.7966 21.3827L21.4222 19.9298C20.5048 20.7976 19.2565 21.7961 17.6634 22.9267L18.8209 24.5577ZM22.7869 21.3918C23.8357 20.4258 24.6397 19.4333 25.1522 18.4082L23.3634 17.5137C22.9905 18.2594 22.3622 19.0638 21.4319 19.9207L22.7869 21.3918ZM25.1471 18.4183C25.6968 17.3494 25.9609 16.1609 25.9609 14.875H23.9609C23.9609 15.8808 23.7563 16.7496 23.3685 17.5036L25.1471 18.4183ZM25.9609 14.875C25.9609 12.8976 25.2094 11.2865 23.664 10.1918L22.5079 11.8238C23.4624 12.5 23.9609 13.467 23.9609 14.875H25.9609ZM23.664 10.1918C22.1833 9.14298 20.207 8.67969 17.8516 8.67969V10.6797C19.9753 10.6797 21.4886 11.1018 22.5079 11.8238L23.664 10.1918ZM17.8516 8.67969C15.5055 8.67969 13.1769 9.04824 10.8691 9.7813L11.4746 11.6874C13.5939 11.0143 15.7185 10.6797 17.8516 10.6797V8.67969ZM10.8659 9.78235C8.62357 10.5031 6.34849 11.4484 4.04088 12.6154L4.9435 14.4002C7.16713 13.2756 9.34518 12.3719 11.4779 11.6864L10.8659 9.78235ZM5.38743 13.0622L1.12962 4.50755L-0.660868 5.3987L3.59694 13.9534L5.38743 13.0622ZM0.722978 5.82563C3.25683 4.40668 6.0115 3.26332 8.98999 2.39778L8.43188 0.477225C5.31662 1.38251 2.42026 2.58291 -0.254228 4.08062L0.722978 5.82563ZM8.99753 2.39555C11.9396 1.51545 15.175 1.07031 18.7109 1.07031V-0.929688C15.0072 -0.929688 11.576 -0.463363 8.42434 0.479449L8.99753 2.39555ZM18.7109 1.07031C24.1316 1.07031 28.1739 2.37417 30.9799 4.84434L32.3014 3.34316C29.0136 0.448751 24.4361 -0.929688 18.7109 -0.929688V1.07031ZM30.9867 4.85028C33.8366 7.31376 35.25 10.4215 35.25 14.25H37.25C37.25 9.84929 35.5905 6.18624 32.2946 3.33722L30.9867 4.85028ZM35.25 14.25C35.25 16.3324 34.9152 18.0918 34.2785 19.5539L36.1121 20.3524C36.8817 18.5853 37.25 16.5426 37.25 14.25H35.25ZM34.2754 19.561C33.6564 21.0132 32.6957 22.3913 31.3698 23.6926L32.7708 25.1199C34.2574 23.6608 35.38 22.0701 36.1152 20.3452L34.2754 19.561ZM31.37 23.6924C30.0345 25.0027 28.3435 26.4033 26.288 27.8935L27.462 29.5127C29.5732 27.9821 31.3457 26.5181 32.7707 25.1201L31.37 23.6924ZM26.2836 27.8967C24.7077 29.0524 23.4731 30.0431 22.5973 30.8642L23.9652 32.3233C24.756 31.5819 25.9173 30.6455 27.4664 29.5095L26.2836 27.8967ZM22.5973 30.8642C21.6933 31.7117 21.0166 32.6096 20.634 33.5661L22.491 34.3089C22.7334 33.7029 23.2025 33.0383 23.9652 32.3233L22.5973 30.8642ZM20.6275 33.5828C20.2858 34.4837 20.1328 35.5362 20.1328 36.7109H22.1328C22.1328 35.6982 22.2663 34.9018 22.4975 34.2922L20.6275 33.5828ZM20.1328 36.7109V39.0547H22.1328V36.7109H20.1328ZM21.1328 38.0547H10.7812V40.0547H21.1328V38.0547ZM10.5312 52.4141C10.5312 50.1244 11.1503 48.7829 12.1209 48.0597L10.926 46.4559C9.24034 47.7119 8.53125 49.8079 8.53125 52.4141H10.5312ZM12.1135 48.0652C13.274 47.2171 14.6878 46.7734 16.4062 46.7734V44.7734C14.3226 44.7734 12.4813 45.3193 10.9334 46.4504L12.1135 48.0652ZM16.4062 46.7734C18.0662 46.7734 19.4389 47.2136 20.5744 48.0597L21.7694 46.4559C20.2486 45.3228 18.4442 44.7734 16.4062 44.7734V46.7734ZM20.5819 48.0652C21.575 48.7909 22.2031 50.1309 22.2031 52.4141H24.2031C24.2031 49.8014 23.4771 47.7039 21.7619 46.4504L20.5819 48.0652ZM22.2031 52.4141C22.2031 54.5707 21.5867 55.9115 20.5622 56.6996L21.7816 58.2848C23.4654 56.9896 24.2031 54.9449 24.2031 52.4141H22.2031ZM20.5547 56.7053C19.4197 57.5955 18.0541 58.0547 16.4062 58.0547V60.0547C18.4563 60.0547 20.2678 59.4722 21.789 58.279L20.5547 56.7053ZM16.4062 58.0547C14.6995 58.0547 13.2928 57.5916 12.1331 56.6996L10.9137 58.2848C12.4624 59.4761 14.3109 60.0547 16.4062 60.0547V58.0547ZM12.1406 56.7053C11.1387 55.9196 10.5312 54.5772 10.5312 52.4141H8.53125C8.53125 54.9385 9.25189 56.9815 10.9063 58.279L12.1406 56.7053Z" fill="#151641"/>
</svg>
