<svg width="52" height="52" viewBox="0 0 52 52" fill="none" xmlns="http://www.w3.org/2000/svg">
<circle cx="26" cy="26" r="26" fill="#151641"/>
<path d="M22.8 31.992L22.808 30.504L27.824 26.008C28.2293 25.6507 28.504 25.3093 28.648 24.984C28.7973 24.6587 28.872 24.3333 28.872 24.008C28.872 23.5973 28.7813 23.2293 28.6 22.904C28.4187 22.5733 28.168 22.312 27.848 22.12C27.528 21.928 27.16 21.832 26.744 21.832C26.3173 21.832 25.936 21.9333 25.6 22.136C25.2693 22.3333 25.0107 22.5973 24.824 22.928C24.6373 23.2587 24.5467 23.616 24.552 24H22.84C22.84 23.2533 23.008 22.6 23.344 22.04C23.6853 21.4747 24.152 21.0347 24.744 20.72C25.336 20.4 26.0133 20.24 26.776 20.24C27.5013 20.24 28.152 20.4053 28.728 20.736C29.304 21.0613 29.7573 21.5093 30.088 22.08C30.424 22.6507 30.592 23.3013 30.592 24.032C30.592 24.56 30.5227 25.008 30.384 25.376C30.2453 25.744 30.0373 26.0853 29.76 26.4C29.4827 26.7147 29.136 27.056 28.72 27.424L24.848 30.88L24.664 30.4H30.592V31.992H22.8Z" fill="#E6E6E6"/>
</svg>
