<svg width="52" height="52" viewBox="0 0 52 52" fill="none" xmlns="http://www.w3.org/2000/svg">
<circle cx="26" cy="26" r="26" fill="#151641"/>
<path d="M26.344 32.216C25.7733 32.216 25.2373 32.1093 24.736 31.896C24.2347 31.6773 23.8 31.368 23.432 30.968C23.0693 30.568 22.8053 30.096 22.64 29.552L24.256 29.104C24.4107 29.6 24.68 29.9813 25.064 30.248C25.448 30.5093 25.8747 30.6373 26.344 30.632C26.7653 30.6267 27.136 30.528 27.456 30.336C27.776 30.144 28.0267 29.8853 28.208 29.56C28.3893 29.2293 28.48 28.8507 28.48 28.424C28.48 27.784 28.28 27.256 27.88 26.84C27.4853 26.424 26.968 26.216 26.328 26.216C26.1467 26.216 25.96 26.2427 25.768 26.296C25.5813 26.3493 25.4053 26.4187 25.24 26.504L24.456 25.184L28.52 21.592L28.696 22.072H23.096V20.48H30.024V22.072L26.648 25.32L26.632 24.776C27.3573 24.776 27.9867 24.9387 28.52 25.264C29.0533 25.584 29.464 26.0213 29.752 26.576C30.0453 27.1253 30.192 27.7413 30.192 28.424C30.192 29.16 30.0187 29.8133 29.672 30.384C29.3307 30.9547 28.8693 31.4027 28.288 31.728C27.712 32.0533 27.064 32.216 26.344 32.216Z" fill="#E6E6E6"/>
</svg>
