<svg width="430" height="427" viewBox="0 0 430 427" fill="none" xmlns="http://www.w3.org/2000/svg">
<path opacity="0.3" d="M356.388 315.887C347.064 325.498 338.723 331.147 332.336 335.411C270.046 377.002 198.842 365.015 176.828 360.917C141.31 354.307 111.329 349.643 85.5683 326.37C27.0346 273.487 29.8813 163.169 74.6085 94.832C79.9116 86.7294 124.571 20.5307 195.93 11.2019C197.675 10.974 198.977 10.8443 200.118 10.7225C211.156 9.55392 279.562 3.38497 335.341 50.1165C343.326 56.8056 356.174 68.871 368.09 87.2744C411.658 154.562 411.796 258.775 356.388 315.887Z" fill="url(#paint0_linear_77_353)"/>
<path d="M195.712 282.371L187.997 351.563H277.505L265.847 282.371H195.712Z" fill="url(#paint1_linear_77_353)"/>
<path d="M39.9624 106.952V270.016C39.9624 283.431 50.6523 294.4 64.0618 294.745C123.621 296.281 331.93 300.005 388.626 299.169C398.37 299.025 406.264 291.228 406.546 281.487C407.639 243.604 409.415 152.511 402.843 110.219C401.46 101.314 393.942 94.6533 384.934 94.3651C335.031 92.7682 114.21 87.6997 57.5405 88.9717C47.7663 89.1918 39.9624 97.1765 39.9624 106.952Z" fill="url(#paint2_linear_77_353)"/>
<path d="M50.1934 106.158V261.081C50.1934 268.912 56.4802 275.294 64.3116 275.411L380.469 279.318C388.234 279.434 394.596 273.187 394.626 265.422L395.156 111.883C395.177 106.331 390.753 101.782 385.203 101.647L61.5147 95.1083C55.3077 94.9576 50.1934 99.9489 50.1934 106.158Z" fill="url(#paint3_linear_77_353)"/>
<path opacity="0.65" d="M397.006 285.737C397.003 285.737 397 285.737 396.996 285.737L50.1843 279.827C49.9039 279.822 49.6799 279.591 49.6851 279.31C49.6891 279.029 49.9183 278.808 50.2013 278.811L397.013 284.72C397.294 284.725 397.518 284.956 397.513 285.238C397.509 285.514 397.282 285.737 397.006 285.737Z" fill="white"/>
<path d="M296.786 365.72H165.785C162.225 365.72 159.553 363.186 160.242 360.465L161.923 353.817C162.429 351.817 164.628 350.349 167.24 350.268L293.53 346.327C296.259 346.242 298.676 347.691 299.271 349.769L302.301 360.358C303.088 363.109 300.403 365.72 296.786 365.72Z" fill="url(#paint4_linear_77_353)"/>
<path d="M50.1934 106.158V261.081C50.1934 268.912 56.4802 275.294 64.3116 275.411L380.469 279.318C388.234 279.434 394.596 273.187 394.626 265.422L395.156 111.883C395.177 106.331 390.753 101.782 385.203 101.647L61.5147 95.1083C55.3077 94.9576 50.1934 99.9489 50.1934 106.158Z" fill="url(#paint5_linear_77_353)"/>
<path d="M395.093 129.842L395.155 111.849C395.176 106.297 390.752 101.764 385.202 101.63L61.5987 95.099C55.3904 94.9484 50.3599 99.9474 50.3599 106.157V129.842H395.093Z" fill="url(#paint6_linear_77_353)"/>
<path opacity="0.74" d="M74.621 117.016C75.0857 115.023 73.8463 113.03 71.853 112.565C69.8596 112.101 67.8669 113.34 67.4023 115.334C66.9377 117.327 68.177 119.32 70.1704 119.784C72.1638 120.249 74.1564 119.009 74.621 117.016Z" fill="white"/>
<path opacity="0.74" d="M86.4696 118.796C87.9169 117.349 87.9169 115.003 86.4696 113.555C85.0223 112.108 82.6758 112.108 81.2285 113.555C79.7812 115.003 79.7812 117.349 81.2285 118.796C82.6758 120.244 85.0223 120.244 86.4696 118.796Z" fill="white"/>
<path opacity="0.74" d="M97.9496 119.495C99.7824 118.584 100.529 116.359 99.6177 114.527C98.7063 112.694 96.4817 111.947 94.649 112.858C92.8163 113.77 92.0694 115.994 92.9809 117.827C93.8923 119.66 96.1169 120.407 97.9496 119.495Z" fill="white"/>
<path opacity="0.42" d="M375.886 270.847L71.9845 266.466C67.3653 266.399 63.6553 262.636 63.6553 258.016V227.6C63.6553 223.302 67.1662 219.83 71.4644 219.88L376.08 223.344C379.578 223.383 382.392 226.23 382.392 229.727V264.434C382.392 268.012 379.464 270.898 375.886 270.847Z" fill="white"/>
<path opacity="0.42" d="M266.476 216.078L72.2085 213.284C67.4649 213.216 63.6553 209.351 63.6553 204.606V144.466C63.6553 141.069 66.409 138.317 69.8046 138.317H265.183C269.083 138.317 272.244 141.478 272.244 145.378V210.394C272.243 213.565 269.648 216.124 266.476 216.078Z" fill="white"/>
<path opacity="0.42" d="M380.755 216.16H279.018C278.183 216.16 277.507 215.484 277.507 214.65V140.198C277.507 139.159 278.35 138.317 279.389 138.317H381.257C381.884 138.317 382.393 138.825 382.393 139.453V214.524C382.393 215.428 381.659 216.16 380.755 216.16Z" fill="white"/>
<path d="M160.662 168.315C184.523 168.315 203.867 148.971 203.867 125.11C203.867 101.248 184.523 81.9048 160.662 81.9048C136.801 81.9048 117.457 101.248 117.457 125.11C117.457 148.971 136.801 168.315 160.662 168.315Z" fill="url(#paint7_linear_77_353)"/>
<path d="M160.662 166.877C183.73 166.877 202.43 148.177 202.43 125.11C202.43 102.042 183.73 83.3418 160.662 83.3418C137.594 83.3418 118.894 102.042 118.894 125.11C118.894 148.177 137.594 166.877 160.662 166.877Z" fill="url(#paint8_linear_77_353)"/>
<path d="M122.159 123.505C122.151 123.505 122.143 123.505 122.135 123.505C121.892 123.492 121.706 123.285 121.717 123.041C121.802 121.4 121.994 119.752 122.285 118.143C122.328 117.903 122.556 117.744 122.797 117.787C123.037 117.83 123.196 118.059 123.153 118.299C122.87 119.872 122.683 121.482 122.599 123.086C122.586 123.323 122.392 123.505 122.159 123.505Z" fill="white"/>
<path d="M126.22 108.201C126.153 108.201 126.085 108.186 126.021 108.154C125.804 108.044 125.716 107.778 125.826 107.562C132.504 94.332 145.852 86.1128 160.661 86.1128C163.023 86.1128 165.39 86.325 167.696 86.7469C167.936 86.7901 168.094 87.0206 168.051 87.2604C168.008 87.5001 167.778 87.6613 167.537 87.6154C165.283 87.2054 162.969 86.9971 160.661 86.9971C146.186 86.9971 133.14 95.0302 126.613 107.96C126.536 108.112 126.381 108.201 126.22 108.201Z" fill="white"/>
<path opacity="0.78" d="M186.566 151.017C200.371 137.212 200.371 114.829 186.566 101.024C172.76 87.2182 150.377 87.2182 136.572 101.024C122.767 114.829 122.767 137.212 136.572 151.017C150.378 164.823 172.76 164.823 186.566 151.017Z" fill="white"/>
<path d="M159.63 107.34C154.215 102.448 145.795 102.943 140.902 108.358C136.009 113.774 136.363 122.209 141.779 127.101C146.55 131.411 153.869 131.296 158.487 127.953L162.135 131.249C162.179 132.227 162.455 133.415 163.285 134.166L175.444 145.151C176.982 146.539 179.297 146.045 180.687 144.507L180.768 144.418C182.157 142.88 182.122 140.85 180.585 139.461L168.426 128.477C167.596 127.726 166.384 127.571 165.874 127.11L162.226 123.814C165.084 118.881 164.402 111.649 159.63 107.34ZM144.252 125.28C140.076 121.507 139.748 115.062 143.521 110.885C147.294 106.709 153.739 106.382 157.916 110.154C162.092 113.927 162.42 120.373 158.647 124.549C154.872 128.726 148.428 129.053 144.252 125.28Z" fill="url(#paint9_linear_77_353)"/>
<path d="M146.623 122.007C146.592 122.041 146.558 122.075 146.521 122.105C146.079 122.479 145.42 122.422 145.047 121.982C142.613 119.103 142.685 114.819 145.216 112.017C145.604 111.588 146.264 111.554 146.692 111.942C147.121 112.33 147.155 112.99 146.767 113.418C144.934 115.446 144.881 118.548 146.643 120.631C146.987 121.038 146.969 121.626 146.623 122.007Z" fill="url(#paint10_linear_77_353)"/>
<path d="M232.955 92.2869C256.817 92.2869 276.16 72.9434 276.16 49.0819C276.16 25.2205 256.817 5.87695 232.955 5.87695C209.094 5.87695 189.75 25.2205 189.75 49.0819C189.75 72.9434 209.094 92.2869 232.955 92.2869Z" fill="url(#paint11_linear_77_353)"/>
<path d="M232.955 90.8508C256.024 90.8508 274.724 72.1501 274.724 49.0817C274.724 26.0132 256.024 7.3125 232.955 7.3125C209.887 7.3125 191.186 26.0132 191.186 49.0817C191.186 72.1501 209.887 90.8508 232.955 90.8508Z" fill="url(#paint12_linear_77_353)"/>
<path d="M194.452 47.4773C194.444 47.4773 194.436 47.4773 194.428 47.4773C194.185 47.4642 193.999 47.2572 194.01 47.0136C194.095 45.3721 194.287 43.7241 194.578 42.1153C194.621 41.8756 194.849 41.7158 195.09 41.759C195.33 41.8022 195.489 42.0315 195.446 42.2712C195.163 43.8446 194.976 45.4546 194.892 47.0581C194.879 47.2952 194.685 47.4773 194.452 47.4773Z" fill="white"/>
<path d="M198.513 32.172C198.446 32.172 198.378 32.1563 198.314 32.1248C198.097 32.0148 198.009 31.7489 198.119 31.5327C204.797 18.3027 218.145 10.0835 232.954 10.0835C235.316 10.0835 237.683 10.2957 239.989 10.7176C240.229 10.7608 240.387 10.9914 240.344 11.2311C240.301 11.4708 240.071 11.632 239.83 11.5861C237.576 11.1761 235.262 10.9678 232.954 10.9678C218.479 10.9678 205.433 19.0009 198.906 31.931C198.829 32.0842 198.674 32.172 198.513 32.172Z" fill="white"/>
<path opacity="0.78" d="M258.859 74.9906C272.665 61.1851 272.665 38.8022 258.859 24.9968C245.054 11.1913 222.671 11.1913 208.866 24.9968C195.06 38.8022 195.06 61.1851 208.866 74.9906C222.671 88.796 245.054 88.796 258.859 74.9906Z" fill="white"/>
<path d="M257.902 46.2913L256.663 45.5066C256.327 45.2944 256.122 44.9302 256.105 44.5346C256.059 43.5377 255.898 42.5604 255.633 41.6185C255.526 41.2359 255.605 40.8259 255.857 40.518L256.787 39.3822C257.179 38.9041 257.225 38.2294 256.9 37.7028L255.93 36.1307C255.605 35.6041 254.982 35.3408 254.379 35.477L252.947 35.798C252.56 35.8844 252.157 35.7731 251.864 35.5045C251.142 34.8443 250.34 34.2626 249.471 33.774C249.125 33.5801 248.892 33.2329 248.852 32.8386L248.707 31.3792C248.645 30.7635 248.2 30.2539 247.599 30.1124L245.801 29.6867C245.199 29.5439 244.572 29.7993 244.241 30.322L243.456 31.5613C243.244 31.8967 242.88 32.1024 242.484 32.1194C241.487 32.1652 240.51 32.3251 239.568 32.591C239.185 32.6984 238.775 32.6185 238.468 32.367L237.332 31.4369C236.854 31.0452 236.179 30.9993 235.651 31.3242L234.079 32.2936C233.552 32.6185 233.289 33.2421 233.425 33.8447L233.746 35.2766C233.833 35.6643 233.721 36.0665 233.453 36.36C232.794 37.0818 232.211 37.8835 231.722 38.7534C231.528 39.0993 231.181 39.3324 230.787 39.3717L229.327 39.5172C228.712 39.5787 228.203 40.0241 228.061 40.6254L227.635 42.4228C227.492 43.0254 227.748 43.6516 228.27 43.9818L229.51 44.7665C229.845 44.9787 230.051 45.3429 230.068 45.7385C230.113 46.7354 230.273 47.7127 230.539 48.6547C230.647 49.0372 230.567 49.4472 230.315 49.7551L229.385 50.8909C228.993 51.369 228.948 52.0437 229.272 52.5703L230.242 54.1424C230.567 54.669 231.19 54.931 231.793 54.7961L233.225 54.4751C233.613 54.3887 234.015 54.5013 234.308 54.7686C235.03 55.4275 235.832 56.0105 236.702 56.4991C237.047 56.693 237.281 57.0402 237.32 57.4345L237.465 58.8939C237.527 59.5096 237.972 60.0179 238.574 60.1607L240.371 60.5864C240.974 60.7292 241.6 60.4738 241.931 59.9511L242.716 58.7131C242.928 58.3777 243.292 58.1721 243.688 58.155C244.685 58.1092 245.662 57.9493 246.604 57.6834C246.987 57.576 247.397 57.6559 247.705 57.9074L248.84 58.8376C249.319 59.2293 249.995 59.2751 250.521 58.9502L252.093 57.9808C252.62 57.6559 252.882 57.0323 252.747 56.4297L252.426 54.9978C252.34 54.6101 252.452 54.2079 252.719 53.9144C253.378 53.1926 253.961 52.3909 254.45 51.521C254.644 51.1752 254.991 50.942 255.385 50.9027L256.845 50.7573C257.46 50.6957 257.97 50.2503 258.113 49.649L258.539 47.8516C258.679 47.249 258.423 46.6228 257.902 46.2913ZM241.672 55.7917C235.787 55.0109 231.649 49.607 232.43 43.7224C233.21 37.8377 238.614 33.6993 244.499 34.4801C250.384 35.2609 254.522 40.6647 253.741 46.5494C252.96 52.4341 247.557 56.5725 241.672 55.7917ZM249.59 47.3066C248.303 50.9341 244.32 52.831 240.692 51.5446C237.065 50.2581 235.168 46.2743 236.454 42.6468C237.741 39.0193 241.724 37.1224 245.35 38.4089C248.979 39.6966 250.876 43.6804 249.59 47.3066Z" fill="url(#paint13_linear_77_353)"/>
<path d="M238.278 60.5245C237.596 60.2821 237.107 59.6664 237.033 58.9354L236.888 57.476C236.863 57.2258 236.714 57.0018 236.489 56.876C235.601 56.3769 234.768 55.7756 234.016 55.0878C233.825 54.9136 233.564 54.8428 233.319 54.8979L231.887 55.2188C231.104 55.3957 230.293 55.0537 229.871 54.3699L228.902 52.7979C228.48 52.114 228.539 51.2376 229.047 50.6153L229.977 49.4795C230.137 49.2857 230.19 49.021 230.12 48.7721C229.844 47.7896 229.68 46.7756 229.633 45.759C229.621 45.5023 229.487 45.2678 229.275 45.1342L228.036 44.3494C227.357 43.9198 227.026 43.1049 227.212 42.3241L227.638 40.5268C227.822 39.7447 228.484 39.1669 229.284 39.087L230.744 38.9416C230.994 38.9167 231.218 38.7674 231.345 38.5434C231.843 37.6565 232.444 36.8246 233.133 36.07C233.307 35.8788 233.379 35.6181 233.323 35.3731L233.002 33.9412C232.827 33.1565 233.169 32.3469 233.852 31.9251L235.424 30.9556C236.108 30.5338 236.986 30.5928 237.607 31.1024L238.743 32.0325C238.938 32.191 239.201 32.2447 239.45 32.1753C240.433 31.8989 241.447 31.7351 242.463 31.688C242.72 31.6762 242.955 31.5425 243.089 31.3303L243.874 30.091C244.304 29.4124 245.119 29.081 245.899 29.267L247.697 29.6928C248.476 29.8788 249.057 30.5404 249.137 31.3395L249.282 32.7989C249.307 33.0491 249.456 33.2731 249.682 33.3989C250.57 33.8967 251.402 34.4993 252.155 35.1871C252.346 35.3613 252.606 35.432 252.852 35.377L254.284 35.0561C255.067 34.8805 255.877 35.2211 256.3 35.905L257.269 37.477C257.691 38.1608 257.632 39.0386 257.124 39.6595L256.194 40.7953C256.034 40.9892 255.982 41.2538 256.051 41.5027C256.327 42.4853 256.491 43.4992 256.538 44.5158C256.55 44.7739 256.684 45.0071 256.896 45.142L258.135 45.9267C258.814 46.3564 259.145 47.1713 258.959 47.9534L258.533 49.7507C258.347 50.5328 257.686 51.1119 256.887 51.1905L255.427 51.3359C255.177 51.3608 254.953 51.5101 254.827 51.7341C254.33 52.621 253.728 53.4542 253.039 54.2075C252.865 54.3987 252.794 54.6594 252.849 54.9044L253.17 56.3376C253.346 57.121 253.004 57.9319 252.321 58.3537L250.749 59.3231C250.065 59.745 249.188 59.6847 248.567 59.1764L247.431 58.2463C247.237 58.0878 246.972 58.0341 246.723 58.1035C245.741 58.3799 244.727 58.5437 243.71 58.5908C243.454 58.6026 243.219 58.7363 243.084 58.9485L242.3 60.1878C241.87 60.8664 241.055 61.1978 240.274 61.0118L238.477 60.586C238.406 60.5664 238.342 60.5467 238.278 60.5245ZM234.033 54.1066C234.24 54.18 234.433 54.2952 234.6 54.4472C235.305 55.0904 236.083 55.6524 236.914 56.1201C237.386 56.3847 237.697 56.859 237.751 57.3908L237.896 58.8502C237.94 59.2812 238.252 59.6389 238.673 59.7384L240.471 60.1642C240.893 60.2638 241.331 60.0856 241.565 59.7188L242.349 58.4795C242.635 58.0288 243.127 57.7446 243.667 57.7197C244.618 57.6764 245.567 57.5232 246.485 57.2638C247.006 57.1171 247.565 57.231 247.977 57.5703L249.113 58.5004C249.448 58.7742 249.921 58.807 250.291 58.579L251.863 57.6096C252.232 57.3817 252.416 56.9454 252.321 56.5223L252 55.0904C251.884 54.569 252.032 54.0188 252.396 53.6193C253.041 52.9131 253.602 52.135 254.069 51.3057C254.333 50.8341 254.808 50.5223 255.34 50.4686L256.799 50.3232C257.23 50.28 257.588 49.9682 257.687 49.5464L258.113 47.749C258.213 47.3272 258.034 46.887 257.668 46.6551L256.43 45.8704C255.979 45.5848 255.695 45.0909 255.67 44.5512C255.627 43.6001 255.473 42.6516 255.214 41.7333C255.067 41.2119 255.181 40.6551 255.52 40.2412L256.451 39.1054C256.726 38.77 256.757 38.2971 256.529 37.9277L255.56 36.3556C255.332 35.9862 254.894 35.8028 254.472 35.8971L253.04 36.2181C252.519 36.336 251.969 36.1866 251.569 35.8224C250.865 35.1792 250.086 34.6159 249.256 34.1508C248.784 33.8862 248.471 33.4107 248.419 32.8801L248.273 31.4207C248.23 30.9897 247.916 30.6334 247.496 30.5325L245.699 30.1067C245.277 30.0059 244.838 30.1853 244.606 30.5522L243.822 31.7915C243.536 32.2421 243.044 32.5264 242.504 32.5513C241.553 32.5945 240.606 32.7478 239.686 33.0072C239.166 33.1539 238.608 33.0399 238.194 32.7006L237.058 31.7705C236.723 31.4967 236.25 31.4639 235.88 31.6919L234.308 32.6613C233.939 32.888 233.755 33.3255 233.85 33.75L234.171 35.1818C234.287 35.7032 234.139 36.2521 233.775 36.653C233.131 37.3578 232.569 38.1373 232.102 38.9665C231.838 39.4381 231.362 39.7512 230.831 39.8036L229.372 39.949C228.941 39.9923 228.583 40.3041 228.484 40.7259L228.058 42.5233C227.959 42.9451 228.137 43.3853 228.504 43.6171L229.743 44.4019C230.193 44.6874 230.478 45.18 230.503 45.7197C230.546 46.6708 230.699 47.6193 230.959 48.5376C231.105 49.059 230.99 49.6158 230.652 50.0298L229.722 51.1656C229.447 51.5009 229.415 51.9739 229.643 52.3433L230.613 53.9153C230.841 54.2848 231.278 54.4682 231.7 54.3738L233.132 54.0529C233.432 53.9834 233.745 54.0057 234.033 54.1066ZM239.344 55.676C234.473 53.9481 231.294 48.9896 231.999 43.6656C232.392 40.7049 233.914 38.0731 236.285 36.2574C238.656 34.4417 241.593 33.6569 244.554 34.05C247.515 34.443 250.147 35.9652 251.962 38.3364C253.778 40.7076 254.563 43.6447 254.17 46.6053C253.777 49.5673 252.254 52.1979 249.883 54.0136C247.512 55.8293 244.575 56.614 241.613 56.221C240.826 56.1162 240.066 55.9315 239.344 55.676ZM246.555 35.4163C245.877 35.1766 245.171 35.005 244.441 34.9093C241.71 34.5465 239.001 35.2696 236.813 36.9451C234.625 38.6207 233.221 41.0469 232.858 43.7796C232.11 49.418 236.089 54.6149 241.728 55.3616C244.46 55.7245 247.169 55.0013 249.357 53.3258C251.544 51.6503 252.949 49.2241 253.31 46.4914C253.673 43.7599 252.95 41.0508 251.275 38.863C250.047 37.2595 248.415 36.0766 246.555 35.4163ZM240.548 51.9542C236.702 50.5905 234.682 46.3499 236.045 42.5036C237.409 38.6573 241.65 36.6373 245.496 38.0023C249.342 39.3674 251.362 43.6067 249.997 47.4529C248.635 51.2979 244.396 53.3179 240.548 51.9542ZM245.208 38.8185C241.812 37.6146 238.068 39.3962 236.864 42.7931C235.659 46.1887 237.443 49.9328 240.839 51.1367C244.234 52.3407 247.977 50.5577 249.182 47.1621C250.386 43.7652 248.603 40.0224 245.208 38.8185Z" fill="url(#paint14_linear_77_353)"/>
<path d="M225.107 64.7712L224.765 63.8528C224.672 63.6039 224.71 63.3275 224.861 63.1101C225.239 62.5611 225.55 61.9756 225.79 61.3677C225.886 61.1201 226.096 60.9341 226.354 60.8725L227.308 60.6446C227.71 60.5489 228.007 60.207 228.047 59.7957L228.166 58.5669C228.207 58.1555 227.981 57.7638 227.604 57.5909L226.712 57.1821C226.471 57.0721 226.302 56.8494 226.253 56.5874C226.135 55.9442 225.944 55.3101 225.679 54.6983C225.573 54.4546 225.59 54.1769 225.729 53.9503L226.243 53.1145C226.459 52.7621 226.428 52.3114 226.166 51.9918L225.381 51.0381C225.119 50.7184 224.681 50.6005 224.293 50.7446L223.375 51.0865C223.126 51.1796 222.85 51.1416 222.632 50.9909C222.083 50.6123 221.498 50.3018 220.89 50.0621C220.642 49.9652 220.458 49.7556 220.395 49.4975L220.167 48.5438C220.071 48.1416 219.729 47.8442 219.318 47.8049L218.089 47.6844C217.678 47.6438 217.286 47.8691 217.113 48.2464L216.704 49.1385C216.594 49.3796 216.372 49.5486 216.11 49.597C215.466 49.7149 214.832 49.9062 214.221 50.1708C213.977 50.2769 213.699 50.2599 213.473 50.1211L212.637 49.6075C212.284 49.3914 211.834 49.4228 211.514 49.6848L210.56 50.4695C210.241 50.7315 210.123 51.1691 210.267 51.5569L210.609 52.4752C210.702 52.7241 210.664 53.0005 210.513 53.218C210.135 53.7669 209.824 54.3525 209.584 54.9603C209.487 55.2079 209.278 55.3926 209.02 55.4555L208.065 55.6835C207.663 55.7791 207.365 56.121 207.326 56.5324L207.205 57.7612C207.165 58.1725 207.39 58.5642 207.767 58.7372L208.66 59.1459C208.901 59.2559 209.07 59.4786 209.118 59.7406C209.236 60.3839 209.427 61.0179 209.692 61.6297C209.798 61.8734 209.781 62.1511 209.642 62.3777L209.13 63.2135C208.914 63.5659 208.945 64.0166 209.207 64.3362L209.992 65.29C210.255 65.6096 210.691 65.7275 211.079 65.5834L211.997 65.2415C212.246 65.1485 212.523 65.1865 212.74 65.3371C213.289 65.7157 213.875 66.0262 214.483 66.2659C214.73 66.3629 214.916 66.5725 214.978 66.8306L215.206 67.7856C215.301 68.1877 215.643 68.4851 216.055 68.5244L217.283 68.6436C217.695 68.6843 218.087 68.4589 218.259 68.0829L218.668 67.1908C218.778 66.9498 219.001 66.7808 219.263 66.7323C219.906 66.6144 220.54 66.4231 221.152 66.1585C221.396 66.0524 221.673 66.0694 221.9 66.2083L222.736 66.7205C223.088 66.9367 223.539 66.9052 223.859 66.6432L224.812 65.8585C225.133 65.5952 225.251 65.1589 225.107 64.7712ZM212.626 63.2646C209.81 60.469 209.793 55.9193 212.588 53.1027C215.384 50.2861 219.934 50.2691 222.75 53.0647C225.567 55.8603 225.584 60.4101 222.788 63.2266C219.993 66.0432 215.443 66.0603 212.626 63.2646Z" fill="url(#paint15_linear_77_353)"/>
<path d="M215.726 68.7609C215.325 68.6194 215.013 68.2814 214.912 67.8556L214.684 66.9019C214.646 66.7434 214.531 66.6124 214.375 66.5509C213.739 66.3006 213.132 65.9771 212.571 65.5893C212.434 65.495 212.261 65.4714 212.108 65.529L211.189 65.8709C210.68 66.0609 210.106 65.9063 209.76 65.4858L208.975 64.5321C208.629 64.1116 208.589 63.5181 208.873 63.0557L209.385 62.2199C209.47 62.081 209.481 61.9068 209.415 61.7535C209.144 61.1286 208.944 60.471 208.821 59.7976C208.791 59.6326 208.684 59.4937 208.536 59.4256L207.644 59.0168C207.149 58.7902 206.853 58.2741 206.905 57.733L207.026 56.5042C207.078 55.9631 207.47 55.5151 207.998 55.388L208.953 55.1601C209.111 55.1221 209.242 55.0068 209.304 54.8509C209.554 54.2156 209.878 53.6077 210.266 53.047C210.36 52.9095 210.384 52.7365 210.327 52.5833L209.985 51.6649C209.795 51.1553 209.95 50.5815 210.37 50.2357L211.324 49.451C211.745 49.1051 212.338 49.0645 212.801 49.3488L213.636 49.8623C213.775 49.9475 213.949 49.9593 214.103 49.8924C214.728 49.6213 215.387 49.4208 216.059 49.2977C216.224 49.2676 216.363 49.1614 216.431 49.0134L216.839 48.1213C217.066 47.6274 217.581 47.33 218.122 47.3824L219.351 47.5016C219.892 47.5553 220.341 47.9457 220.467 48.4737L220.695 49.4274C220.733 49.5859 220.848 49.7169 221.004 49.7785C221.639 50.0287 222.246 50.3523 222.808 50.74C222.945 50.8357 223.118 50.8579 223.272 50.8016L224.19 50.4597C224.7 50.2697 225.275 50.4256 225.619 50.8448L226.404 51.7986C226.75 52.2191 226.79 52.8125 226.506 53.2763L225.994 54.1121C225.909 54.2509 225.898 54.4252 225.964 54.5784C226.235 55.2033 226.435 55.8623 226.559 56.5343C226.589 56.6994 226.695 56.8383 226.843 56.9064L227.735 57.3151C228.23 57.5417 228.526 58.0579 228.474 58.5976L228.353 59.8264C228.301 60.3675 227.909 60.8168 227.381 60.9426L226.428 61.1705C226.269 61.2085 226.138 61.3238 226.076 61.481C225.826 62.1164 225.503 62.7229 225.115 63.2849C225.019 63.4225 224.997 63.5954 225.053 63.7487L225.395 64.667C225.585 65.1766 225.429 65.7504 225.01 66.0963L224.056 66.881C223.636 67.2268 223.042 67.2674 222.58 66.9832L221.744 66.4696C221.605 66.3845 221.431 66.374 221.278 66.4395C220.653 66.7107 219.995 66.9111 219.322 67.0343C219.157 67.0644 219.018 67.1705 218.95 67.3185L218.541 68.2107C218.314 68.7045 217.8 69.0019 217.257 68.9495L216.028 68.8303C215.924 68.8185 215.823 68.7949 215.726 68.7609ZM212.654 64.9513C212.747 64.984 212.835 65.0286 212.918 65.0862C213.441 65.4465 214.007 65.7478 214.599 65.9823C214.941 66.1172 215.195 66.4081 215.279 66.7605L215.507 67.7142C215.573 67.9893 215.806 68.1936 216.089 68.2198L217.318 68.339C217.599 68.3666 217.868 68.212 217.986 67.9552L218.394 67.0631C218.545 66.7343 218.85 66.4971 219.212 66.4316C219.839 66.3164 220.452 66.1303 221.034 65.8775C221.371 65.7321 221.755 65.7583 222.064 65.9469L222.9 66.4605C223.141 66.6072 223.45 66.5875 223.669 66.4067L224.622 65.622C224.841 65.4426 224.921 65.1426 224.823 64.8779L224.481 63.9596C224.355 63.6203 224.404 63.2378 224.612 62.9365C224.972 62.4138 225.273 61.8478 225.508 61.2557C225.643 60.9138 225.934 60.6596 226.286 60.5758L227.241 60.3478C227.516 60.2823 227.719 60.0478 227.747 59.7662L227.866 58.5374C227.893 58.2557 227.739 57.9872 227.482 57.8692L226.59 57.4605C226.261 57.3099 226.024 57.0046 225.959 56.6431C225.843 56.0169 225.657 55.4038 225.404 54.8208C225.259 54.4841 225.284 54.1003 225.474 53.7911L225.986 52.9553C226.134 52.7143 226.113 52.4051 225.934 52.1863L225.149 51.2326C224.969 51.0138 224.669 50.9339 224.405 51.0322L223.486 51.3741C223.147 51.4999 222.765 51.4514 222.463 51.2431C221.941 50.8828 221.375 50.5815 220.783 50.3483C220.441 50.2134 220.187 49.9226 220.103 49.5702L219.875 48.6165C219.809 48.3414 219.575 48.137 219.293 48.1108L218.064 47.9916C217.783 47.9641 217.514 48.1187 217.396 48.3754L216.987 49.2676C216.837 49.5964 216.532 49.8335 216.17 49.899C215.544 50.013 214.931 50.2003 214.348 50.4531C214.011 50.5986 213.627 50.5737 213.318 50.3837L212.482 49.8702C212.241 49.7221 211.932 49.7431 211.713 49.9226L210.76 50.7073C210.541 50.8868 210.461 51.1868 210.559 51.4514L210.901 52.3697C211.027 52.709 210.978 53.0916 210.77 53.3929C210.41 53.9156 210.108 54.4815 209.874 55.0736C209.739 55.4156 209.448 55.6697 209.096 55.7535L208.142 55.9815C207.867 56.047 207.664 56.2815 207.636 56.5631L207.517 57.792C207.49 58.0736 207.644 58.3422 207.901 58.4601L208.793 58.8688C209.123 59.0195 209.359 59.326 209.425 59.6863C209.54 60.3138 209.726 60.9269 209.979 61.5085C210.124 61.8452 210.098 62.229 209.909 62.5382L209.397 63.374C209.249 63.6151 209.27 63.9242 209.449 64.143L210.234 65.0967C210.414 65.3155 210.712 65.3954 210.978 65.2971L211.897 64.9552C212.14 64.8635 212.409 64.8635 212.654 64.9513ZM215.173 65.2212C214.166 64.8635 213.218 64.2845 212.41 63.4814C209.478 60.5719 209.461 55.819 212.371 52.8872C215.28 49.9553 220.033 49.937 222.965 52.8479C225.897 55.7575 225.914 60.5103 223.004 63.4421C220.898 65.5657 217.823 66.1605 215.173 65.2212ZM212.842 63.0478C215.535 65.7203 219.9 65.7033 222.572 63.0111C225.245 60.319 225.229 55.954 222.535 53.2815C219.843 50.609 215.478 50.6248 212.806 53.3182C210.133 56.0103 210.15 60.3753 212.842 63.0478Z" fill="url(#paint16_linear_77_353)"/>
<path d="M232.955 247.545C256.817 247.545 276.16 228.201 276.16 204.34C276.16 180.478 256.817 161.135 232.955 161.135C209.094 161.135 189.75 180.478 189.75 204.34C189.75 228.201 209.094 247.545 232.955 247.545Z" fill="url(#paint17_linear_77_353)"/>
<path d="M232.956 246.109C256.024 246.109 274.725 227.408 274.725 204.339C274.725 181.271 256.024 162.57 232.956 162.57C209.887 162.57 191.187 181.271 191.187 204.339C191.187 227.408 209.887 246.109 232.956 246.109Z" fill="url(#paint18_linear_77_353)"/>
<path d="M194.452 202.735C194.444 202.735 194.437 202.735 194.429 202.735C194.185 202.722 193.999 202.515 194.011 202.271C194.096 200.63 194.287 198.982 194.578 197.373C194.621 197.133 194.849 196.974 195.09 197.017C195.33 197.06 195.49 197.289 195.447 197.529C195.164 199.102 194.976 200.712 194.892 202.316C194.879 202.553 194.685 202.735 194.452 202.735Z" fill="white"/>
<path d="M198.514 187.431C198.447 187.431 198.379 187.415 198.314 187.384C198.097 187.274 198.009 187.008 198.119 186.791C204.798 173.561 218.146 165.342 232.954 165.342C235.316 165.342 237.684 165.555 239.989 165.976C240.229 166.02 240.388 166.25 240.344 166.49C240.301 166.73 240.072 166.891 239.831 166.845C237.576 166.435 235.263 166.227 232.954 166.227C218.48 166.227 205.433 174.26 198.907 187.19C198.829 187.342 198.675 187.431 198.514 187.431Z" fill="white"/>
<path opacity="0.78" d="M258.858 230.247C272.663 216.442 272.663 194.059 258.858 180.254C245.052 166.448 222.669 166.448 208.864 180.254C195.059 194.059 195.059 216.442 208.864 230.247C222.669 244.053 245.052 244.053 258.858 230.247Z" fill="white"/>
<path d="M219.313 204.894C219.313 204.208 218.757 203.654 218.073 203.654H212.136C211.451 203.654 210.897 204.21 210.897 204.894V216.59C210.897 217.275 211.452 217.829 212.136 217.829H218.073C218.758 217.829 219.313 217.273 219.313 216.59V204.894Z" fill="url(#paint19_linear_77_353)"/>
<path d="M230.83 198.693C230.83 198.008 230.274 197.454 229.59 197.454H223.653C222.968 197.454 222.414 198.009 222.414 198.693V216.589C222.414 217.274 222.97 217.829 223.653 217.829H229.59C230.276 217.829 230.83 217.273 230.83 216.589V198.693Z" fill="url(#paint20_linear_77_353)"/>
<path d="M242.346 192.048C242.346 191.363 241.79 190.809 241.107 190.809H235.169C234.484 190.809 233.93 191.365 233.93 192.048V216.146C233.93 216.832 234.486 217.386 235.169 217.386H241.107C241.792 217.386 242.346 216.83 242.346 216.146V192.048Z" fill="url(#paint21_linear_77_353)"/>
<path d="M253.864 186.732C253.864 186.047 253.308 185.493 252.625 185.493H246.688C246.002 185.493 245.448 186.049 245.448 186.732V216.147C245.448 216.832 246.004 217.386 246.688 217.386H252.625C253.31 217.386 253.864 216.831 253.864 216.147V186.732Z" fill="url(#paint22_linear_77_353)"/>
<path d="M307.592 168.316C331.453 168.316 350.797 148.972 350.797 125.111C350.797 101.249 331.453 81.9058 307.592 81.9058C283.73 81.9058 264.387 101.249 264.387 125.111C264.387 148.972 283.73 168.316 307.592 168.316Z" fill="url(#paint23_linear_77_353)"/>
<path d="M307.592 166.878C330.66 166.878 349.36 148.178 349.36 125.111C349.36 102.043 330.66 83.3428 307.592 83.3428C284.524 83.3428 265.824 102.043 265.824 125.111C265.824 148.178 284.524 166.878 307.592 166.878Z" fill="url(#paint24_linear_77_353)"/>
<path d="M269.089 123.506C269.081 123.506 269.073 123.506 269.065 123.506C268.821 123.493 268.635 123.286 268.647 123.042C268.732 121.401 268.923 119.753 269.214 118.144C269.258 117.904 269.485 117.745 269.726 117.788C269.966 117.831 270.126 118.06 270.083 118.3C269.8 119.873 269.613 121.483 269.529 123.087C269.517 123.324 269.322 123.506 269.089 123.506Z" fill="white"/>
<path d="M273.15 108.202C273.083 108.202 273.015 108.187 272.951 108.155C272.733 108.045 272.645 107.78 272.756 107.563C279.434 94.3329 292.782 86.1138 307.591 86.1138C309.953 86.1138 312.32 86.326 314.626 86.7478C314.865 86.7911 315.024 87.0216 314.981 87.2614C314.937 87.5011 314.708 87.6622 314.467 87.6164C312.212 87.2063 309.899 86.998 307.591 86.998C293.116 86.998 280.069 95.0312 273.543 107.961C273.467 108.113 273.311 108.202 273.15 108.202Z" fill="white"/>
<path opacity="0.78" d="M333.496 151.019C347.301 137.213 347.301 114.83 333.496 101.025C319.69 87.2197 297.307 87.2197 283.502 101.025C269.696 114.83 269.696 137.213 283.502 151.019C297.307 164.824 319.69 164.824 333.496 151.019Z" fill="white"/>
<path d="M325.622 110.352V144.185C325.622 146.426 324.045 148.728 321.802 148.728H293.382C291.141 148.728 288.857 146.426 288.857 144.185V107.645C288.857 105.404 291.141 103.547 293.382 103.547H319.109L325.622 110.352Z" fill="url(#paint25_linear_77_353)"/>
<path d="M297.836 117.571C297.836 118.848 296.801 119.883 295.524 119.883C294.246 119.883 293.211 118.848 293.211 117.571C293.211 116.293 294.246 115.258 295.524 115.258C296.801 115.258 297.836 116.293 297.836 117.571Z" fill="white"/>
<path d="M321.635 118.462C321.635 119.521 320.777 120.38 319.717 120.38H301.847C300.789 120.38 299.929 119.522 299.929 118.462V117.868C299.929 116.809 300.787 115.95 301.847 115.95H319.717C320.776 115.95 321.635 116.808 321.635 117.868V118.462Z" fill="white"/>
<path d="M297.836 125.69C297.836 126.967 296.801 128.002 295.524 128.002C294.246 128.002 293.211 126.967 293.211 125.69C293.211 124.413 294.246 123.378 295.524 123.378C296.801 123.378 297.836 124.413 297.836 125.69Z" fill="white"/>
<path d="M321.635 126.878C321.635 127.936 320.777 128.796 319.717 128.796H301.847C300.789 128.796 299.929 127.938 299.929 126.878V126.283C299.929 125.225 300.787 124.365 301.847 124.365H319.717C320.776 124.365 321.635 125.223 321.635 126.283V126.878Z" fill="white"/>
<path d="M297.836 133.81C297.836 135.087 296.801 136.122 295.524 136.122C294.246 136.122 293.211 135.087 293.211 133.81C293.211 132.532 294.246 131.498 295.524 131.498C296.801 131.498 297.836 132.534 297.836 133.81Z" fill="white"/>
<path d="M321.635 134.41C321.635 135.469 320.777 136.328 319.717 136.328H301.847C300.789 136.328 299.929 135.47 299.929 134.41V133.815C299.929 132.757 300.787 131.897 301.847 131.897H319.717C320.776 131.897 321.635 132.756 321.635 133.815V134.41Z" fill="white"/>
<path d="M325.862 110.635H321.802C320.309 110.635 319.42 109.139 319.42 107.645V103.572L319.271 103.727L325.862 110.635Z" fill="url(#paint26_linear_77_353)"/>
<path d="M233.975 110.594C233.884 110.592 233.503 110.627 233.439 110.689C233.375 110.752 233.045 110.839 233.045 110.929V113.48C233.045 113.663 233.485 113.813 233.668 113.816C241.695 113.992 248.318 120.576 248.318 128.645C248.318 136.823 241.738 143.477 233.559 143.477C225.381 143.477 218.764 136.823 218.764 128.645C218.764 125.777 219.593 123.021 221.133 120.631L222.487 121.99C222.572 122.075 222.699 122.109 222.816 122.079C222.932 122.049 223.026 121.958 223.057 121.842L224.861 115.242C224.892 115.125 224.861 115.002 224.776 114.917C224.691 114.832 224.567 114.798 224.452 114.828L217.835 116.566C217.719 116.596 217.628 116.687 217.597 116.803C217.565 116.92 217.598 117.043 217.682 117.128L218.837 118.295C216.705 121.339 215.577 124.914 215.577 128.645C215.577 138.6 223.677 146.7 233.632 146.7C243.587 146.7 251.686 138.6 251.686 128.645C251.686 118.805 243.773 110.777 233.975 110.594Z" fill="url(#paint27_linear_77_353)"/>
<path d="M95.479 211.899C95.479 211.899 115.74 236.575 123.193 230.628C130.647 224.682 110.523 192.271 110.523 192.271L95.479 211.899Z" fill="url(#paint28_linear_77_353)"/>
<path d="M96.3085 372.117C96.3098 371.997 96.3019 371.874 96.2718 371.751C94.4417 364.496 85.3605 359.977 85.3605 359.977L81.7618 360.259C79.6933 366.653 79.9592 370.574 80.2907 372.32C80.2998 372.369 80.3143 372.416 80.3274 372.463C83.2959 372.729 89.4059 372.902 96.3085 372.117Z" fill="url(#paint29_linear_77_353)"/>
<path d="M80.313 354.899L81.8366 362.237C81.9479 362.774 82.3619 363.177 82.8623 363.224C83.4754 363.282 84.3466 363.316 85.2243 363.186C86.0103 363.071 86.5579 362.272 86.4191 361.414L85.3592 354.899H80.313Z" fill="url(#paint30_linear_77_353)"/>
<path d="M128.187 371.796C128.161 371.741 128.138 371.683 128.1 371.631C126.173 368.938 121.264 363.576 111.565 361.25L106.912 361.104C106.912 361.104 104.839 364.705 104.801 371.375C105.864 371.81 107.919 372.278 111.894 372.389C118.038 372.562 125.326 372.033 128.187 371.796Z" fill="url(#paint31_linear_77_353)"/>
<path d="M106.048 354.053C106.101 354.4 106.737 359.671 106.985 361.715C107.044 362.201 107.395 362.577 107.839 362.63C108.632 362.724 109.914 362.81 111.036 362.58C111.641 362.455 112.078 361.875 112.078 361.199V352.925L106.048 354.053Z" fill="url(#paint32_linear_77_353)"/>
<path d="M102.316 257.851C102.316 257.851 113.539 300.501 113.336 354.174C113.332 355.152 112.646 355.997 111.688 356.199C110.277 356.496 108.203 356.849 106.486 356.8C105.569 356.774 104.803 356.094 104.649 355.19C103.076 345.962 94.0446 293.974 88.9001 285.534C88.9001 285.534 85.5149 331.837 86.597 355.86C86.6245 356.457 86.187 356.974 85.5922 357.044C84.6909 357.147 83.2499 357.227 81.4158 357.032C80.7189 356.959 80.1582 356.432 80.0586 355.739C78.9372 347.929 72.4866 301.439 72.7604 267.951C72.7761 266.062 77.7543 257.851 77.7543 257.851H102.316Z" fill="url(#paint33_linear_77_353)"/>
<path d="M110.045 192.48C94.6001 190.246 77.6338 192.295 69.4002 193.333C66.7343 193.668 64.295 194.984 62.5383 197.017C55.5702 205.08 40.2808 227.157 58.278 249.401C60.5811 248.122 63.8535 246.072 66.0767 243.7C64.0854 238.088 63.923 230.915 68.0954 222.12C68.2382 222.817 68.4138 223.507 68.6286 224.185C74.3797 242.405 74.6862 257.567 74.6731 261.062C74.6718 261.536 74.9561 261.963 75.3963 262.14C82.9656 265.173 97.5359 263.367 102.426 262.639C103.324 262.505 103.926 261.671 103.802 260.772C102.082 248.307 107.923 230.079 112.569 218.116C114.404 213.388 111.007 193.804 110.045 192.48Z" fill="url(#paint34_linear_77_353)"/>
<path d="M85.4286 174.362L83.2958 191.99C83.1989 192.789 83.6915 193.546 84.4644 193.772C86.7792 194.449 91.7338 195.474 96.2612 193.611C97.1206 193.257 97.5949 192.327 97.3984 191.419L94.7023 179.012L85.4286 174.362Z" fill="url(#paint35_linear_77_353)"/>
<path d="M99.2539 161.832C99.3876 162.076 102.241 180.174 102.241 180.174L91.8719 181.584L86.6187 164.831C86.6187 164.832 97.0256 157.763 99.2539 161.832Z" fill="url(#paint36_linear_77_353)"/>
<path d="M90.4603 166.499C90.1655 166.861 90.0555 167.335 90.159 167.79L92.2039 176.694C92.2354 176.829 92.2825 176.957 92.3493 177.079C92.7201 177.747 94.072 179.781 96.117 178.277C97.8606 176.995 99.4799 175.843 100.889 175.608C101.712 175.472 102.484 176.046 102.611 176.871C102.873 178.57 103.33 182.009 103.309 185.122C103.304 185.902 102.692 186.542 101.914 186.597C99.8598 186.741 95.8406 186.903 92.5157 186.307C91.9694 186.209 91.524 185.82 91.3511 185.293C90.5926 182.972 88.4389 176.474 87.5494 174.734C86.7227 173.118 84.3149 172.841 83.2014 172.803C82.7795 172.789 82.3852 172.602 82.1088 172.282C81.2782 171.324 79.9813 169.189 82.4821 167.103C83.1044 166.585 83.1778 165.648 82.6721 165.016C81.7656 163.883 80.9782 162.053 82.9197 160.135C84.8861 158.195 87.1079 158.686 88.5162 159.343C89.1397 159.634 89.91 159.508 90.3555 158.984C90.5533 158.751 90.848 158.593 91.2817 158.643C92.1017 158.737 92.8354 158.198 92.9349 157.379C93.1052 155.975 93.8585 154.323 96.3436 153.85C100.903 152.983 103.162 157.548 103.071 160.752C102.98 163.957 97.9851 164.617 95.1528 164.076C93.0764 163.68 91.2712 165.504 90.4603 166.499Z" fill="url(#paint37_linear_77_353)"/>
<path d="M88.3384 178.017C88.3384 178.017 88.2559 172.427 85.9948 171.895C83.7336 171.364 81.2878 172.993 83.2136 176.344C85.6096 180.514 88.3384 178.017 88.3384 178.017Z" fill="url(#paint38_linear_77_353)"/>
<path d="M67.3299 220.757C64.2789 212.408 65.3858 202.327 65.3976 202.227L66.2387 202.322C66.2269 202.422 65.1448 212.309 68.1251 220.466L67.3299 220.757Z" fill="url(#paint39_linear_77_353)"/>
<path d="M88.4861 284.449C88.2974 284.449 88.1258 284.323 88.0774 284.132C87.1472 280.542 80.1778 276.598 80.1071 276.558C79.9027 276.444 79.8307 276.186 79.9447 275.982C80.0586 275.779 80.3154 275.705 80.5211 275.819C80.8211 275.987 87.8756 279.981 88.8961 283.919C88.9551 284.146 88.8188 284.377 88.5922 284.435C88.5568 284.445 88.5201 284.449 88.4861 284.449Z" fill="url(#paint40_linear_77_353)"/>
<path d="M66.075 243.7C63.8519 246.072 60.5794 248.122 58.2764 249.401C61.7152 253.652 66.3698 257.91 72.5295 262.076L73.275 263.747C73.9129 265.18 75.3081 266.13 76.8762 266.205C85.4871 266.615 87.8687 264.789 79.943 259.26C79.943 259.262 69.806 254.217 66.075 243.7Z" fill="url(#paint41_linear_77_353)"/>
<path d="M129.379 206.336C129.379 206.336 118.515 217.63 116.005 221.728C113.495 225.825 116.289 233.286 121.991 231.554C127.693 229.822 134.331 210.225 134.331 210.225L129.379 206.336Z" fill="url(#paint42_linear_77_353)"/>
<path d="M111.192 190.295C111.192 190.295 120.74 215.475 123.757 220.713C127.259 226.792 137.485 222.919 136.975 217.829C136.467 212.741 124.518 191.707 124.518 191.707L111.192 190.295Z" fill="url(#paint43_linear_77_353)"/>
<path d="M124.094 171.953L183.435 151.377L182.811 207.057L122.472 193.592L124.094 171.953Z" fill="url(#paint44_linear_77_353)"/>
<path d="M183.491 207.992C186.71 207.992 189.32 195.181 189.32 179.378C189.32 163.575 186.71 150.765 183.491 150.765C180.271 150.765 177.661 163.575 177.661 179.378C177.661 195.181 180.271 207.992 183.491 207.992Z" fill="url(#paint45_linear_77_353)"/>
<path d="M183.933 206.035C183.407 205.499 182.259 203.432 181.274 198.086C180.323 192.919 179.799 186.218 179.799 179.217C179.799 172.216 180.323 165.514 181.274 160.349C182.258 155.002 183.405 152.935 183.933 152.399C184.46 152.935 185.608 155.002 186.593 160.349C187.544 165.515 188.068 172.216 188.068 179.217C188.068 186.218 187.544 192.92 186.593 198.086C185.608 203.432 184.46 205.499 183.933 206.035Z" fill="url(#paint46_linear_77_353)"/>
<mask id="mask0_77_353" style="mask-type:luminance" maskUnits="userSpaceOnUse" x="179" y="152" width="17" height="55">
<path d="M183.933 206.035C183.407 205.499 182.259 203.432 181.274 198.086C180.323 192.919 179.799 186.218 179.799 179.217C179.799 172.216 180.323 165.514 181.274 160.349C182.258 155.002 183.405 152.935 183.933 152.399C184.46 152.935 185.608 155.002 186.593 160.349C187.544 165.515 195.049 172.216 195.049 179.217C195.049 186.218 187.544 192.92 186.593 198.086C185.608 203.432 184.46 205.499 183.933 206.035Z" fill="white"/>
</mask>
<g mask="url(#mask0_77_353)">
<path d="M191.406 179.004C191.406 183.865 188.787 187.807 183.603 187.807C178.419 187.807 174.217 183.866 174.217 179.004C174.217 174.141 178.419 170.2 183.603 170.2C188.786 170.202 191.406 174.142 191.406 179.004Z" fill="url(#paint47_linear_77_353)"/>
</g>
<path d="M114.523 170.756C117.314 170.432 121.317 170.315 125.645 171.306C124.22 178.755 124.434 186.518 126.084 194.558H113.877C111.93 194.558 110.272 193.144 109.968 191.221C109.36 187.367 108.616 180.891 109.408 175.689C109.805 173.08 111.899 171.061 114.523 170.756Z" fill="url(#paint48_linear_77_353)"/>
<path d="M121.848 176.602H112.338C111.968 176.602 111.628 176.401 111.451 176.076C111.274 175.751 111.29 175.357 111.49 175.045C111.605 174.865 111.845 174.816 112.025 174.931C112.204 175.046 112.255 175.286 112.138 175.465C112.07 175.571 112.11 175.67 112.129 175.706C112.149 175.743 112.211 175.83 112.338 175.83H121.848C121.979 175.83 122.086 175.723 122.086 175.594V174.918C122.086 174.787 121.979 174.681 121.848 174.681H112.267C112.053 174.681 111.88 174.508 111.88 174.294C111.88 174.081 112.053 173.908 112.267 173.908H121.848C122.405 173.908 122.857 174.361 122.857 174.916V175.592C122.859 176.149 122.405 176.602 121.848 176.602Z" fill="white"/>
<path d="M121.001 180.814H111.49C111.12 180.814 110.78 180.612 110.603 180.287C110.426 179.962 110.441 179.567 110.642 179.256C110.759 179.077 110.997 179.026 111.177 179.141C111.356 179.258 111.407 179.496 111.292 179.675C111.223 179.782 111.263 179.88 111.283 179.918C111.303 179.954 111.364 180.041 111.491 180.041H121.002C121.133 180.041 121.239 179.935 121.239 179.805V179.129C121.239 178.998 121.133 178.892 121.002 178.892H111.42C111.207 178.892 111.034 178.719 111.034 178.506C111.034 178.292 111.207 178.119 111.42 178.119H121.002C121.559 178.119 122.012 178.572 122.012 179.129V179.805C122.009 180.362 121.558 180.814 121.001 180.814Z" fill="white"/>
<path d="M132.716 170.588C132.552 170.588 132.401 170.483 132.348 170.319C132.284 170.116 132.397 169.899 132.6 169.833L177.544 155.532C177.747 155.466 177.965 155.58 178.03 155.783C178.095 155.986 177.983 156.204 177.779 156.269L132.834 170.571C132.794 170.581 132.754 170.588 132.716 170.588Z" fill="white"/>
<path d="M126.638 173.072C126.486 173.072 126.341 172.982 126.28 172.832C126.199 172.634 126.295 172.409 126.491 172.328L128.805 171.382C129.003 171.301 129.228 171.396 129.309 171.593C129.39 171.791 129.295 172.016 129.098 172.097L126.785 173.043C126.736 173.063 126.687 173.072 126.638 173.072Z" fill="white"/>
<path d="M121.848 185.748H112.338C111.968 185.748 111.628 185.546 111.451 185.221C111.274 184.896 111.288 184.5 111.49 184.19C111.607 184.011 111.845 183.959 112.024 184.075C112.204 184.191 112.255 184.43 112.14 184.609C112.07 184.715 112.111 184.814 112.131 184.85C112.15 184.887 112.212 184.973 112.339 184.973H121.85C121.981 184.973 122.087 184.867 122.087 184.736V184.06C122.087 183.931 121.981 183.823 121.85 183.823H112.268C112.055 183.823 111.882 183.65 111.882 183.437C111.882 183.223 112.055 183.05 112.268 183.05H121.85C122.406 183.05 122.858 183.504 122.858 184.059V184.735C122.858 185.296 122.405 185.748 121.848 185.748Z" fill="white"/>
<path d="M122.739 191.223H113.228C112.859 191.223 112.518 191.022 112.341 190.697C112.164 190.372 112.179 189.978 112.381 189.666C112.497 189.486 112.736 189.435 112.915 189.55C113.095 189.667 113.146 189.906 113.03 190.085C112.961 190.191 113.002 190.289 113.021 190.327C113.042 190.364 113.102 190.45 113.23 190.45H122.74C122.87 190.45 122.976 190.344 122.976 190.213V189.536C122.976 189.406 122.87 189.3 122.74 189.3H113.159C112.945 189.3 112.772 189.127 112.772 188.914C112.772 188.7 112.945 188.527 113.159 188.527H122.74C123.297 188.527 123.749 188.981 123.749 189.536V190.213C123.748 190.77 123.296 191.223 122.739 191.223Z" fill="white"/>
<path d="M131.235 220.996C130.787 220.996 130.334 220.947 129.882 220.849C127.904 220.418 126.294 219.113 125.463 217.27L117.865 200.387C117.777 200.194 117.864 199.964 118.059 199.877C118.253 199.789 118.482 199.875 118.57 200.07L126.168 216.952C126.896 218.569 128.31 219.714 130.046 220.092C131.751 220.462 133.477 220.022 134.781 218.881C134.852 218.82 134.923 218.755 134.995 218.69C135.152 218.546 135.396 218.556 135.541 218.714C135.685 218.871 135.675 219.116 135.518 219.26C135.442 219.329 135.366 219.397 135.291 219.463C134.146 220.465 132.718 220.996 131.235 220.996Z" fill="white"/>
<path d="M117.093 198.12C116.946 198.12 116.805 198.035 116.741 197.892L115.893 196.008C115.805 195.814 115.892 195.585 116.087 195.497C116.281 195.409 116.51 195.496 116.598 195.691L117.446 197.575C117.533 197.769 117.447 197.998 117.252 198.086C117.199 198.109 117.146 198.12 117.093 198.12Z" fill="white"/>
<path d="M190.016 178.892C189.815 178.892 189.645 178.736 189.63 178.533C189.464 176.196 188.658 174.455 187.236 173.36C184.769 171.463 181.22 172.111 181.183 172.119C180.974 172.159 180.771 172.022 180.731 171.813C180.692 171.603 180.828 171.401 181.038 171.361C181.196 171.331 184.956 170.636 187.702 172.744C189.311 173.979 190.219 175.908 190.401 178.478C190.416 178.69 190.255 178.876 190.043 178.891C190.034 178.892 190.025 178.892 190.016 178.892Z" fill="white"/>
<path d="M125.266 199.844C125.266 199.844 128.361 197.216 130.78 199.844C133.199 202.472 133.677 207.057 133.185 207.281C132.692 207.504 117.736 203.791 125.266 199.844Z" fill="url(#paint49_linear_77_353)"/>
<path opacity="0.26" d="M427.671 387.761C432.204 383.179 426.095 377.867 412.166 374.821C407.474 373.795 402.046 373.012 397.673 371.889C387.203 369.199 390.637 365.559 382.365 362.725C355.341 353.469 314.267 352.38 279.399 356.243C252.134 359.264 223.12 359.664 193.596 358.258C171.183 357.19 149.496 355.027 126.871 354.399C109.071 353.905 89.765 354.356 76.8722 357.923C71.0777 359.525 66.1115 361.385 59.1575 362.619C50.7954 364.102 40.2472 364.55 32.0605 366.101C21.8276 368.038 2.03624 388.916 1.76342 392.281C1.48862 395.646 -1.15446 392.001 3.7748 395.115C3.64188 392.107 8.18001 397.898 3.7748 395.115C3.96127 399.333 11.503 387.194 3.77965 390.85C-5.9027 395.433 5.37408 413.477 15.5831 418.056C24.1914 421.917 35.0061 424.68 52.3488 425.409C88.5975 426.932 121.806 423.395 157.399 422.478C189.174 421.661 220.868 423.346 252.119 424.811C288.894 426.535 337.771 428.225 370.57 422.291C382.105 420.205 390.713 417.004 394.447 413.413C397.525 410.453 397.347 407.317 399.256 404.283C401.235 401.138 405.49 398.102 411.717 395.393C416.419 393.347 422.257 391.471 425.758 389.258C426.533 388.77 427.169 388.27 427.671 387.761Z" fill="url(#paint50_linear_77_353)"/>
<defs>
<linearGradient id="paint0_linear_77_353" x1="432.215" y1="423.745" x2="179.668" y2="154.905" gradientUnits="userSpaceOnUse">
<stop stop-color="#B37CFF"/>
<stop offset="1" stop-color="#F895E7"/>
</linearGradient>
<linearGradient id="paint1_linear_77_353" x1="234.53" y1="386.785" x2="229.885" y2="294.812" gradientUnits="userSpaceOnUse">
<stop stop-color="#2B3582"/>
<stop offset="1" stop-color="#150E42"/>
</linearGradient>
<linearGradient id="paint2_linear_77_353" x1="39.9619" y1="194.03" x2="407.616" y2="194.03" gradientUnits="userSpaceOnUse">
<stop stop-color="#2B3582"/>
<stop offset="1" stop-color="#150E42"/>
</linearGradient>
<linearGradient id="paint3_linear_77_353" x1="238.322" y1="-19.5353" x2="210.255" y2="342.682" gradientUnits="userSpaceOnUse">
<stop stop-color="#53D8FF"/>
<stop offset="1" stop-color="#3840F7"/>
</linearGradient>
<linearGradient id="paint4_linear_77_353" x1="234.82" y1="352.08" x2="192.085" y2="445.91" gradientUnits="userSpaceOnUse">
<stop stop-color="#2B3582"/>
<stop offset="1" stop-color="#150E42"/>
</linearGradient>
<linearGradient id="paint5_linear_77_353" x1="71.8866" y1="271.48" x2="571.593" y2="-10.2694" gradientUnits="userSpaceOnUse">
<stop stop-color="#A737D5"/>
<stop offset="1" stop-color="#EF497A"/>
</linearGradient>
<linearGradient id="paint6_linear_77_353" x1="213.667" y1="334.753" x2="227.17" y2="11.4743" gradientUnits="userSpaceOnUse">
<stop stop-color="#A737D5"/>
<stop offset="1" stop-color="#EF497A"/>
</linearGradient>
<linearGradient id="paint7_linear_77_353" x1="181.854" y1="84.3649" x2="115.583" y2="211.779" gradientUnits="userSpaceOnUse">
<stop stop-color="#53D8FF"/>
<stop offset="1" stop-color="#3840F7"/>
</linearGradient>
<linearGradient id="paint8_linear_77_353" x1="192.237" y1="77.4079" x2="20.8725" y2="336.291" gradientUnits="userSpaceOnUse">
<stop stop-color="#53D8FF"/>
<stop offset="1" stop-color="#3840F7"/>
</linearGradient>
<linearGradient id="paint9_linear_77_353" x1="148.527" y1="79.2436" x2="192.514" y2="281.342" gradientUnits="userSpaceOnUse">
<stop stop-color="#53D8FF"/>
<stop offset="1" stop-color="#3840F7"/>
</linearGradient>
<linearGradient id="paint10_linear_77_353" x1="144.441" y1="111.986" x2="146.664" y2="122.2" gradientUnits="userSpaceOnUse">
<stop stop-color="#53D8FF"/>
<stop offset="1" stop-color="#3840F7"/>
</linearGradient>
<linearGradient id="paint11_linear_77_353" x1="254.148" y1="8.33669" x2="187.877" y2="135.751" gradientUnits="userSpaceOnUse">
<stop stop-color="#53D8FF"/>
<stop offset="1" stop-color="#3840F7"/>
</linearGradient>
<linearGradient id="paint12_linear_77_353" x1="264.531" y1="1.3796" x2="93.1659" y2="260.263" gradientUnits="userSpaceOnUse">
<stop stop-color="#53D8FF"/>
<stop offset="1" stop-color="#3840F7"/>
</linearGradient>
<linearGradient id="paint13_linear_77_353" x1="241.531" y1="14.9044" x2="247.272" y2="126.599" gradientUnits="userSpaceOnUse">
<stop stop-color="#53D8FF"/>
<stop offset="1" stop-color="#3840F7"/>
</linearGradient>
<linearGradient id="paint14_linear_77_353" x1="241.531" y1="14.9039" x2="247.272" y2="126.599" gradientUnits="userSpaceOnUse">
<stop stop-color="#53D8FF"/>
<stop offset="1" stop-color="#3840F7"/>
</linearGradient>
<linearGradient id="paint15_linear_77_353" x1="215.534" y1="16.2397" x2="221.275" y2="127.934" gradientUnits="userSpaceOnUse">
<stop stop-color="#53D8FF"/>
<stop offset="1" stop-color="#3840F7"/>
</linearGradient>
<linearGradient id="paint16_linear_77_353" x1="215.534" y1="16.2404" x2="221.275" y2="127.935" gradientUnits="userSpaceOnUse">
<stop stop-color="#53D8FF"/>
<stop offset="1" stop-color="#3840F7"/>
</linearGradient>
<linearGradient id="paint17_linear_77_353" x1="254.148" y1="163.595" x2="187.877" y2="291.009" gradientUnits="userSpaceOnUse">
<stop stop-color="#53D8FF"/>
<stop offset="1" stop-color="#3840F7"/>
</linearGradient>
<linearGradient id="paint18_linear_77_353" x1="264.531" y1="156.638" x2="93.1664" y2="415.521" gradientUnits="userSpaceOnUse">
<stop stop-color="#53D8FF"/>
<stop offset="1" stop-color="#3840F7"/>
</linearGradient>
<linearGradient id="paint19_linear_77_353" x1="210.003" y1="166.772" x2="220.985" y2="261.429" gradientUnits="userSpaceOnUse">
<stop stop-color="#53D8FF"/>
<stop offset="1" stop-color="#3840F7"/>
</linearGradient>
<linearGradient id="paint20_linear_77_353" x1="221.744" y1="165.598" x2="232.687" y2="259.923" gradientUnits="userSpaceOnUse">
<stop stop-color="#53D8FF"/>
<stop offset="1" stop-color="#3840F7"/>
</linearGradient>
<linearGradient id="paint21_linear_77_353" x1="233.475" y1="163.904" x2="244.398" y2="258.049" gradientUnits="userSpaceOnUse">
<stop stop-color="#53D8FF"/>
<stop offset="1" stop-color="#3840F7"/>
</linearGradient>
<linearGradient id="paint22_linear_77_353" x1="245.122" y1="162.365" x2="256.083" y2="256.841" gradientUnits="userSpaceOnUse">
<stop stop-color="#53D8FF"/>
<stop offset="1" stop-color="#3840F7"/>
</linearGradient>
<linearGradient id="paint23_linear_77_353" x1="328.784" y1="84.3659" x2="262.513" y2="211.78" gradientUnits="userSpaceOnUse">
<stop stop-color="#53D8FF"/>
<stop offset="1" stop-color="#3840F7"/>
</linearGradient>
<linearGradient id="paint24_linear_77_353" x1="339.168" y1="77.4089" x2="167.803" y2="336.292" gradientUnits="userSpaceOnUse">
<stop stop-color="#53D8FF"/>
<stop offset="1" stop-color="#3840F7"/>
</linearGradient>
<linearGradient id="paint25_linear_77_353" x1="306.812" y1="103.152" x2="307.725" y2="154.716" gradientUnits="userSpaceOnUse">
<stop stop-color="#53D8FF"/>
<stop offset="1" stop-color="#3840F7"/>
</linearGradient>
<linearGradient id="paint26_linear_77_353" x1="322.502" y1="103.492" x2="322.645" y2="111.593" gradientUnits="userSpaceOnUse">
<stop stop-color="#53D8FF"/>
<stop offset="1" stop-color="#3840F7"/>
</linearGradient>
<linearGradient id="paint27_linear_77_353" x1="250.189" y1="96.3389" x2="335.245" y2="-60.4837" gradientUnits="userSpaceOnUse">
<stop stop-color="#FDF53F"/>
<stop offset="1" stop-color="#D93C65"/>
</linearGradient>
<linearGradient id="paint28_linear_77_353" x1="132.396" y1="184.684" x2="82.3221" y2="264.532" gradientUnits="userSpaceOnUse">
<stop stop-color="#53D8FF"/>
<stop offset="1" stop-color="#3840F7"/>
</linearGradient>
<linearGradient id="paint29_linear_77_353" x1="80.0624" y1="366.332" x2="96.3083" y2="366.332" gradientUnits="userSpaceOnUse">
<stop stop-color="#CB236D"/>
<stop offset="1" stop-color="#4C246D"/>
</linearGradient>
<linearGradient id="paint30_linear_77_353" x1="84.5802" y1="347.836" x2="81.4769" y2="374.92" gradientUnits="userSpaceOnUse">
<stop stop-color="#F9B776"/>
<stop offset="1" stop-color="#F47960"/>
</linearGradient>
<linearGradient id="paint31_linear_77_353" x1="104.8" y1="366.764" x2="128.186" y2="366.764" gradientUnits="userSpaceOnUse">
<stop stop-color="#CB236D"/>
<stop offset="1" stop-color="#4C246D"/>
</linearGradient>
<linearGradient id="paint32_linear_77_353" x1="109.858" y1="350.733" x2="106.755" y2="377.816" gradientUnits="userSpaceOnUse">
<stop stop-color="#F9B776"/>
<stop offset="1" stop-color="#F47960"/>
</linearGradient>
<linearGradient id="paint33_linear_77_353" x1="76.4016" y1="367.448" x2="99.4981" y2="289.235" gradientUnits="userSpaceOnUse">
<stop stop-color="#53D8FF"/>
<stop offset="1" stop-color="#3840F7"/>
</linearGradient>
<linearGradient id="paint34_linear_77_353" x1="95.3344" y1="218.915" x2="-21.7303" y2="319.063" gradientUnits="userSpaceOnUse">
<stop stop-color="#53D8FF"/>
<stop offset="1" stop-color="#3840F7"/>
</linearGradient>
<linearGradient id="paint35_linear_77_353" x1="82.7937" y1="166.62" x2="92.2388" y2="195.739" gradientUnits="userSpaceOnUse">
<stop stop-color="#F9B776"/>
<stop offset="1" stop-color="#F47960"/>
</linearGradient>
<linearGradient id="paint36_linear_77_353" x1="95.694" y1="163.92" x2="90.6133" y2="198.407" gradientUnits="userSpaceOnUse">
<stop stop-color="#F9B776"/>
<stop offset="1" stop-color="#F47960"/>
</linearGradient>
<linearGradient id="paint37_linear_77_353" x1="84.8202" y1="177.489" x2="106.844" y2="165.429" gradientUnits="userSpaceOnUse">
<stop stop-color="#2B3582"/>
<stop offset="1" stop-color="#150E42"/>
</linearGradient>
<linearGradient id="paint38_linear_77_353" x1="525.209" y1="518.86" x2="549.324" y2="537.715" gradientUnits="userSpaceOnUse">
<stop stop-color="#F9B776"/>
<stop offset="1" stop-color="#F47960"/>
</linearGradient>
<linearGradient id="paint39_linear_77_353" x1="88.7527" y1="181.073" x2="36.6486" y2="252.801" gradientUnits="userSpaceOnUse">
<stop stop-color="#53D8FF"/>
<stop offset="1" stop-color="#3840F7"/>
</linearGradient>
<linearGradient id="paint40_linear_77_353" x1="55.7133" y1="321.897" x2="14.6788" y2="381.675" gradientUnits="userSpaceOnUse">
<stop stop-color="#2B3582"/>
<stop offset="1" stop-color="#150E42"/>
</linearGradient>
<linearGradient id="paint41_linear_77_353" x1="61.2034" y1="236.312" x2="80.9608" y2="275.32" gradientUnits="userSpaceOnUse">
<stop stop-color="#F9B776"/>
<stop offset="1" stop-color="#F47960"/>
</linearGradient>
<linearGradient id="paint42_linear_77_353" x1="146.18" y1="198.61" x2="116.122" y2="229.006" gradientUnits="userSpaceOnUse">
<stop stop-color="#F9B776"/>
<stop offset="1" stop-color="#F47960"/>
</linearGradient>
<linearGradient id="paint43_linear_77_353" x1="109.221" y1="224.854" x2="130.084" y2="196.868" gradientUnits="userSpaceOnUse">
<stop stop-color="#2B3582"/>
<stop offset="1" stop-color="#150E42"/>
</linearGradient>
<linearGradient id="paint44_linear_77_353" x1="149.957" y1="165.449" x2="268.238" y2="443.211" gradientUnits="userSpaceOnUse">
<stop stop-color="#FDF53F"/>
<stop offset="1" stop-color="#D93C65"/>
</linearGradient>
<linearGradient id="paint45_linear_77_353" x1="304.012" y1="144.161" x2="225.996" y2="166.958" gradientUnits="userSpaceOnUse">
<stop stop-color="#A737D5"/>
<stop offset="1" stop-color="#EF497A"/>
</linearGradient>
<linearGradient id="paint46_linear_77_353" x1="220.024" y1="146.886" x2="155.179" y2="204.976" gradientUnits="userSpaceOnUse">
<stop stop-color="#FDF53F"/>
<stop offset="1" stop-color="#D93C65"/>
</linearGradient>
<linearGradient id="paint47_linear_77_353" x1="196.407" y1="178.269" x2="155.019" y2="180.644" gradientUnits="userSpaceOnUse">
<stop stop-color="#2B3582"/>
<stop offset="1" stop-color="#150E42"/>
</linearGradient>
<linearGradient id="paint48_linear_77_353" x1="118.007" y1="192.974" x2="116.481" y2="154.556" gradientUnits="userSpaceOnUse">
<stop stop-color="#2B3582"/>
<stop offset="1" stop-color="#150E42"/>
</linearGradient>
<linearGradient id="paint49_linear_77_353" x1="123.15" y1="202.983" x2="133.359" y2="202.983" gradientUnits="userSpaceOnUse">
<stop stop-color="#F9B776"/>
<stop offset="1" stop-color="#F47960"/>
</linearGradient>
<linearGradient id="paint50_linear_77_353" x1="-21.8039" y1="438.909" x2="58.4301" y2="222.599" gradientUnits="userSpaceOnUse">
<stop stop-color="#9484AB"/>
<stop offset="1" stop-color="#CD93C3"/>
</linearGradient>
</defs>
</svg>
