<svg width="232" height="179" viewBox="0 0 232 179" fill="none" xmlns="http://www.w3.org/2000/svg">
<path d="M222 0H10C4.47715 0 0 4.47716 0 10V169C0 174.523 4.47715 179 10 179H222C227.523 179 232 174.523 232 169V10C232 4.47715 227.523 0 222 0Z" fill="white"/>
<path d="M171.808 142.18C168.219 145.879 165.008 148.054 162.549 149.695C138.572 165.705 111.164 161.091 102.69 159.513C89.0184 156.969 77.4774 155.173 67.562 146.215C45.0312 125.859 46.1269 83.3949 63.3437 57.0901C65.3851 53.9709 82.5758 28.4892 110.043 24.8986C110.715 24.8108 111.216 24.7606 111.655 24.7143C115.905 24.2646 142.236 21.8899 163.706 39.8781C166.78 42.4531 171.726 47.0975 176.312 54.1813C193.082 80.0817 193.136 120.196 171.808 142.18Z" fill="#F4F7FA"/>
<path d="M182.177 146.206L109.755 141.204C109.668 141.196 109.58 141.196 109.493 141.204L66.3631 143.158C65.3315 143.251 65.3783 145.953 66.5493 146.1L134.317 155.174C134.594 155.208 134.875 155.207 135.152 155.172L182.042 148.583C182.669 148.474 182.898 146.258 182.177 146.206Z" fill="url(#paint0_linear_179_1142)"/>
<path d="M182.034 146.126L109.756 139.305C109.669 139.297 109.581 139.296 109.494 139.304L66.5737 143.072C65.7858 143.141 65.7655 144.286 66.5505 144.383L134.318 152.746C134.596 152.78 134.876 152.779 135.153 152.743L182.044 146.683C182.376 146.641 182.368 146.157 182.034 146.126Z" fill="url(#paint1_linear_179_1142)"/>
<path d="M133.601 151.93C133.702 151.93 133.803 151.923 133.902 151.91L175.929 146.479C176.082 146.459 176.078 146.236 175.925 146.222L111.388 140.144C111.373 140.143 111.359 140.142 111.344 140.142C111.331 140.142 111.318 140.143 111.305 140.144L70.2778 143.746C70.0872 143.763 70.0824 144.039 70.272 144.062L133.313 151.912C133.409 151.924 133.506 151.93 133.601 151.93Z" fill="url(#paint2_linear_179_1142)"/>
<path d="M157.511 149.317C157.526 149.442 157.921 149.497 158.394 149.44C158.866 149.382 159.237 149.234 159.222 149.109C159.206 148.983 158.811 148.928 158.339 148.986C157.866 149.043 157.496 149.191 157.511 149.317Z" fill="url(#paint3_linear_179_1142)"/>
<path d="M123.335 153.186L129.84 154.041C130.315 154.103 130.704 153.871 130.704 153.521C130.704 153.171 130.315 152.843 129.84 152.787L123.335 152.027C122.933 151.98 122.61 152.2 122.61 152.517C122.61 152.834 122.933 153.133 123.335 153.186Z" fill="url(#paint4_linear_179_1142)"/>
<path d="M116.229 152.253L121.586 152.957C121.974 153.008 122.291 152.793 122.291 152.477C122.291 152.161 121.974 151.869 121.586 151.823L116.229 151.197C115.895 151.158 115.627 151.361 115.627 151.65C115.626 151.939 115.895 152.209 116.229 152.253Z" fill="url(#paint5_linear_179_1142)"/>
<path d="M107.25 151.073L111.326 151.608C111.618 151.647 111.858 151.456 111.858 151.182C111.858 150.908 111.619 150.658 111.326 150.624L107.25 150.148C106.994 150.118 106.788 150.299 106.788 150.553C106.788 150.807 106.994 151.039 107.25 151.073Z" fill="url(#paint6_linear_179_1142)"/>
<path opacity="0.6" d="M99.7074 143.513C106.006 144.635 110.188 146.918 119.227 147.101C127.056 147.259 127.114 145.455 136.213 144.885C148.134 144.138 151.242 147.034 163.434 146.784C166.614 146.719 170.775 146.432 175.699 145.528L182.034 146.126C182.368 146.157 182.376 146.641 182.044 146.684L135.154 152.744C134.876 152.78 134.596 152.781 134.319 152.746L76.9585 145.668C86.8006 142.386 94.3369 142.557 99.7074 143.513Z" fill="white"/>
<path d="M126.135 148.224C121.062 148.224 115.67 147.305 115.67 145.603C115.67 143.901 121.062 142.982 126.135 142.982C131.208 142.982 136.599 143.901 136.599 145.603C136.6 147.305 131.208 148.224 126.135 148.224ZM126.135 143.489C123.426 143.489 120.882 143.733 118.972 144.176C116.911 144.653 116.177 145.226 116.177 145.603C116.177 145.98 116.911 146.553 118.972 147.031C120.882 147.474 123.426 147.718 126.135 147.718C128.844 147.718 131.388 147.474 133.298 147.031C135.359 146.553 136.093 145.98 136.093 145.603C136.093 145.226 135.359 144.653 133.298 144.176C131.388 143.732 128.844 143.489 126.135 143.489Z" fill="white"/>
<path opacity="0.6" d="M126.135 146.68C128.698 146.68 130.776 146.198 130.776 145.603C130.776 145.009 128.698 144.527 126.135 144.527C123.571 144.527 121.493 145.009 121.493 145.603C121.493 146.198 123.571 146.68 126.135 146.68Z" fill="white"/>
<path opacity="0.29" d="M103.204 70.6953L173.161 106.858L133.561 145.603C133.561 146.554 130.236 147.325 126.135 147.325C122.033 147.325 118.709 146.554 118.709 145.603L68.1177 79.09L103.204 70.6953Z" fill="url(#paint7_linear_179_1142)"/>
<path d="M102.235 118.105C99.0694 117.903 96.0805 115.897 94.7942 112.809L76.6621 69.2561C75.0111 65.2901 76.8734 60.8021 80.8428 59.2104C84.8397 57.6076 91.0704 59.4956 92.7639 63.503L111.365 107.528C113.119 111.679 111.142 116.217 106.971 117.645C105.943 117.998 103.279 118.172 102.235 118.105Z" fill="url(#paint8_linear_179_1142)"/>
<path opacity="0.3" d="M80.8425 59.2109C84.8394 57.6081 91.0701 59.496 92.7636 63.5035L109.772 103.757C106.925 103.026 103.555 103.091 100.321 100.255C94.9362 95.5339 97.5851 89.4831 93.3171 84.0933C91.3664 81.6298 87.7565 79.036 80.4083 78.2558L76.6618 69.2566C75.0113 65.2906 76.8737 60.8021 80.8425 59.2109Z" fill="url(#paint9_linear_179_1142)"/>
<path d="M69.9271 50.5683C70.0829 50.5683 70.2373 50.5798 70.3908 50.6011L81.5993 50.478V79.6213L70.7763 79.4731C70.4979 79.5436 70.2147 79.5807 69.9271 79.5807C66.0856 79.5807 62.9717 73.0861 62.9717 65.0745C62.9717 57.0629 66.0856 50.5683 69.9271 50.5683Z" fill="url(#paint10_linear_179_1142)"/>
<path d="M81.599 50.478C77.3537 60.1821 77.3537 69.852 81.599 79.6213L164.974 106.427L165.835 24.6311L81.599 50.478Z" fill="url(#paint11_linear_179_1142)"/>
<path opacity="0.3" d="M142.467 82.3838C134.54 79.3804 132.077 67.88 122.873 67.4931C115.651 67.1896 113.476 74.201 106.4 73.4449C99.1573 72.6706 97.941 64.8616 89.8295 62.1091C86.1414 60.8575 82.283 61.0891 78.5385 62.1467C78.0353 67.9423 79.0514 73.7571 81.5999 79.6212L164.975 106.427L160.042 78.6548C151.821 83.4501 146.311 83.84 142.467 82.3838Z" fill="url(#paint12_linear_179_1142)"/>
<path d="M169.017 107.503C180.218 107.503 189.298 88.5663 189.298 65.2062C189.298 41.8462 180.218 22.9092 169.017 22.9092C157.816 22.9092 148.736 41.8462 148.736 65.2062C148.736 88.5663 157.816 107.503 169.017 107.503Z" fill="url(#paint13_linear_179_1142)"/>
<path d="M169.017 106.068C171.395 106.068 173.732 105.071 175.962 103.104C178.232 101.101 180.285 98.2049 182.063 94.4946C185.803 86.6953 187.862 76.294 187.862 65.2067C187.862 54.1193 185.803 43.7175 182.063 35.9187C180.285 32.2084 178.232 29.3121 175.962 27.3098C173.731 25.3423 171.394 24.345 169.017 24.345C166.639 24.345 164.302 25.3427 162.072 27.3098C159.802 29.3121 157.749 32.2084 155.97 35.9187C154.406 39.1798 153.136 42.8958 152.188 46.9265C150.868 52.5358 154.683 58.3916 154.683 64.8434C154.683 71.7037 150.959 78.6645 152.446 84.5454C153.362 88.1693 154.544 91.5211 155.97 94.4946C157.748 98.2049 159.801 101.101 162.071 103.104C164.302 105.071 166.639 106.068 169.017 106.068Z" fill="url(#paint14_linear_179_1142)"/>
<mask id="mask0_179_1142" style="mask-type:luminance" maskUnits="userSpaceOnUse" x="150" y="24" width="38" height="83">
<path d="M169.017 106.068C171.395 106.068 173.732 105.071 175.962 103.104C178.232 101.101 180.285 98.2049 182.064 94.4946C185.803 86.6953 187.863 76.294 187.863 65.2067C187.863 54.1193 185.803 43.7175 182.064 35.9187C180.285 32.2084 178.232 29.3121 175.962 27.3098C173.731 25.3423 171.395 24.345 169.017 24.345C166.639 24.345 164.302 25.3427 162.072 27.3098C159.802 29.3121 157.749 32.2084 155.97 35.9187C152.231 43.718 150.171 54.1193 150.171 65.2067C150.171 76.294 152.231 86.6958 155.97 94.4946C157.749 98.2049 159.802 101.101 162.072 103.104C164.302 105.071 166.639 106.068 169.017 106.068Z" fill="white"/>
</mask>
<g mask="url(#mask0_179_1142)">
<path d="M170.686 65.7611C170.686 76.4774 163.59 84.986 154.96 84.7688C146.464 84.5551 139.672 75.939 139.672 65.5213C139.672 55.1036 146.464 46.5921 154.96 46.5101C163.59 46.4267 170.686 55.0452 170.686 65.7611Z" fill="url(#paint15_linear_179_1142)"/>
</g>
<mask id="mask1_179_1142" style="mask-type:luminance" maskUnits="userSpaceOnUse" x="150" y="24" width="38" height="83">
<path d="M169.017 106.068C171.395 106.068 173.732 105.071 175.962 103.104C178.232 101.101 180.285 98.2049 182.064 94.4946C185.803 86.6953 187.863 76.294 187.863 65.2067C187.863 54.1193 185.803 43.7175 182.064 35.9187C180.285 32.2084 178.232 29.3121 175.962 27.3098C173.731 25.3423 171.395 24.345 169.017 24.345C166.639 24.345 164.302 25.3427 162.072 27.3098C159.802 29.3121 157.749 32.2084 155.97 35.9187C152.231 43.718 150.171 54.1193 150.171 65.2067C150.171 76.294 152.231 86.6958 155.97 94.4946C157.749 98.2049 159.802 101.101 162.072 103.104C164.302 105.071 166.639 106.068 169.017 106.068Z" fill="white"/>
</mask>
<g mask="url(#mask1_179_1142)">
<path opacity="0.3" d="M169.322 65.5866C169.322 73.5442 165.865 79.8627 161.66 79.7016C157.52 79.5428 154.211 73.1447 154.211 65.4086C154.211 57.6725 157.52 51.3525 161.66 51.2912C165.865 51.229 169.322 57.6291 169.322 65.5866Z" fill="url(#paint16_linear_179_1142)"/>
</g>
<path d="M90.5008 110.915C91.7302 109.779 94.0828 108.469 95.2624 105.423C95.6175 104.506 96.8758 101.257 95.0197 98.7727C93.9182 97.2978 91.872 96.2961 90.0685 96.6508C88.527 96.9538 88.2862 98.0273 85.6673 100.187C84.6479 101.028 83.0094 102.38 81.1856 103.131C78.0611 104.419 76.1842 103.208 73.0471 103.346C69.1936 103.515 64.7171 105.666 62.5604 108.793C58.7324 114.344 64.2776 119.974 60.0848 126.477C58.7107 128.607 58.0338 128.13 54.78 132.254C51.5213 136.383 49.8924 138.448 50.1824 140.978C50.5848 144.49 54.367 147.844 57.9286 148.072C61.4078 148.295 63.6195 145.558 65.3907 146.755C66.6514 147.607 65.9305 149.264 67.2694 151.256C68.9953 153.824 72.3881 154.336 72.9357 154.418C78.021 155.185 84.878 149.222 87.7898 142.157C93.0406 129.417 83.8161 117.094 90.5008 110.915Z" fill="url(#paint17_linear_179_1142)"/>
<path d="M88.3412 146.756L112.295 140.764L113.493 146.584L91.5642 156.705L74.2007 152.416L63.7266 142.132L88.3412 146.756Z" fill="url(#paint18_linear_179_1142)"/>
<path d="M111.367 113.1C111.402 110.137 103.324 107.769 99.6274 107.007C93.8777 105.82 89.2738 106.566 88.1554 106.762C80.9848 108.028 76.5195 111.613 74.8385 113.12C76.215 113.866 80.0126 116.144 81.8938 120.466C83.7123 124.645 82.4125 128.484 81.7356 130.714C81.146 132.656 80.2495 135.609 77.5988 137.745C76.1991 138.873 74.6523 139.446 71.5586 140.591C67.9106 141.942 65.6492 142.315 65.6656 143.046C65.6864 143.978 69.3918 144.738 69.2625 145.319C69.2529 145.362 69.2258 145.365 69.222 145.397C69.1723 145.802 73.3342 146.798 78.5946 147.589C84.7458 148.515 87.8216 148.977 90.7613 148.474C95.3449 147.69 94.5739 146.278 99.1676 145.488C104.512 144.568 106.939 146.239 111.777 144.382C112.592 144.069 115.852 142.811 115.759 141.506C115.643 139.892 110.265 140.443 105.583 136.308C103.52 134.486 102.523 132.576 102.177 131.859C101.731 130.932 99.8575 126.14 101.737 120.922C101.82 120.69 101.926 120.487 102.054 120.269C104.81 115.589 111.336 115.759 111.367 113.1Z" fill="url(#paint19_linear_179_1142)"/>
<path d="M87.7346 124.638C88.715 126.719 84.2096 131.569 79.2019 133.872C78.1815 134.341 70.855 137.71 67.5891 134.471C64.8906 131.794 66.684 126.274 67.2538 124.282C70.2669 113.757 78.979 110.004 82.9084 108.224C85.8404 115.556 84.8166 118.462 84.1367 119.482C83.4265 120.548 81.445 122.786 79.3404 124.758C77.8602 126.145 76.9381 126.82 77.0621 127.036C77.2165 127.305 78.9515 126.797 85.6923 123.516C86.4734 123.642 87.3993 123.926 87.7346 124.638Z" fill="url(#paint20_linear_179_1142)"/>
<path d="M115.281 113.066L112.03 129.259C111.925 129.778 111.523 130.185 111.006 130.296L86.7612 135.499C85.8923 135.685 85.089 134.983 85.158 134.097L86.4375 117.629C86.4819 117.057 86.8867 116.579 87.4435 116.442C91.2893 115.493 106.092 111.938 113.899 111.476C114.771 111.425 115.453 112.209 115.281 113.066Z" fill="url(#paint21_linear_179_1142)"/>
<path d="M91.0995 101.24C91.0995 101.24 90.6421 104.895 89.2926 105.733C87.9431 106.57 85.7618 107.665 85.5215 107.962C85.2813 108.259 93.8805 109.183 98.1422 107.033C96.7377 106.74 96.3561 106.632 96.3561 106.632C95.9749 106.525 95.2638 106.324 94.5511 105.918C94.0658 105.642 93.2842 105.102 92.5667 104.083L92.5821 102.058L91.0995 101.24Z" fill="url(#paint22_linear_179_1142)"/>
<path d="M90.8945 102.535C90.8945 102.535 91.7741 103.742 93.1539 103.239C94.3896 102.789 93.6519 99.598 92.672 99.2342C92.3453 99.1126 91.7446 99.1666 91.3437 99.4166C91.0614 99.5927 90.3078 100.529 90.7396 101.578C90.4275 101.487 90.1529 101.569 90.0839 101.724C89.9966 101.92 90.261 102.187 90.3208 102.247C90.5288 102.457 90.7792 102.516 90.8945 102.535Z" fill="url(#paint23_linear_179_1142)"/>
<path d="M93.4481 127.066C96.052 126.332 98.2111 128.155 100.286 126.713C102.411 125.235 101.024 122.711 103.233 120.228C105.595 117.574 108.592 118.875 110.778 116.456C111.59 115.558 112.32 114.095 112.331 111.6C112.879 111.547 113.404 111.505 113.9 111.476C114.772 111.424 115.453 112.209 115.282 113.066L112.03 129.258C111.926 129.777 111.524 130.184 111.006 130.295L87.7065 135.296C89.3513 129.524 91.5466 127.602 93.4481 127.066Z" fill="#EAEAEA"/>
<path d="M113.738 121.68C113.738 121.68 115.285 120.251 115.453 118.591C115.621 116.93 114.454 115.601 113.323 115.262C112.193 114.924 111.589 115.423 112.348 117.058C113.107 118.693 114.311 119.755 113.738 121.68Z" fill="url(#paint24_linear_179_1142)"/>
<path d="M87.5884 154.811C92.349 152.258 95.8653 149.659 98.2521 147.694C102.948 143.828 105.102 140.911 109.856 139.758C110.706 139.552 115.547 138.379 117.108 140.528C118.838 142.908 115.476 147.885 115.067 148.49C108.994 157.48 93.5267 157.06 88.6749 156.769C88.3131 156.116 87.9507 155.464 87.5884 154.811Z" fill="url(#paint25_linear_179_1142)"/>
<path opacity="0.3" d="M117.109 140.529C116.652 139.901 115.912 139.561 115.077 139.394C115.355 140.356 115.38 141.259 115.033 142.048C114.084 144.203 111.274 143.54 109.3 146.07C107.361 148.554 108.703 150.949 106.99 151.974C105.025 153.149 102.59 150.405 100.486 151.718C99.0551 152.61 99.5 154.304 97.833 155.226C96.6808 155.863 95.5514 155.562 94.239 155.397C92.7346 155.208 90.6735 155.168 88.0864 155.709C88.2828 156.062 88.4787 156.416 88.6751 156.77C93.5264 157.061 108.993 157.481 115.067 148.491C115.476 147.886 118.838 142.909 117.109 140.529Z" fill="url(#paint26_linear_179_1142)"/>
<path d="M91.1884 156.155C91.1884 156.155 92.0607 155.529 93.3267 155.955C94.5928 156.382 96.6028 156.725 96.5994 157.344C96.5965 157.963 94.585 158.351 93.1955 158.096C91.8658 157.853 90.8202 156.698 91.1884 156.155Z" fill="url(#paint27_linear_179_1142)"/>
<path d="M89.9096 155.098L92.2395 155.847C92.2395 155.847 92.6177 156.477 92.1073 156.877C91.5963 157.277 89.8218 156.431 89.8218 156.431L89.9096 155.098Z" fill="url(#paint28_linear_179_1142)"/>
<path d="M57.5281 144.358C56.8401 148.363 65.4838 152.696 67.4629 153.688C71.4955 155.709 79.0839 158.563 90.3459 157.472C90.4955 156.574 90.6456 155.675 90.7951 154.777C89.3072 154.267 87.1027 153.439 84.5441 152.18C80.1782 150.032 78.5199 148.498 72.4614 144.835C65.7573 140.782 63.8042 140.262 61.8068 140.763C60.0988 141.193 57.8475 142.497 57.5281 144.358Z" fill="url(#paint29_linear_179_1142)"/>
<defs>
<linearGradient id="paint0_linear_179_1142" x1="124.29" y1="135.177" x2="124.18" y2="142.313" gradientUnits="userSpaceOnUse">
<stop stop-color="#444B8C"/>
<stop offset="0.9964" stop-color="#26264F"/>
</linearGradient>
<linearGradient id="paint1_linear_179_1142" x1="125.53" y1="149.337" x2="114.135" y2="114.835" gradientUnits="userSpaceOnUse">
<stop stop-color="#444B8C"/>
<stop offset="0.9964" stop-color="#26264F"/>
</linearGradient>
<linearGradient id="paint2_linear_179_1142" x1="176.042" y1="146.036" x2="70.1327" y2="146.036" gradientUnits="userSpaceOnUse">
<stop stop-color="#FF9085"/>
<stop offset="1" stop-color="#FB6FBB"/>
</linearGradient>
<linearGradient id="paint3_linear_179_1142" x1="159.222" y1="149.109" x2="157.511" y2="149.317" gradientUnits="userSpaceOnUse">
<stop stop-color="#FF9085"/>
<stop offset="1" stop-color="#FB6FBB"/>
</linearGradient>
<linearGradient id="paint4_linear_179_1142" x1="126.669" y1="152.703" x2="126.552" y2="155.728" gradientUnits="userSpaceOnUse">
<stop stop-color="#444B8C"/>
<stop offset="0.9964" stop-color="#26264F"/>
</linearGradient>
<linearGradient id="paint5_linear_179_1142" x1="118.946" y1="152.404" x2="118.829" y2="155.429" gradientUnits="userSpaceOnUse">
<stop stop-color="#444B8C"/>
<stop offset="0.9964" stop-color="#26264F"/>
</linearGradient>
<linearGradient id="paint6_linear_179_1142" x1="109.278" y1="152.029" x2="109.161" y2="155.054" gradientUnits="userSpaceOnUse">
<stop stop-color="#444B8C"/>
<stop offset="0.9964" stop-color="#26264F"/>
</linearGradient>
<linearGradient id="paint7_linear_179_1142" x1="173.161" y1="109.01" x2="68.1179" y2="109.01" gradientUnits="userSpaceOnUse">
<stop stop-color="#FF9085"/>
<stop offset="1" stop-color="#FB6FBB"/>
</linearGradient>
<linearGradient id="paint8_linear_179_1142" x1="106.228" y1="74.0383" x2="81.7177" y2="102.944" gradientUnits="userSpaceOnUse">
<stop offset="0.00359712" stop-color="#E38DDD"/>
<stop offset="1" stop-color="#9571F6"/>
</linearGradient>
<linearGradient id="paint9_linear_179_1142" x1="103.208" y1="71.4783" x2="78.6984" y2="100.384" gradientUnits="userSpaceOnUse">
<stop offset="0.00359712" stop-color="#E38DDD"/>
<stop offset="1" stop-color="#9571F6"/>
</linearGradient>
<linearGradient id="paint10_linear_179_1142" x1="65.085" y1="53.5167" x2="84.8689" y2="76.8488" gradientUnits="userSpaceOnUse">
<stop offset="0.00359712" stop-color="#E38DDD"/>
<stop offset="1" stop-color="#9571F6"/>
</linearGradient>
<linearGradient id="paint11_linear_179_1142" x1="117.544" y1="20.9987" x2="140.164" y2="146.11" gradientUnits="userSpaceOnUse">
<stop stop-color="#AA80F9"/>
<stop offset="0.9964" stop-color="#6165D7"/>
</linearGradient>
<linearGradient id="paint12_linear_179_1142" x1="109.805" y1="21.2274" x2="132.706" y2="147.897" gradientUnits="userSpaceOnUse">
<stop stop-color="#AA80F9"/>
<stop offset="0.9964" stop-color="#6165D7"/>
</linearGradient>
<linearGradient id="paint13_linear_179_1142" x1="146.488" y1="38.6373" x2="191.545" y2="91.7752" gradientUnits="userSpaceOnUse">
<stop offset="0.00359712" stop-color="#E38DDD"/>
<stop offset="1" stop-color="#9571F6"/>
</linearGradient>
<linearGradient id="paint14_linear_179_1142" x1="143.332" y1="64.5518" x2="186.768" y2="65.6584" gradientUnits="userSpaceOnUse">
<stop stop-color="#311944"/>
<stop offset="1" stop-color="#893976"/>
</linearGradient>
<linearGradient id="paint15_linear_179_1142" x1="147.824" y1="24.9514" x2="162.593" y2="106.639" gradientUnits="userSpaceOnUse">
<stop stop-color="#FFC444"/>
<stop offset="0.9964" stop-color="#F36F56"/>
</linearGradient>
<linearGradient id="paint16_linear_179_1142" x1="156.34" y1="35.4744" x2="167.237" y2="95.7473" gradientUnits="userSpaceOnUse">
<stop stop-color="#FFC444"/>
<stop offset="0.9964" stop-color="#F36F56"/>
</linearGradient>
<linearGradient id="paint17_linear_179_1142" x1="68.0208" y1="136.108" x2="77.9236" y2="122.079" gradientUnits="userSpaceOnUse">
<stop stop-color="#444B8C"/>
<stop offset="0.9964" stop-color="#26264F"/>
</linearGradient>
<linearGradient id="paint18_linear_179_1142" x1="88.8824" y1="138.972" x2="88.3689" y2="149.113" gradientUnits="userSpaceOnUse">
<stop stop-color="#893976"/>
<stop offset="1" stop-color="#311944"/>
</linearGradient>
<linearGradient id="paint19_linear_179_1142" x1="91.9999" y1="132.257" x2="89.3056" y2="153.313" gradientUnits="userSpaceOnUse">
<stop stop-color="#FFC444"/>
<stop offset="0.9964" stop-color="#F36F56"/>
</linearGradient>
<linearGradient id="paint20_linear_179_1142" x1="76.2824" y1="133.1" x2="73.296" y2="156.438" gradientUnits="userSpaceOnUse">
<stop stop-color="#FFC444"/>
<stop offset="0.0985" stop-color="#FEBC46"/>
<stop offset="0.9964" stop-color="#F36F56"/>
</linearGradient>
<linearGradient id="paint21_linear_179_1142" x1="85.1538" y1="123.502" x2="115.308" y2="123.502" gradientUnits="userSpaceOnUse">
<stop offset="0.494" stop-color="#EBEFF2"/>
<stop offset="1" stop-color="white"/>
</linearGradient>
<linearGradient id="paint22_linear_179_1142" x1="91.5872" y1="95.9852" x2="91.8586" y2="108.88" gradientUnits="userSpaceOnUse">
<stop stop-color="#311944"/>
<stop offset="1" stop-color="#A03976"/>
</linearGradient>
<linearGradient id="paint23_linear_179_1142" x1="84.8955" y1="98.4424" x2="93.2033" y2="101.597" gradientUnits="userSpaceOnUse">
<stop stop-color="#311944"/>
<stop offset="1" stop-color="#A03976"/>
</linearGradient>
<linearGradient id="paint24_linear_179_1142" x1="115.671" y1="126.842" x2="112.605" y2="111.202" gradientUnits="userSpaceOnUse">
<stop stop-color="#311944"/>
<stop offset="1" stop-color="#A03976"/>
</linearGradient>
<linearGradient id="paint25_linear_179_1142" x1="87.5886" y1="148.069" x2="117.6" y2="148.069" gradientUnits="userSpaceOnUse">
<stop stop-color="#893976"/>
<stop offset="1" stop-color="#311944"/>
</linearGradient>
<linearGradient id="paint26_linear_179_1142" x1="87.5887" y1="148.139" x2="117.6" y2="148.139" gradientUnits="userSpaceOnUse">
<stop stop-color="#893976"/>
<stop offset="1" stop-color="#311944"/>
</linearGradient>
<linearGradient id="paint27_linear_179_1142" x1="96.0872" y1="159.747" x2="90.311" y2="152.559" gradientUnits="userSpaceOnUse">
<stop stop-color="#AA80F9"/>
<stop offset="0.9964" stop-color="#6165D7"/>
</linearGradient>
<linearGradient id="paint28_linear_179_1142" x1="92.5407" y1="158.04" x2="84.5823" y2="148.028" gradientUnits="userSpaceOnUse">
<stop stop-color="#FFC444"/>
<stop offset="0.9964" stop-color="#F36F56"/>
</linearGradient>
<linearGradient id="paint29_linear_179_1142" x1="75.4074" y1="147.733" x2="68.7947" y2="161.488" gradientUnits="userSpaceOnUse">
<stop stop-color="#893976"/>
<stop offset="1" stop-color="#311944"/>
</linearGradient>
</defs>
</svg>
