<svg width="54" height="54" viewBox="0 0 54 54" fill="none" xmlns="http://www.w3.org/2000/svg">
<circle cx="27" cy="27" r="27" fill="white" fill-opacity="0.5"/>
<path d="M26.9998 19.9168C30.0056 19.9168 32.8883 21.1108 35.0137 23.2362C37.1391 25.3617 38.3332 28.2443 38.3332 31.2501C38.3332 34.2559 37.1391 37.1386 35.0137 39.264C32.8883 41.3894 30.0056 42.5834 26.9998 42.5834C23.9941 42.5834 21.1114 41.3894 18.986 39.264C16.8605 37.1386 15.6665 34.2559 15.6665 31.2501C15.6665 28.2443 16.8605 25.3617 18.986 23.2362C21.1114 21.1108 23.9941 19.9168 26.9998 19.9168ZM26.9998 24.8751L25.1256 28.6718L20.9365 29.2809L23.9682 32.2347L23.2528 36.4082L26.9998 34.4376L30.7469 36.4068L30.0315 32.2347L33.0632 29.2795L28.8741 28.6704L26.9998 24.8751ZM28.4165 12.832L35.4998 12.8334V17.0834L33.5689 18.6956C31.9666 17.8549 30.2172 17.3311 28.4165 17.1529V12.8334V12.832ZM25.5832 12.832V17.1529C23.7831 17.3309 22.0342 17.8542 20.4322 18.6942L18.4998 17.0834V12.8334L25.5832 12.832Z" fill="black"/>
</svg>
