<svg width="228" height="178" viewBox="0 0 228 178" fill="none" xmlns="http://www.w3.org/2000/svg">
<path d="M218 0H10C4.47715 0 0 4.47715 0 10V168C0 173.523 4.47716 178 10 178H218C223.523 178 228 173.523 228 168V10C228 4.47715 223.523 0 218 0Z" fill="white"/>
<path d="M115.478 158.178C154.078 158.178 185.37 126.886 185.37 88.2861C185.37 49.6858 154.078 18.394 115.478 18.394C76.8777 18.394 45.5859 49.6858 45.5859 88.2861C45.5859 126.886 76.8777 158.178 115.478 158.178Z" fill="#F4F7FA"/>
<path d="M140.625 136.083C138.74 134.842 143.306 123.688 147.424 116.313C150.805 110.255 154.784 105.134 155.933 105.725C156.813 106.178 155.71 109.812 156.508 110.102C157.577 110.49 159.825 104.065 162.01 104.281C163.356 104.414 164.52 107.052 164.563 109.477C164.642 113.852 161.062 116.75 153.273 124.349C143.292 134.087 141.595 136.721 140.625 136.083Z" fill="url(#paint0_linear_179_102)"/>
<path opacity="0.3" d="M143.838 128.875C144.888 125.728 144.798 123.721 146.707 121.687C148.375 119.91 149.406 120.417 151.373 118.363C153.601 116.037 152.822 114.819 154.689 113.018C157.28 110.516 159.773 111.906 161.971 109.658C162.665 108.948 163.381 107.821 163.731 105.931C164.22 106.922 164.541 108.228 164.563 109.478C164.642 113.853 161.061 116.75 153.273 124.35C143.292 134.088 141.595 136.722 140.625 136.083C140.478 135.986 140.37 135.828 140.298 135.617C142.189 133.044 143.227 130.706 143.838 128.875Z" fill="white"/>
<path d="M137.018 141.791C141.045 132.792 145.609 126.358 149.033 122.167C156.738 112.736 160.489 112.439 162.134 112.564C164.327 112.732 167.143 113.983 167.576 116.084C168.386 120.014 160.497 125.176 161.358 126.66C161.804 127.428 163.984 126.161 164.864 127.167C166.067 128.542 163.733 132.902 163.105 133.953C158.253 142.078 142.195 141.975 137.018 141.791Z" fill="url(#paint1_linear_179_102)"/>
<path opacity="0.5" d="M144.782 134.912C148.395 132.596 149.474 132.828 151.414 130.685C154.99 126.734 153.68 123.337 156.994 120.805C159.357 119 160.731 120.185 164.048 118.277C165.397 117.5 166.504 116.535 167.405 115.545C167.479 115.718 167.537 115.897 167.576 116.084C168.386 120.014 160.497 125.176 161.358 126.66C161.804 127.428 163.984 126.161 164.864 127.167C166.067 128.542 163.733 132.902 163.105 133.953C158.253 142.078 142.195 141.976 137.019 141.791C137.092 141.627 137.166 141.466 137.24 141.303C140.126 138.179 142.791 136.189 144.782 134.912Z" fill="white"/>
<path d="M109.443 86.8318C107.609 87.3049 105.54 86.7224 104.237 85.2087L85.855 63.8645C84.1815 61.9209 84.4041 59.0283 86.3607 57.3874C88.3312 55.7355 92.2174 55.6487 93.9231 57.6081L112.659 79.1332C114.425 81.1627 114.146 84.1057 112.045 85.6909C111.527 86.0814 110.047 86.6759 109.443 86.8318Z" fill="url(#paint2_linear_179_102)"/>
<path opacity="0.3" d="M86.3606 57.3874C88.3311 55.7355 92.2174 55.6487 93.923 57.6081L111.054 77.2894C109.302 77.4031 107.403 78.0666 105.04 77.0581C101.107 75.3793 101.486 71.4538 98.063 69.1887C96.4985 68.1533 93.9681 67.3521 89.6534 68.2747L85.8554 63.8645C84.1814 61.9209 84.4041 59.0283 86.3606 57.3874Z" fill="url(#paint3_linear_179_102)"/>
<path d="M78.5608 54.5117C78.6491 54.4829 78.7393 54.4609 78.83 54.4441L85.1675 52.2917L90.5828 68.829L84.4137 70.7558C84.2688 70.8474 84.1153 70.9213 83.9522 70.9746C81.7725 71.6885 78.7983 68.5819 77.31 64.0354C75.8208 59.4895 76.3812 55.2256 78.5608 54.5117Z" fill="url(#paint4_linear_179_102)"/>
<path d="M85.1673 52.2917C84.5613 58.5869 86.3581 64.0742 90.5826 68.8289L142.874 68.5477L128.164 21.9731L85.1673 52.2917Z" fill="url(#paint5_linear_179_102)"/>
<path opacity="0.3" d="M125.635 59.0863C120.578 58.8551 117.044 52.7868 111.749 54.2775C107.595 55.4472 107.663 59.83 103.508 60.7157C99.2543 61.6225 97.113 57.4172 91.9985 57.3625C89.673 57.3375 87.5269 58.1858 85.5986 59.4822C86.3903 62.8642 88.047 65.9751 90.5826 68.8293L142.874 68.5482L134.915 53.7056C131.141 57.9536 128.086 59.1986 125.635 59.0863Z" fill="url(#paint6_linear_179_102)"/>
<path d="M126 48.1742C130.34 61.4297 139.012 70.488 145.367 68.4067C151.723 66.3254 153.357 53.8927 149.016 40.6373C144.675 27.3818 136.004 18.3234 129.649 20.4048C123.293 22.4861 121.659 34.9187 126 48.1742Z" fill="url(#paint7_linear_179_102)"/>
<path d="M145.101 67.5926C146.45 67.1507 147.591 66.1504 148.49 64.6199C149.406 63.062 150.033 61.0368 150.353 58.601C151.026 53.4807 150.262 47.1955 148.202 40.9041C146.142 34.6127 143.041 29.0933 139.47 25.3625C137.771 23.5877 136.067 22.3259 134.407 21.611C132.776 20.9091 131.265 20.7772 129.916 21.2191C128.566 21.6609 127.425 22.6613 126.526 24.1918C125.61 25.7497 124.983 27.7748 124.663 30.2107C124.382 32.3515 124.351 34.6962 124.562 37.1599C124.855 40.5879 128.108 43.2023 129.307 46.863C130.582 50.756 129.762 55.3975 131.699 58.4585C132.892 60.3445 134.186 62.0271 135.547 63.4497C137.246 65.2244 138.949 66.4862 140.609 67.2011C142.24 67.9026 143.752 68.0345 145.101 67.5926Z" fill="url(#paint8_linear_179_102)"/>
<mask id="mask0_179_102" style="mask-type:luminance" maskUnits="userSpaceOnUse" x="124" y="20" width="27" height="48">
<path d="M145.101 67.5926C146.45 67.1507 147.591 66.1504 148.49 64.6199C149.406 63.062 150.033 61.0368 150.353 58.601C151.026 53.4807 150.262 47.1955 148.202 40.9041C146.142 34.6127 143.041 29.0933 139.47 25.3625C137.771 23.5877 136.067 22.3259 134.407 21.611C132.776 20.9091 131.265 20.7772 129.916 21.2191C128.566 21.6609 127.425 22.6613 126.526 24.1918C125.61 25.7497 124.983 27.7748 124.663 30.2107C123.99 35.3309 124.754 41.6161 126.814 47.9075C128.874 54.1989 131.976 59.7184 135.547 63.4492C137.246 65.2239 138.949 66.4857 140.609 67.2006C142.24 67.9026 143.752 68.0345 145.101 67.5926Z" fill="white"/>
</mask>
<g mask="url(#mask0_179_102)">
<path d="M138.559 44.4108C140.55 50.4916 138.104 56.6381 133.167 58.1187C128.306 59.5763 122.852 55.9491 120.916 50.0372C118.98 44.1258 121.253 38.034 126.058 36.4089C130.94 34.758 136.567 38.33 138.559 44.4108Z" fill="url(#paint9_linear_179_102)"/>
</g>
<mask id="mask1_179_102" style="mask-type:luminance" maskUnits="userSpaceOnUse" x="124" y="20" width="27" height="48">
<path d="M145.101 67.5926C146.45 67.1507 147.591 66.1504 148.49 64.6199C149.406 63.062 150.033 61.0368 150.353 58.601C151.026 53.4807 150.262 47.1955 148.202 40.9041C146.142 34.6127 143.041 29.0933 139.47 25.3625C137.771 23.5877 136.067 22.3259 134.407 21.611C132.776 20.9091 131.265 20.7772 129.916 21.2191C128.566 21.6609 127.425 22.6613 126.526 24.1918C125.61 25.7497 124.983 27.7748 124.663 30.2107C123.99 35.3309 124.754 41.6161 126.814 47.9075C128.874 54.1989 131.976 59.7184 135.547 63.4492C137.246 65.2239 138.949 66.4857 140.609 67.2006C142.24 67.9026 143.752 68.0345 145.101 67.5926Z" fill="white"/>
</mask>
<g mask="url(#mask1_179_102)">
<path opacity="0.3" d="M137.752 44.5654C139.231 49.0806 138.443 53.3085 136.027 53.9984C133.649 54.6778 130.582 51.6619 129.145 47.2723C127.707 42.8828 128.411 38.6813 130.748 37.8777C133.123 37.0606 136.274 40.0497 137.752 44.5654Z" fill="url(#paint10_linear_179_102)"/>
</g>
<path opacity="0.3" d="M141.316 43.6785L156.359 39.4252C157.586 39.0783 158.854 39.5879 159.174 40.5681C159.495 41.5483 158.741 42.6062 157.506 42.9272L142.359 46.8648C141.351 47.1267 140.313 46.6321 140.028 45.7627C139.744 44.8933 140.315 43.9616 141.316 43.6785Z" fill="url(#paint11_linear_179_102)"/>
<path d="M137.806 34.995L154.932 29.0696C156.367 28.5731 157.887 29.1896 158.301 30.4557C158.716 31.7214 157.857 33.1219 156.407 33.5758L139.115 38.9916C137.995 39.3423 136.812 38.7411 136.455 37.6539C136.099 36.5667 136.697 35.3788 137.806 34.995Z" fill="url(#paint12_linear_179_102)"/>
<path d="M145.744 39.8164L159.94 35.6432C161.094 35.304 162.295 35.7972 162.607 36.7491C162.918 37.701 162.216 38.7316 161.054 39.0468L146.761 42.9211C145.807 43.1797 144.818 42.6999 144.541 41.8526C144.263 41.0053 144.797 40.0951 145.744 39.8164Z" fill="url(#paint13_linear_179_102)"/>
<path d="M158.966 30.2101C159.382 31.4815 160.848 32.1599 162.265 31.7176C163.71 31.2666 164.552 29.8267 164.121 28.5097C163.69 27.1927 162.16 26.5349 160.731 27.032C159.329 27.5199 158.55 28.9386 158.966 30.2101Z" fill="url(#paint14_linear_179_102)"/>
<path d="M141.569 48.1675L159.748 43.7304C161.275 43.3576 162.876 44.0931 163.297 45.379C163.718 46.6648 162.788 47.9784 161.247 48.3071L142.896 52.2193C141.709 52.4721 140.47 51.7807 140.109 50.6787C139.748 49.5766 140.394 48.4544 141.569 48.1675Z" fill="url(#paint15_linear_179_102)"/>
<path d="M158.488 46.4974C158.804 47.4628 159.998 48.0419 161.17 47.788C162.359 47.5304 163.073 46.5152 162.748 45.5239C162.424 44.5327 161.191 43.9622 160.01 44.2463C158.846 44.526 158.172 45.5321 158.488 46.4974Z" fill="#F4F7FA"/>
<path d="M181.529 142.107L50.8184 140.968V144.337C50.8184 145.251 51.3883 146.028 52.1608 146.167L89.1219 152.8C89.5605 152.879 90.0052 152.9 90.4481 152.862L180.109 145.3C180.909 145.232 181.529 144.453 181.529 143.513V142.107H181.529Z" fill="url(#paint16_linear_179_102)"/>
<path d="M139.451 136.647L52.2565 142.808C50.6963 142.919 49.4277 141.747 49.4277 140.191V77.8576C49.4277 76.3016 50.6963 75.0403 52.2565 75.0403H139.451C140.736 75.0403 141.776 76.1802 141.776 77.587V133.936C141.776 135.342 140.737 136.555 139.451 136.647Z" fill="url(#paint17_linear_179_102)"/>
<path d="M140.842 136.647L53.6472 142.808C52.0869 142.919 50.8184 141.747 50.8184 140.191V77.8576C50.8184 76.3016 52.0869 75.0403 53.6472 75.0403H140.842C142.127 75.0403 143.166 76.1802 143.166 77.587V133.936C143.167 135.342 142.127 136.555 140.842 136.647Z" fill="url(#paint18_linear_179_102)"/>
<path d="M138.125 132.674L56.9129 138.026C55.6433 138.11 54.6113 137.148 54.6113 135.878V81.3047C54.6113 80.0347 55.6433 79.0008 56.9129 78.9955L138.125 78.6592C139.186 78.6549 140.044 79.589 140.044 80.7458V130.452C140.043 131.609 139.186 132.604 138.125 132.674Z" fill="white"/>
<path d="M100.324 76.7454C100.324 77.3245 99.8752 77.7956 99.3211 77.797C98.766 77.799 98.3159 77.3297 98.3159 76.7492C98.3159 76.1687 98.7664 75.698 99.3211 75.6975C99.8752 75.6966 100.324 76.1658 100.324 76.7454Z" fill="white"/>
<path d="M138.666 136.367L50.8184 142.853L89.1215 149.727C89.56 149.806 90.0047 149.827 90.4476 149.789L181.529 142.107L140.064 136.411C139.6 136.347 139.132 136.333 138.666 136.367Z" fill="url(#paint19_linear_179_102)"/>
<path opacity="0.3" d="M63.6367 143.016L136.773 137.536L159.407 140.62L86.9015 146.478L63.6367 143.016Z" fill="url(#paint20_linear_179_102)"/>
<path d="M140.053 89.2111L54.6011 90.2729V80.6196C54.6011 79.5372 55.4786 78.6597 56.561 78.6597H138.093C139.176 78.6597 140.053 79.5372 140.053 80.6196V89.2111Z" fill="url(#paint21_linear_179_102)"/>
<path d="M108.175 115.073L59.8613 117.069V94.2476L108.175 93.4373V115.073Z" fill="#D8DEE8"/>
<path d="M135.663 113.937L111.023 114.955V93.3896L135.663 92.9761V113.937Z" fill="#D8DEE8"/>
<path d="M135.663 129.495L59.8613 134.009V120.049L135.663 116.674V129.495Z" fill="#D8DEE8"/>
<path d="M60.7276 84.0539C60.7276 84.6613 60.1984 85.1579 59.5449 85.1627C58.8905 85.1675 58.3594 84.6771 58.3594 84.0683C58.3594 83.4589 58.8905 82.9628 59.5449 82.9595C60.1989 82.9561 60.7276 83.4465 60.7276 84.0539Z" fill="url(#paint22_linear_179_102)"/>
<path d="M65.0048 84.0294C65.0048 84.6234 64.4804 85.1084 63.8332 85.1128C63.1845 85.1171 62.6582 84.6383 62.6582 84.0428C62.6582 83.4474 63.1845 82.9624 63.8332 82.9595C64.4809 82.9566 65.0048 83.4354 65.0048 84.0294Z" fill="url(#paint23_linear_179_102)"/>
<path d="M69.2425 84.0048C69.2425 84.5959 68.7229 85.0791 68.0814 85.0834C67.439 85.0877 66.9175 84.6113 66.9175 84.0183C66.9175 83.4253 67.439 82.9426 68.0814 82.9397C68.7234 82.9368 69.2425 83.4133 69.2425 84.0048Z" fill="url(#paint24_linear_179_102)"/>
<path opacity="0.48" d="M119.833 119.55C113.112 115.934 107.826 120.517 102.725 115.995C99.6326 113.253 101.151 111.209 97.3459 107.112C93.1315 102.575 90.3876 104.1 86.1521 100.017C80.7967 94.8535 83.4749 90.8362 78.8618 87.1289C73.2655 82.6314 67.2299 86.794 61.9028 82.4813C59.6051 80.6211 58.3443 77.9166 57.686 75.0403H52.4736C51.5601 75.0403 50.8184 75.7806 50.8184 76.6936V141.308C50.8184 142.221 51.5601 142.909 52.4736 142.844L141.339 136.537C141.775 136.505 142.162 136.251 142.41 135.882C135.905 135.645 131.909 133.464 129.354 131.21C124.356 126.799 125.223 122.45 119.833 119.55Z" fill="white"/>
<path d="M175.322 87.4051L165.595 103.319L135.923 102.984L122.763 128.444L88.7882 129.633L71.159 156.799C70.8452 157.282 70.3251 157.594 69.7503 157.643L67.4483 157.837C66.4034 158.002 64.1714 157.683 64.5121 156.682L76.4529 129.667L86.2727 125.274L119.303 124.011L131.801 98.9799L162.154 98.645L172.327 83.1921L175.322 87.4051Z" fill="url(#paint25_linear_179_102)"/>
<path d="M157.229 88.4752L151.775 85.9678L157.853 84.73L157.229 88.4752Z" fill="url(#paint26_linear_179_102)"/>
<path d="M178.006 83.1921L180.859 87.4051H174.528L172.388 84.7298L178.006 83.1921Z" fill="url(#paint27_linear_179_102)"/>
<path d="M181.529 68.5881L178.884 66.6282L177.738 82.5009L178.884 84.5409L180.859 87.4052L181.529 68.5881Z" fill="url(#paint28_linear_179_102)"/>
<path d="M107.195 122.176L120.895 125.919L134.055 100.458L120.355 96.7151L107.195 122.176Z" fill="url(#paint29_linear_179_102)"/>
<path d="M54.6782 154.882L64.934 157.684C66.0183 157.98 67.1698 157.541 67.782 156.598L86.9197 127.108L73.2199 123.365L53.971 153.026C53.5176 153.725 53.875 154.662 54.6782 154.882Z" fill="url(#paint30_linear_179_102)"/>
<path d="M73.2197 123.365L86.9195 127.108L120.894 125.919L107.195 122.176L73.2197 123.365Z" fill="url(#paint31_linear_179_102)"/>
<path d="M120.355 96.7151L134.055 100.458L163.727 100.793L150.027 97.05L120.355 96.7151Z" fill="url(#paint32_linear_179_102)"/>
<path d="M151.775 85.9678L156.968 85.6943L150.027 97.0499L163.727 100.793L173.487 84.825L178.884 84.5409V66.6282L151.775 85.9678Z" fill="url(#paint33_linear_179_102)"/>
<g opacity="0.3">
<path d="M111.976 121.253C115.913 118.092 119.485 120.015 122.003 117.433C124.157 115.224 121.928 113.425 124.391 107.979C126.396 103.543 129.337 101.501 129.929 101.103C130.689 100.592 131.421 100.21 132.077 99.9186L120.354 96.7156L107.194 122.176L110.25 123.011C110.704 122.429 111.27 121.82 111.976 121.253Z" fill="url(#paint34_linear_179_102)"/>
</g>
<path opacity="0.3" d="M135.755 97.3781C133.25 97.5489 132.8 97.6439 132.795 97.76C132.779 98.1112 136.802 98.7992 140.912 98.9062C144.57 99.0012 145.209 98.5565 149.125 98.8108C151.674 98.9763 153.381 99.2929 153.423 99.0972C153.473 98.8621 151.104 97.9966 148.553 97.4736C145.078 96.7616 141.923 96.9573 135.755 97.3781Z" fill="url(#paint35_linear_179_102)"/>
<path opacity="0.3" d="M66.1379 142.166C68.2571 138.71 69.0387 135.187 72.7272 133.476C75.5522 132.165 77.4738 133.127 79.9849 131.47C81.9401 130.181 82.9994 128.13 83.6006 126.201L73.2205 123.365L54.7344 151.85C61.1165 148.756 64.3512 145.08 66.1379 142.166Z" fill="url(#paint36_linear_179_102)"/>
<path d="M98.7797 101.76C99.9412 101.42 101.494 103.553 102.785 105.327C104.716 107.98 106.972 111.079 106.364 114.801C105.766 118.463 102.627 121.316 101.732 120.907C100.967 120.558 102.439 118.095 101.311 114.801C100.401 112.143 98.8944 112.143 97.8839 109.536C96.6298 106.302 97.3509 102.177 98.7797 101.76Z" fill="url(#paint37_linear_179_102)"/>
<path d="M99.355 118.626C105.338 120.079 109.28 122.411 111.581 124.061C112.829 124.954 113.405 125.512 113.716 126.325C115.488 130.956 106.382 137.958 105.412 138.692C104.988 137.703 104.564 136.715 104.14 135.726C105.081 130.562 106.648 128.941 107.959 128.46C108.326 128.325 108.941 128.18 108.929 128.007C108.901 127.597 105.442 128.181 102.137 126.972C98.8407 125.766 95.5292 122.714 96.1208 120.697C96.2283 120.328 96.6802 119.264 99.355 118.626Z" fill="url(#paint38_linear_179_102)"/>
<path d="M105.157 152.478C105.157 152.478 104.6 152.676 104.598 153.117C104.596 153.557 105.162 155.497 105.777 156.187C106.392 156.876 106.447 155.848 106.409 155.185C106.371 154.522 106.21 153.039 106.058 152.753C105.906 152.466 105.157 152.478 105.157 152.478Z" fill="url(#paint39_linear_179_102)"/>
<path opacity="0.3" d="M106.945 125.398C108.032 125.377 110.579 125.174 111.258 126.432C111.823 127.483 110.832 129.076 110.223 130.055C108.566 132.718 106.957 132.991 105.824 134.627C105.385 135.26 104.988 136.145 104.861 137.409C104.621 136.848 104.381 136.287 104.14 135.726C105.081 130.562 106.647 128.941 107.959 128.46C108.325 128.325 108.941 128.18 108.929 128.007C108.901 127.596 105.442 128.181 102.137 126.972C99.1322 125.873 96.1249 123.242 96.0625 121.257C100.82 124.669 104.401 125.448 106.945 125.398Z" fill="url(#paint40_linear_179_102)"/>
<path d="M104.835 150.606C104.868 151.285 104.926 151.852 104.977 152.274C105.093 153.206 105.198 153.575 105.343 153.911C105.469 154.204 105.784 154.843 105.935 154.798C106.088 154.753 105.931 154.046 105.811 152.077C105.794 151.792 105.741 150.882 105.741 150.882L104.835 150.606Z" fill="url(#paint41_linear_179_102)"/>
<path d="M95.9045 119.015C99.3518 121.093 101.59 123.456 102.891 125.052C104.427 126.936 106.763 129.802 107.609 134.075C108.06 136.353 107.838 138.396 107.376 142.389C106.917 146.355 106.259 149.584 105.744 151.79C105.479 151.896 105.214 152.003 104.949 152.109C104.239 150.804 103.31 148.739 102.978 146.098C102.433 141.777 104.049 140.404 103.273 137.34C102.601 134.686 100.653 133.058 96.759 129.803C93.5593 127.129 90.6087 125.542 89.5133 122.206C89.3272 121.639 89.1693 120.945 89.4725 120.309C90.126 118.937 92.6262 118.459 95.9045 119.015Z" fill="url(#paint42_linear_179_102)"/>
<path d="M93.1528 102.007C94.0476 101.814 95.5191 101.853 96.922 100.748C97.3442 100.415 98.8407 99.2368 98.6588 97.5509C98.4991 96.0669 97.0923 95.269 96.9196 95.174C95.9236 94.6261 94.9309 94.748 93.8303 94.8982C92.4024 95.0934 91.9284 95.4835 90.9362 95.7507C88.4821 96.4124 87.6521 95.0315 85.1807 95.1481C82.0223 95.2969 81.7493 97.6296 79.0918 97.6876C76.1085 97.7529 75.5371 94.8334 72.5917 94.3387C68.5034 93.6522 62.318 98.0532 62.4428 103.126C62.5147 106.057 64.6968 109.415 67.4834 110.423C69.1079 111.011 70.8606 110.824 71.361 111.881C71.717 112.632 70.9167 113.212 70.9921 114.521C71.0895 116.21 72.5432 117.395 72.7778 117.586C74.957 119.363 79.8436 118.465 83.18 115.952C89.198 111.419 88.2873 103.054 93.1528 102.007Z" fill="url(#paint43_linear_179_102)"/>
<path d="M86.2411 101.405C88.2677 101.155 90.6053 100.965 93.2028 100.93C98.6915 100.855 99.4769 101.551 99.678 102.066C100.053 103.027 99.4107 103.508 99.7754 105.182C99.9932 106.184 99.7874 106.64 100.209 107.716C100.619 108.764 100.297 109.328 99.9342 111.786C99.4697 114.93 99.2558 116.527 100.135 117.795C100.746 118.675 101.43 118.75 101.365 119.169C101.227 120.06 98.1455 119.568 94.2444 121.279C93.115 121.774 92.0758 122.385 91.204 122.897C89.163 124.095 88.7854 124.553 87.8403 125.096C84.8512 126.813 80.3609 126.979 78.0075 124.902C77.13 124.128 76.4905 122.99 76.7783 122.573C77.1703 122.006 78.9225 123.294 80.5303 122.508C81.5954 121.988 81.3929 121.145 82.6245 120.153C84.1066 118.959 85.1371 119.585 86.1457 118.807C87.7193 117.595 87.0035 114.693 86.5616 109.826C86.3788 107.812 86.1956 104.935 86.2411 101.405Z" fill="url(#paint44_linear_179_102)"/>
<path d="M92.1812 100.274C91.4328 100.738 90.2227 101.345 90.0894 101.51C89.956 101.674 93.7554 102.325 96.1193 101.131C96.1193 101.131 96.4858 100.928 95.0609 100.643C94.7572 100.582 94.8167 99.9915 94.8575 99.3808L94.5725 98.8516C94.5715 98.852 92.9297 99.8092 92.1812 100.274Z" fill="url(#paint45_linear_179_102)"/>
<path d="M94.0695 98.4922C94.0695 98.4922 93.7758 99.7377 94.8731 100.354C95.8552 100.905 97.5172 98.6453 97.2068 97.8052C97.1031 97.525 96.7332 97.1651 96.3465 97.0438C96.0745 96.9584 95.0458 96.9915 94.6049 97.8575C94.4893 97.6041 94.283 97.4713 94.1438 97.513C93.9678 97.5658 93.9418 97.8863 93.9356 97.9592C93.9159 98.2111 94.0172 98.4064 94.0695 98.4922Z" fill="url(#paint46_linear_179_102)"/>
<path opacity="0.3" d="M95.7706 118.462C94.6402 118.93 94.4877 119.943 92.925 120.517C91.4343 121.065 90.9339 120.378 89.4471 120.833C87.2137 121.516 86.3596 123.671 86.0219 123.468C85.7119 123.282 86.0094 121.22 87.4449 119.884C89.0935 118.35 90.8691 119.053 91.9242 117.46C92.3349 116.841 92.6511 115.851 92.2931 115.089C91.8081 114.056 90.5405 114.414 89.8693 113.561C88.6626 112.027 91.4861 109.26 90.7123 106.921C90.4033 105.988 89.4202 104.818 86.2488 104.035C86.292 106.379 86.4268 108.338 86.5621 109.826C87.004 114.693 87.7198 117.595 86.1461 118.807C85.1372 119.584 84.1071 118.958 82.625 120.153C81.3934 121.145 81.5959 121.988 80.5307 122.508C78.923 123.294 77.1703 122.006 76.7788 122.573C76.491 122.99 77.1305 124.128 78.008 124.902C80.3614 126.978 84.8517 126.813 87.8407 125.096C88.7859 124.553 89.1635 124.095 91.2045 122.897C92.0763 122.385 93.1155 121.775 94.2449 121.28C96.9826 120.079 99.3148 119.963 100.511 119.692C98.135 118.108 96.688 118.081 95.7706 118.462Z" fill="url(#paint47_linear_179_102)"/>
<path d="M106.679 120.052L92.34 120.749C92.1428 120.759 91.9624 120.865 91.8583 121.032L91.4615 121.669C91.2638 121.986 91.5013 122.395 91.8746 122.381L107.063 121.802L106.679 120.052Z" fill="url(#paint48_linear_179_102)"/>
<path d="M119.843 112.129L105.029 112.416C104.591 112.425 104.189 112.663 103.973 113.045L98.8428 122.071L114.488 121.447C114.917 121.43 115.309 121.198 115.53 120.829L120.283 112.889C120.485 112.551 120.237 112.122 119.843 112.129Z" fill="url(#paint49_linear_179_102)"/>
<path opacity="0.3" d="M103.973 113.045C104.19 112.664 104.591 112.426 105.029 112.417L105.354 112.411C105.402 112.889 105.549 113.326 105.842 113.68C106.755 114.782 108.273 114.102 109.404 115.269C110.647 116.551 109.499 118.077 110.61 119.27C111.779 120.525 113.67 119.503 115.844 120.306L115.531 120.829C115.31 121.198 114.918 121.431 114.489 121.448L98.8438 122.071L103.973 113.045Z" fill="url(#paint50_linear_179_102)"/>
<path d="M94.6894 120.059C94.8511 119.632 95.0127 119.206 95.1739 118.779C93.3882 118.289 90.9183 117.566 88.385 116.661C87.7589 116.437 87.53 116.148 87.3626 115.926C86.0638 114.203 89.369 111.164 89.31 107.221C89.2692 104.488 87.6121 101.361 86.1516 101.326C83.1837 101.254 76.6394 113.847 82.1512 119.222C84.8869 121.891 89.9976 122.2 94.6894 120.059Z" fill="url(#paint51_linear_179_102)"/>
<path d="M95.1742 118.779C96.2954 118.184 97.6374 118.794 97.7237 118.835C97.9703 118.951 98.3287 119.158 98.691 119.528C98.7318 119.584 99.2183 120.258 99.0412 120.474C98.8992 120.647 98.3494 120.503 97.6882 120.092C97.4114 120.053 96.9988 120.018 96.5046 120.063C95.5973 120.147 95.1814 120.434 94.8522 120.186C94.6109 120.005 94.5288 119.622 94.6157 119.337C94.7083 119.032 94.9842 118.88 95.1742 118.779Z" fill="url(#paint52_linear_179_102)"/>
<defs>
<linearGradient id="paint0_linear_179_102" x1="157.336" y1="102.571" x2="145.845" y2="148.646" gradientUnits="userSpaceOnUse">
<stop stop-color="#AA80F9"/>
<stop offset="0.9964" stop-color="#6165D7"/>
</linearGradient>
<linearGradient id="paint1_linear_179_102" x1="152.524" y1="131.908" x2="180.234" y2="105.988" gradientUnits="userSpaceOnUse">
<stop offset="0.00359712" stop-color="#E38DDD"/>
<stop offset="1" stop-color="#9571F6"/>
</linearGradient>
<linearGradient id="paint2_linear_179_102" x1="103.52" y1="61.0842" x2="94.9835" y2="82.0411" gradientUnits="userSpaceOnUse">
<stop stop-color="#FFC444"/>
<stop offset="0.9964" stop-color="#F36F56"/>
</linearGradient>
<linearGradient id="paint3_linear_179_102" x1="101.331" y1="60.1926" x2="92.7946" y2="81.1496" gradientUnits="userSpaceOnUse">
<stop stop-color="#FFC444"/>
<stop offset="0.9964" stop-color="#F36F56"/>
</linearGradient>
<linearGradient id="paint4_linear_179_102" x1="76.3611" y1="57.0847" x2="91.9228" y2="66.6479" gradientUnits="userSpaceOnUse">
<stop offset="0.00359712" stop-color="#E38DDD"/>
<stop offset="1" stop-color="#9571F6"/>
</linearGradient>
<linearGradient id="paint5_linear_179_102" x1="100.087" y1="28.8855" x2="136.17" y2="95.675" gradientUnits="userSpaceOnUse">
<stop stop-color="#AA80F9"/>
<stop offset="0.9964" stop-color="#6165D7"/>
</linearGradient>
<linearGradient id="paint6_linear_179_102" x1="95.7365" y1="30.4523" x2="132.27" y2="98.0752" gradientUnits="userSpaceOnUse">
<stop stop-color="#AA80F9"/>
<stop offset="0.9964" stop-color="#6165D7"/>
</linearGradient>
<linearGradient id="paint7_linear_179_102" x1="119.788" y1="33.5161" x2="155.228" y2="55.2957" gradientUnits="userSpaceOnUse">
<stop offset="0.00359712" stop-color="#E38DDD"/>
<stop offset="1" stop-color="#9571F6"/>
</linearGradient>
<linearGradient id="paint8_linear_179_102" x1="122.813" y1="48.8074" x2="147.665" y2="41.3641" gradientUnits="userSpaceOnUse">
<stop stop-color="#311944"/>
<stop offset="1" stop-color="#893976"/>
</linearGradient>
<linearGradient id="paint9_linear_179_102" x1="118.003" y1="25.5017" x2="141.562" y2="69.1099" gradientUnits="userSpaceOnUse">
<stop stop-color="#FFC444"/>
<stop offset="0.9964" stop-color="#F36F56"/>
</linearGradient>
<linearGradient id="paint10_linear_179_102" x1="124.791" y1="29.8908" x2="142.174" y2="62.0669" gradientUnits="userSpaceOnUse">
<stop stop-color="#FFC444"/>
<stop offset="0.9964" stop-color="#F36F56"/>
</linearGradient>
<linearGradient id="paint11_linear_179_102" x1="153.426" y1="36.6617" x2="139.908" y2="59.695" gradientUnits="userSpaceOnUse">
<stop offset="0.00359712" stop-color="#E38DDD"/>
<stop offset="1" stop-color="#9571F6"/>
</linearGradient>
<linearGradient id="paint12_linear_179_102" x1="157.294" y1="24.0053" x2="144.276" y2="37.2671" gradientUnits="userSpaceOnUse">
<stop stop-color="#FF9085"/>
<stop offset="1" stop-color="#FB6FBB"/>
</linearGradient>
<linearGradient id="paint13_linear_179_102" x1="157.236" y1="33.0734" x2="144.292" y2="55.1282" gradientUnits="userSpaceOnUse">
<stop offset="0.00359712" stop-color="#E38DDD"/>
<stop offset="1" stop-color="#9571F6"/>
</linearGradient>
<linearGradient id="paint14_linear_179_102" x1="162.505" y1="28.3815" x2="148.132" y2="43.0226" gradientUnits="userSpaceOnUse">
<stop stop-color="#FF9085"/>
<stop offset="1" stop-color="#FB6FBB"/>
</linearGradient>
<linearGradient id="paint15_linear_179_102" x1="156.163" y1="40.4539" x2="140.42" y2="67.2766" gradientUnits="userSpaceOnUse">
<stop stop-color="#AA80F9"/>
<stop offset="0.9964" stop-color="#6165D7"/>
</linearGradient>
<linearGradient id="paint16_linear_179_102" x1="106.03" y1="147.131" x2="96.8479" y2="150.988" gradientUnits="userSpaceOnUse">
<stop stop-color="#40447E"/>
<stop offset="0.9964" stop-color="#3C3B6B"/>
</linearGradient>
<linearGradient id="paint17_linear_179_102" x1="93.7688" y1="106.662" x2="83.8038" y2="110.848" gradientUnits="userSpaceOnUse">
<stop stop-color="#40447E"/>
<stop offset="0.9964" stop-color="#3C3B6B"/>
</linearGradient>
<linearGradient id="paint18_linear_179_102" x1="50.8183" y1="108.928" x2="143.167" y2="108.928" gradientUnits="userSpaceOnUse">
<stop stop-color="#40447E"/>
<stop offset="0.9964" stop-color="#3C3B6B"/>
</linearGradient>
<linearGradient id="paint19_linear_179_102" x1="50.8183" y1="143.078" x2="181.529" y2="143.078" gradientUnits="userSpaceOnUse">
<stop stop-color="#40447E"/>
<stop offset="0.9964" stop-color="#3C3B6B"/>
</linearGradient>
<linearGradient id="paint20_linear_179_102" x1="63.6367" y1="142.007" x2="159.407" y2="142.007" gradientUnits="userSpaceOnUse">
<stop stop-color="#40447E"/>
<stop offset="0.9964" stop-color="#3C3B6B"/>
</linearGradient>
<linearGradient id="paint21_linear_179_102" x1="118.967" y1="61.3112" x2="69.9425" y2="113.911" gradientUnits="userSpaceOnUse">
<stop stop-color="#AA80F9"/>
<stop offset="0.9964" stop-color="#6165D7"/>
</linearGradient>
<linearGradient id="paint22_linear_179_102" x1="58.3594" y1="84.0611" x2="60.7278" y2="84.0611" gradientUnits="userSpaceOnUse">
<stop stop-color="#444B8C"/>
<stop offset="0.9964" stop-color="#26264F"/>
</linearGradient>
<linearGradient id="paint23_linear_179_102" x1="62.6583" y1="84.0362" x2="65.005" y2="84.0362" gradientUnits="userSpaceOnUse">
<stop stop-color="#444B8C"/>
<stop offset="0.9964" stop-color="#26264F"/>
</linearGradient>
<linearGradient id="paint24_linear_179_102" x1="66.9175" y1="84.0114" x2="69.2427" y2="84.0114" gradientUnits="userSpaceOnUse">
<stop stop-color="#444B8C"/>
<stop offset="0.9964" stop-color="#26264F"/>
</linearGradient>
<linearGradient id="paint25_linear_179_102" x1="134.418" y1="94.1409" x2="93.5579" y2="163.092" gradientUnits="userSpaceOnUse">
<stop stop-color="#AB316D"/>
<stop offset="1" stop-color="#792D3D"/>
</linearGradient>
<linearGradient id="paint26_linear_179_102" x1="150.271" y1="94.414" x2="151.544" y2="92.2494" gradientUnits="userSpaceOnUse">
<stop stop-color="#AB316D"/>
<stop offset="1" stop-color="#792D3D"/>
</linearGradient>
<linearGradient id="paint27_linear_179_102" x1="178.396" y1="70.7056" x2="176.868" y2="83.948" gradientUnits="userSpaceOnUse">
<stop stop-color="#AB316D"/>
<stop offset="1" stop-color="#792D3D"/>
</linearGradient>
<linearGradient id="paint28_linear_179_102" x1="179.098" y1="82.69" x2="182.154" y2="60.28" gradientUnits="userSpaceOnUse">
<stop stop-color="#AB316D"/>
<stop offset="1" stop-color="#792D3D"/>
</linearGradient>
<linearGradient id="paint29_linear_179_102" x1="128.252" y1="97.301" x2="113.355" y2="124.677" gradientUnits="userSpaceOnUse">
<stop stop-color="#FF9085"/>
<stop offset="1" stop-color="#FB6FBB"/>
</linearGradient>
<linearGradient id="paint30_linear_179_102" x1="82.0651" y1="122.123" x2="54.2954" y2="165.006" gradientUnits="userSpaceOnUse">
<stop stop-color="#FF9085"/>
<stop offset="1" stop-color="#FB6FBB"/>
</linearGradient>
<linearGradient id="paint31_linear_179_102" x1="117.047" y1="121.103" x2="58.7933" y2="131.416" gradientUnits="userSpaceOnUse">
<stop stop-color="#FF9085"/>
<stop offset="1" stop-color="#FB6FBB"/>
</linearGradient>
<linearGradient id="paint32_linear_179_102" x1="142.64" y1="92.8988" x2="141.494" y2="104.104" gradientUnits="userSpaceOnUse">
<stop stop-color="#FF9085"/>
<stop offset="1" stop-color="#FB6FBB"/>
</linearGradient>
<linearGradient id="paint33_linear_179_102" x1="157.722" y1="94.925" x2="181.66" y2="64.4932" gradientUnits="userSpaceOnUse">
<stop stop-color="#FF9085"/>
<stop offset="1" stop-color="#FB6FBB"/>
</linearGradient>
<linearGradient id="paint34_linear_179_102" x1="127.108" y1="96.6784" x2="112.21" y2="124.054" gradientUnits="userSpaceOnUse">
<stop stop-color="#FF9085"/>
<stop offset="1" stop-color="#FB6FBB"/>
</linearGradient>
<linearGradient id="paint35_linear_179_102" x1="145.278" y1="94.4385" x2="141.109" y2="102.1" gradientUnits="userSpaceOnUse">
<stop stop-color="#FF9085"/>
<stop offset="1" stop-color="#FB6FBB"/>
</linearGradient>
<linearGradient id="paint36_linear_179_102" x1="80.8874" y1="121.361" x2="53.1176" y2="164.243" gradientUnits="userSpaceOnUse">
<stop stop-color="#FF9085"/>
<stop offset="1" stop-color="#FB6FBB"/>
</linearGradient>
<linearGradient id="paint37_linear_179_102" x1="106.465" y1="111.335" x2="97.2384" y2="111.335" gradientUnits="userSpaceOnUse">
<stop stop-color="#FFC444"/>
<stop offset="0.9964" stop-color="#F36F56"/>
</linearGradient>
<linearGradient id="paint38_linear_179_102" x1="122.355" y1="128.659" x2="104.462" y2="128.659" gradientUnits="userSpaceOnUse">
<stop stop-color="#AA80F9"/>
<stop offset="0.9964" stop-color="#6165D7"/>
</linearGradient>
<linearGradient id="paint39_linear_179_102" x1="106.982" y1="148.46" x2="103.66" y2="162.002" gradientUnits="userSpaceOnUse">
<stop offset="0.00359712" stop-color="#E38DDD"/>
<stop offset="1" stop-color="#9571F6"/>
</linearGradient>
<linearGradient id="paint40_linear_179_102" x1="113.944" y1="129.332" x2="96.051" y2="129.332" gradientUnits="userSpaceOnUse">
<stop stop-color="#AA80F9"/>
<stop offset="0.9964" stop-color="#6165D7"/>
</linearGradient>
<linearGradient id="paint41_linear_179_102" x1="105.998" y1="152.703" x2="104.835" y2="152.703" gradientUnits="userSpaceOnUse">
<stop stop-color="#311944"/>
<stop offset="1" stop-color="#A03976"/>
</linearGradient>
<linearGradient id="paint42_linear_179_102" x1="112.801" y1="117.55" x2="96.7577" y2="137.043" gradientUnits="userSpaceOnUse">
<stop stop-color="#AA80F9"/>
<stop offset="0.9964" stop-color="#6165D7"/>
</linearGradient>
<linearGradient id="paint43_linear_179_102" x1="68.0418" y1="90.7179" x2="88.3283" y2="109.543" gradientUnits="userSpaceOnUse">
<stop stop-color="#444B8C"/>
<stop offset="0.9964" stop-color="#26264F"/>
</linearGradient>
<linearGradient id="paint44_linear_179_102" x1="85.146" y1="118.127" x2="102.378" y2="102.635" gradientUnits="userSpaceOnUse">
<stop stop-color="#FFC444"/>
<stop offset="0.9964" stop-color="#F36F56"/>
</linearGradient>
<linearGradient id="paint45_linear_179_102" x1="96.1612" y1="100.343" x2="90.0857" y2="100.343" gradientUnits="userSpaceOnUse">
<stop stop-color="#311944"/>
<stop offset="1" stop-color="#A03976"/>
</linearGradient>
<linearGradient id="paint46_linear_179_102" x1="95.3917" y1="116.09" x2="95.5228" y2="104.1" gradientUnits="userSpaceOnUse">
<stop stop-color="#311944"/>
<stop offset="1" stop-color="#A03976"/>
</linearGradient>
<linearGradient id="paint47_linear_179_102" x1="85.7121" y1="118.757" x2="102.944" y2="103.264" gradientUnits="userSpaceOnUse">
<stop stop-color="#FFC444"/>
<stop offset="0.9964" stop-color="#F36F56"/>
</linearGradient>
<linearGradient id="paint48_linear_179_102" x1="91.3905" y1="121.216" x2="107.063" y2="121.216" gradientUnits="userSpaceOnUse">
<stop stop-color="#444B8C"/>
<stop offset="0.9964" stop-color="#26264F"/>
</linearGradient>
<linearGradient id="paint49_linear_179_102" x1="98.8426" y1="117.1" x2="120.355" y2="117.1" gradientUnits="userSpaceOnUse">
<stop stop-color="#444B8C"/>
<stop offset="0.9964" stop-color="#26264F"/>
</linearGradient>
<linearGradient id="paint50_linear_179_102" x1="115.336" y1="111.393" x2="105.06" y2="121.586" gradientUnits="userSpaceOnUse">
<stop stop-color="#444B8C"/>
<stop offset="0.9964" stop-color="#26264F"/>
</linearGradient>
<linearGradient id="paint51_linear_179_102" x1="92.2862" y1="118.012" x2="79.1269" y2="105.063" gradientUnits="userSpaceOnUse">
<stop stop-color="#FFC444"/>
<stop offset="0.9964" stop-color="#F36F56"/>
</linearGradient>
<linearGradient id="paint52_linear_179_102" x1="91.9406" y1="116.439" x2="96.1965" y2="119.418" gradientUnits="userSpaceOnUse">
<stop stop-color="#311944"/>
<stop offset="1" stop-color="#A03976"/>
</linearGradient>
</defs>
</svg>
