<svg width="54" height="54" viewBox="0 0 54 54" fill="none" xmlns="http://www.w3.org/2000/svg">
<circle cx="27" cy="27" r="27" fill="white" fill-opacity="0.5"/>
<path d="M12.0082 23.3261L20.919 14.3998L23.5244 17.0207C23.1544 18.3311 23.7557 19.7648 24.9582 20.4586V28.9994C24.0332 29.5236 23.4165 30.5257 23.4165 31.6665C23.4165 32.4842 23.7413 33.2685 24.3196 33.8467C24.8978 34.425 25.6821 34.7498 26.4998 34.7498C27.3176 34.7498 28.1018 34.425 28.6801 33.8467C29.2583 33.2685 29.5832 32.4842 29.5832 31.6665C29.5832 30.5257 28.9665 29.5236 28.0415 28.9994V21.5069L31.2327 24.729C31.1248 24.9602 31.1248 25.2223 31.1248 25.4998C31.1248 26.3176 31.4497 27.1018 32.0279 27.6801C32.6062 28.2583 33.3904 28.5832 34.2082 28.5832C35.0259 28.5832 35.8102 28.2583 36.3884 27.6801C36.9666 27.1018 37.2915 26.3176 37.2915 25.4998C37.2915 24.6821 36.9666 23.8978 36.3884 23.3196C35.8102 22.7413 35.0259 22.4165 34.2082 22.4165C33.9307 22.4165 33.6686 22.4165 33.4373 22.5244L29.4752 18.5623C29.6667 17.8483 29.5925 17.089 29.2664 16.4256C28.9403 15.7621 28.3846 15.2395 27.7023 14.9548C27.0394 14.7082 26.3457 14.6465 25.729 14.8161L23.1082 12.2107L24.3261 11.0082C25.5286 9.79025 27.4711 9.79025 28.6736 11.0082L40.9915 23.3261C42.2094 24.5286 42.2094 26.4711 40.9915 27.6736L28.6736 39.9915C27.4711 41.2094 25.5286 41.2094 24.3261 39.9915L12.0082 27.6736C10.7902 26.4711 10.7902 24.5286 12.0082 23.3261Z" fill="black"/>
</svg>
