<svg width="380" height="304" viewBox="0 0 380 304" fill="none" xmlns="http://www.w3.org/2000/svg">
<path d="M370 0H10C4.47715 0 0 4.47715 0 10V294C0 299.523 4.47716 304 10 304H370C375.523 304 380 299.523 380 294V10C380 4.47715 375.523 0 370 0Z" fill="white"/>
<path d="M143.883 53.9241C123.197 44.3911 89.7739 47.4639 73.6791 71.8511C57.8998 95.7613 94.0078 122.541 83.2031 177.121C77.3919 206.475 66.7633 216.692 73.2506 234.764C79.9427 253.407 99.7944 266.323 117.623 270.842C154.401 280.166 170.422 250.684 211.758 260.89C225.982 264.402 230.825 269.557 245.763 269.599C249.34 269.608 277.22 269.711 291.794 253.425C314.405 228.16 277.025 194.703 284.121 117.17C285.307 104.211 287.764 89.7076 279.767 74.5871C268.687 53.6332 245.351 46.4904 236.358 43.5389C214.483 36.3601 181.166 35.3325 172.25 50.7259C169.367 55.7022 156.461 59.7214 143.883 53.9241Z" fill="#F4F7FA"/>
<path d="M189.289 233.24C188.641 232.204 188.142 229.379 188.317 228.589C189.475 223.331 191.002 213.348 195.604 209.999C196.39 209.427 199.839 212.205 200.913 212.109C203.542 213.346 204.376 213.938 207.454 213.888C216.539 213.736 218.677 195.298 231.825 203.901C241.455 210.203 244.423 219.772 256.846 208.034C269.269 196.295 301.858 187.014 304.1 208.476C305.387 220.792 287.525 221.894 282.638 232.792C277.994 243.148 268.794 245.132 257.227 240.663C245.661 236.194 245.7 243.626 240.23 252.183C233.66 262.461 220.742 249.978 215.269 243.706C210.86 238.657 196.231 228.77 189.289 233.24Z" fill="url(#paint0_linear_179_991)"/>
<mask id="mask0_179_991" style="mask-type:luminance" maskUnits="userSpaceOnUse" x="180" y="195" width="125" height="62">
<path d="M194.994 206.946C190.468 214.024 185.572 221.04 180.976 228.143C183.71 232.08 187.023 236.645 192.233 233.732C199.476 229.682 210.911 238.638 215.287 243.709C220.705 249.984 233.673 262.458 240.231 252.183C245.69 243.629 245.662 236.194 257.227 240.664C268.792 245.134 277.991 243.147 282.637 232.792C287.526 221.895 305.381 220.795 304.099 208.476C301.865 187.009 269.25 196.303 256.851 208.032C244.452 219.76 241.385 210.229 231.843 203.894C218.815 195.246 216.234 213.847 207.601 213.823C200.831 213.804 199.41 210.573 194.994 206.946Z" fill="white"/>
</mask>
<g mask="url(#mask0_179_991)">
<path d="M191.678 219.722L191.786 219.486C228.182 236.154 270.523 229.421 305.048 201.477L305.211 201.679C288.85 214.923 270.003 223.716 250.709 227.108C230.427 230.672 210.014 228.119 191.678 219.722Z" fill="#FCFDFE"/>
<path d="M237.988 256.769C234.02 246.564 223.044 233.062 213.521 226.67L213.666 226.454C223.227 232.872 234.246 246.429 238.231 256.676L237.988 256.769Z" fill="#FCFDFE"/>
<path d="M198.86 222.912L198.898 222.655C204.795 223.537 210.911 221.406 217.076 216.318C221.598 212.588 226.04 207.385 230.279 200.854L230.497 200.996C226.243 207.549 221.783 212.772 217.242 216.519C211.017 221.655 204.833 223.806 198.86 222.912Z" fill="#FCFDFE"/>
<path d="M253.43 226.518L253.455 226.259C264.655 227.352 273.69 234.993 279.298 241.211L279.104 241.386C273.528 235.201 264.547 227.602 253.43 226.518Z" fill="#FCFDFE"/>
<path d="M277.955 218.643L277.805 218.431C288.155 211.111 292.143 198.417 293.6 191.501L293.854 191.554C292.391 198.508 288.377 211.272 277.955 218.643Z" fill="#FCFDFE"/>
</g>
<mask id="mask1_179_991" style="mask-type:luminance" maskUnits="userSpaceOnUse" x="198" y="148" width="107" height="108">
<path d="M212.607 255.484C207.709 251.823 202.883 248.043 198.133 244.146C198.004 244.177 202.517 231.668 211.292 228.574C228.513 222.701 226.899 208.196 228.192 200.817C229.618 190.199 237.124 180.415 245.744 187.671C254.265 194.513 266.229 175.823 272.709 159.945C275.265 151.892 286.941 146.762 294.908 148.456C303.137 150.009 307.655 158.385 301.931 174.094C296.067 192.696 278.278 196.204 269.158 202.187C260.194 208.054 266.985 220.399 254.625 223.208C244.039 225.919 232.61 225.802 231.428 235.759C230.386 245.674 226.001 251.869 212.607 255.484Z" fill="white"/>
</mask>
<g mask="url(#mask1_179_991)">
<path d="M212.607 255.484C207.709 251.823 202.883 248.043 198.133 244.146C198.004 244.177 202.517 231.668 211.292 228.574C228.513 222.701 226.899 208.196 228.192 200.817C229.648 190.223 236.545 181.629 245.583 186.336C255.713 191.362 266.415 175.885 272.709 159.945C275.265 151.892 286.941 146.762 294.908 148.456C303.137 150.009 307.655 158.385 301.931 174.094C296.067 192.696 278.278 196.204 269.158 202.187C260.194 208.054 266.985 220.399 254.625 223.208C244.039 225.919 232.61 225.802 231.428 235.759C230.386 245.674 226.001 251.869 212.607 255.484Z" fill="url(#paint1_linear_179_991)"/>
</g>
<mask id="mask2_179_991" style="mask-type:luminance" maskUnits="userSpaceOnUse" x="198" y="148" width="107" height="108">
<path d="M212.607 255.484C207.709 251.823 202.883 248.043 198.133 244.146C198.004 244.177 202.517 231.668 211.292 228.574C228.513 222.701 226.899 208.196 228.192 200.817C229.618 190.199 237.124 180.415 245.744 187.671C254.265 194.513 266.229 175.823 272.709 159.945C275.265 151.892 286.941 146.762 294.908 148.456C303.137 150.009 307.655 158.385 301.931 174.094C296.067 192.696 278.278 196.204 269.158 202.187C260.194 208.054 266.985 220.399 254.625 223.208C244.039 225.919 232.61 225.802 231.428 235.759C230.386 245.674 226.001 251.869 212.607 255.484Z" fill="white"/>
</mask>
<g mask="url(#mask2_179_991)">
<path d="M204.853 252.174C204.907 252.071 223.156 230.482 244.745 211.534C248.029 208.355 251.437 205.199 254.732 202.147C273.085 185.15 290.421 169.096 295.042 143.315L295.401 143.379C290.758 169.279 273.379 185.374 254.98 202.414C251.686 205.465 248.279 208.62 244.992 211.801C223.286 230.853 205.266 252.215 205.169 252.356L204.853 252.174Z" fill="#BEB8F2"/>
<path d="M271.624 186.334L271.502 185.99C280.996 182.609 293.219 177.115 299.785 174.164C305.099 171.775 305.112 171.784 305.261 171.898L305.151 172.043V172.222C304.912 172.258 302.716 173.245 299.935 174.496C293.363 177.45 281.132 182.947 271.624 186.334Z" fill="#BEB8F2"/>
<path d="M278.231 178.189C281.075 170.013 280.665 163.392 279.819 159.278C278.898 154.796 277.225 152.06 276.954 151.842L277.042 151.732L277.021 151.504C277.13 151.493 277.208 151.566 277.316 151.703C278.855 153.666 283.578 163.931 278.576 178.308L278.231 178.189Z" fill="#BEB8F2"/>
<path d="M231.452 224.397L231.154 224.187C241.077 210.121 238.454 190.57 236.866 182.816C236.781 182.4 236.754 182.265 236.752 182.201L237.115 182.19L236.934 182.195L237.115 182.189C237.118 182.234 237.167 182.47 237.223 182.743C238.368 188.334 238.897 193.846 238.794 199.126C238.596 209.269 236.126 217.771 231.452 224.397Z" fill="#BEB8F2"/>
<path d="M237.832 218.313L237.651 217.997C249.588 211.152 263.403 217.664 263.609 217.805C263.61 217.806 263.611 217.806 263.611 217.807L263.649 218.022L263.455 218.12L263.485 217.942L263.388 218.094C263.263 218.021 249.65 211.536 237.832 218.313Z" fill="#BEB8F2"/>
<path d="M207.892 248.678C209.655 245.688 211.376 239.895 209.573 229.277C209.47 228.675 209.47 228.675 209.527 228.599L209.819 228.816L209.673 228.707L209.854 228.719C209.855 228.762 209.891 228.972 209.932 229.216C211.756 239.943 210 245.821 208.208 248.863L207.892 248.678Z" fill="#BEB8F2"/>
<path d="M212.666 243.842L212.406 243.586C216.928 238.997 226.675 239.125 232.083 239.609C232.255 239.625 232.365 239.634 232.406 239.635L232.398 239.999C232.354 239.998 232.235 239.988 232.051 239.971C226.707 239.493 217.083 239.36 212.666 243.842Z" fill="#BEB8F2"/>
</g>
<path d="M298.312 247.869L69.5273 245.876V251.772C69.5273 253.372 70.5254 254.732 71.8766 254.975L136.57 266.584C137.338 266.722 138.117 266.759 138.892 266.693L295.826 253.456C297.227 253.338 298.312 251.973 298.312 250.329V247.869Z" fill="url(#paint2_linear_179_991)"/>
<path d="M224.663 238.311L72.0454 249.097C69.3143 249.29 67.0938 247.239 67.0938 244.516V135.412C67.0938 132.689 69.3143 130.48 72.0454 130.48H224.663C226.913 130.48 228.732 132.476 228.732 134.938V233.566C228.732 236.028 226.913 238.152 224.663 238.311Z" fill="url(#paint3_linear_179_991)"/>
<path d="M227.097 238.311L74.479 249.097C71.7479 249.29 69.5273 247.239 69.5273 244.516V135.412C69.5273 132.689 71.7479 130.48 74.479 130.48H227.097C229.347 130.48 231.166 132.476 231.166 134.938V233.566C231.166 236.028 229.347 238.152 227.097 238.311Z" fill="url(#paint4_linear_179_991)"/>
<path d="M222.343 231.358L80.1952 240.727C77.973 240.873 76.167 239.19 76.167 236.966V141.446C76.167 139.223 77.973 137.413 80.1952 137.404L222.343 136.815C224.199 136.808 225.7 138.443 225.7 140.468V227.47C225.7 229.495 224.199 231.235 222.343 231.358Z" fill="url(#paint5_linear_179_991)"/>
<path d="M156.179 133.466C156.179 134.479 155.393 135.303 154.423 135.307C153.452 135.31 152.664 134.488 152.664 133.472C152.664 132.456 153.452 131.632 154.423 131.631C155.394 131.63 156.179 132.451 156.179 133.466Z" fill="white"/>
<path opacity="0.48" d="M190.326 208.388C178.56 202.057 169.309 210.079 160.382 202.165C154.969 197.366 157.626 193.789 150.966 186.618C143.589 178.676 138.786 181.346 131.373 174.198C121.999 165.16 126.688 158.129 118.613 151.64C108.818 143.768 98.2541 151.054 88.9293 143.505C84.9076 140.249 82.7009 135.515 81.5489 130.48H72.4248C70.8261 130.48 69.5273 131.776 69.5273 133.375V246.47C69.5273 248.069 70.8253 249.272 72.4248 249.158L227.968 238.118C228.732 238.064 229.408 237.618 229.843 236.971C218.456 236.557 211.462 232.739 206.99 228.794C198.242 221.076 199.759 213.463 190.326 208.388Z" fill="white"/>
<path d="M223.289 237.822L69.5273 249.175L136.57 261.206C137.338 261.344 138.117 261.38 138.892 261.315L298.312 247.868L225.735 237.9C224.923 237.787 224.104 237.762 223.289 237.822Z" fill="url(#paint6_linear_179_991)"/>
<path opacity="0.3" d="M91.9634 249.46L219.974 239.868L259.593 245.266L132.685 255.519L91.9634 249.46Z" fill="url(#paint7_linear_179_991)"/>
<path d="M219.412 224.519V73.2147L91.3988 71.0015V233.277C91.3988 236.55 89.0275 239.34 85.7974 239.868L212.533 231.866C216.403 231.61 219.412 228.397 219.412 224.519Z" fill="white"/>
<path d="M212.528 157.247L159.503 158.798V124.31L212.528 123.764V157.247Z" fill="url(#paint8_linear_179_991)"/>
<path opacity="0.39" d="M154.804 158.935L100.495 160.523V124.919L154.804 124.359V158.935Z" fill="#A2A7AE"/>
<path opacity="0.39" d="M212.528 194.377L100.495 200.005V164.401L212.528 160.894V194.377Z" fill="#A2A7AE"/>
<path opacity="0.39" d="M143.883 117.519L212.528 117.071V82.9729L143.883 82.0969V117.519Z" fill="#A2A7AE"/>
<path d="M135.553 81.991V97.713L134.739 97.7097C133.846 91.6838 132.429 87.5318 130.483 85.2555C128.884 83.3488 126.521 82.3745 123.386 82.3352C122.6 82.3253 122.168 82.3573 122.089 82.4302C121.932 82.54 121.853 83.0226 121.853 83.8773V113.985C121.853 115.062 121.932 115.75 122.089 116.046C122.168 116.195 122.443 116.351 122.914 116.515C123.386 116.68 124.288 116.814 125.621 116.917C126.951 117.019 128.748 117.063 131.009 117.049V117.602L105.25 117.77V117.21C107.528 117.196 109.343 117.129 110.698 117.008C112.049 116.889 112.963 116.742 113.44 116.571C113.916 116.4 114.222 116.193 114.361 115.95C114.5 115.706 114.57 115.062 114.57 114.018V83.8486C114.57 82.8792 114.451 82.3548 114.213 82.277C114.094 82.2385 113.678 82.2147 112.963 82.2057C109.861 82.1672 107.488 83.0743 105.85 84.9302C103.848 87.236 102.342 91.4117 101.339 97.4565L100.495 97.4532V81.5444L135.553 81.991Z" fill="url(#paint9_linear_179_991)"/>
<path d="M189.838 153.331C186.09 153.091 182.551 150.717 181.029 147.06L159.56 95.4927C157.605 90.7975 159.81 85.4829 164.51 83.5982C169.243 81.7005 176.62 83.9358 178.625 88.681L200.65 140.808C202.726 145.723 200.384 151.098 195.446 152.788C194.23 153.204 191.075 153.41 189.838 153.331Z" fill="url(#paint10_linear_179_991)"/>
<path opacity="0.3" d="M164.51 83.5972C169.243 81.6995 176.62 83.9348 178.625 88.68L198.764 136.342C195.394 135.476 191.404 135.554 187.574 132.196C181.198 126.605 184.335 119.441 179.282 113.06C176.972 110.143 172.698 107.072 163.997 106.148L159.561 95.4926C157.606 90.7965 159.811 85.4819 164.51 83.5972Z" fill="url(#paint11_linear_179_991)"/>
<path d="M151.585 73.3642C151.769 73.3642 151.953 73.3781 152.134 73.4027L165.405 73.2568V107.764L152.59 107.588C152.261 107.672 151.926 107.716 151.585 107.716C147.036 107.716 143.349 100.026 143.349 90.5398C143.349 81.0543 147.036 73.3642 151.585 73.3642Z" fill="url(#paint12_linear_179_991)"/>
<path d="M165.406 73.2578C160.379 84.7483 160.379 96.1971 165.406 107.765L264.125 139.504L265.144 42.6545L165.406 73.2578Z" fill="url(#paint13_linear_179_991)"/>
<path opacity="0.3" d="M237.476 111.036C228.09 107.479 225.173 93.8625 214.276 93.4045C205.726 93.0448 203.149 101.347 194.772 100.451C186.196 99.5345 184.755 90.2883 175.151 87.0295C170.785 85.548 166.216 85.8217 161.782 87.0746C161.186 93.9363 162.389 100.822 165.406 107.765L264.125 139.505L258.285 106.622C248.552 112.298 242.026 112.759 237.476 111.036Z" fill="url(#paint14_linear_179_991)"/>
<path d="M268.911 140.778C282.174 140.778 292.925 118.356 292.925 90.6966C292.925 63.0374 282.174 40.6152 268.911 40.6152C255.649 40.6152 244.898 63.0374 244.898 90.6966C244.898 118.356 255.649 140.778 268.911 140.778Z" fill="url(#paint15_linear_179_991)"/>
<path d="M268.911 139.079C271.726 139.079 274.494 137.898 277.134 135.569C279.821 133.198 282.253 129.768 284.358 125.375C288.786 116.141 291.225 103.825 291.225 90.6973C291.225 77.5696 288.786 65.2539 284.358 56.0192C282.252 51.6264 279.821 48.1971 277.134 45.8258C274.493 43.4962 271.726 42.3154 268.911 42.3154C266.095 42.3154 263.328 43.4962 260.688 45.8258C258.001 48.1971 255.569 51.6264 253.463 56.0192C251.612 59.8802 250.109 64.2805 248.985 69.0527C247.423 75.6948 251.939 82.6278 251.939 90.2671C251.939 98.3899 247.53 106.632 249.291 113.596C250.376 117.887 251.775 121.855 253.463 125.376C255.57 129.769 258.001 133.198 260.688 135.57C263.329 137.898 266.095 139.079 268.911 139.079Z" fill="url(#paint16_linear_179_991)"/>
<mask id="mask3_179_991" style="mask-type:luminance" maskUnits="userSpaceOnUse" x="246" y="42" width="46" height="98">
<path d="M268.911 139.079C271.727 139.079 274.494 137.898 277.134 135.569C279.822 133.198 282.253 129.768 284.359 125.375C288.787 116.141 291.225 103.825 291.225 90.6973C291.225 77.5696 288.787 65.2539 284.359 56.0192C282.252 51.6264 279.822 48.1971 277.134 45.8258C274.493 43.4962 271.727 42.3154 268.911 42.3154C266.096 42.3154 263.329 43.4962 260.689 45.8258C258.001 48.1971 255.57 51.6264 253.464 56.0192C249.036 65.2539 246.597 77.5696 246.597 90.6973C246.597 103.826 249.036 116.142 253.464 125.375C255.57 129.768 258.001 133.197 260.689 135.569C263.329 137.898 266.096 139.079 268.911 139.079Z" fill="white"/>
</mask>
<g mask="url(#mask3_179_991)">
<path d="M270.887 91.3536C270.887 104.042 262.486 114.117 252.268 113.859C242.208 113.606 234.167 103.405 234.167 91.0692C234.167 78.7339 242.208 68.6568 252.268 68.5593C262.486 68.4602 270.887 78.665 270.887 91.3536Z" fill="url(#paint17_linear_179_991)"/>
</g>
<mask id="mask4_179_991" style="mask-type:luminance" maskUnits="userSpaceOnUse" x="246" y="42" width="46" height="98">
<path d="M268.911 139.079C271.727 139.079 274.494 137.898 277.134 135.569C279.822 133.198 282.253 129.768 284.359 125.375C288.787 116.141 291.225 103.825 291.225 90.6973C291.225 77.5696 288.787 65.2539 284.359 56.0192C282.252 51.6264 279.822 48.1971 277.134 45.8258C274.493 43.4962 271.727 42.3154 268.911 42.3154C266.096 42.3154 263.329 43.4962 260.689 45.8258C258.001 48.1971 255.57 51.6264 253.464 56.0192C249.036 65.2539 246.597 77.5696 246.597 90.6973C246.597 103.826 249.036 116.142 253.464 125.375C255.57 129.768 258.001 133.197 260.689 135.569C263.329 137.898 266.096 139.079 268.911 139.079Z" fill="white"/>
</mask>
<g mask="url(#mask4_179_991)">
<path opacity="0.3" d="M269.273 91.1472C269.273 100.57 265.18 108.051 260.201 107.86C255.299 107.672 251.381 100.096 251.381 90.9366C251.381 81.7764 255.299 74.2936 260.201 74.2215C265.18 74.1469 269.273 81.7248 269.273 91.1472Z" fill="url(#paint18_linear_179_991)"/>
</g>
<path d="M162.224 230.15L161.899 235.367C161.899 235.367 162.64 236.151 164.065 235.606L165.621 230.483L162.224 230.15Z" fill="url(#paint19_linear_179_991)"/>
<path d="M162.878 233.985C162.878 233.985 160.323 235.027 160.82 236.157C161.086 236.764 162.008 238.135 162.804 239.274C163.542 240.328 164.873 240.794 166.106 240.425C166.52 240.301 166.942 240.18 167.317 240.083C168.091 239.883 168.136 238.801 167.383 238.535C167.017 238.407 166.654 238.303 166.339 238.253C165.403 238.109 164.116 235.9 163.965 235.014C163.814 234.129 162.878 233.985 162.878 233.985Z" fill="url(#paint20_linear_179_991)"/>
<path d="M156.727 180.08C160.491 181.378 174.408 186.636 177.511 198.702C177.676 199.346 178.101 201.137 178.121 204.063C178.203 216.242 171.123 226.551 165.973 232.548C164.349 232.521 162.726 232.494 161.102 232.468C160.291 229.36 159.545 224.71 160.71 219.479C162.49 211.484 167.111 209.409 166.219 205.486C164.599 198.359 148.052 199.441 146.492 193.06C145.927 190.753 147.165 186.841 156.727 180.08Z" fill="url(#paint21_linear_179_991)"/>
<path d="M110.193 253.001L117.26 252.835C117.695 252.825 117.882 252.282 117.548 252.002C117.22 251.725 116.765 251.499 116.185 251.56C114.842 251.7 111.826 249.82 110.458 250.224C110.011 250.356 109.648 251.407 109.462 251.698C109.097 252.269 109.516 253.018 110.193 253.001Z" fill="url(#paint22_linear_179_991)"/>
<path d="M113.367 247.572L110.458 250.225C110.458 250.225 111.475 250.984 112.957 250.658L115.93 248.611L113.367 247.572Z" fill="url(#paint23_linear_179_991)"/>
<g opacity="0.3">
<path d="M169.217 211.5C171.168 206.23 173.507 199.732 170.833 196.044C168.128 192.31 162.202 195.463 156.255 192.456C154.05 191.341 151.783 189.344 149.897 185.73C146.559 189.177 146.107 191.489 146.491 193.058C148.051 199.438 164.598 198.358 166.218 205.483C167.11 209.407 162.489 211.482 160.709 219.477C159.708 223.975 160.119 228.038 160.77 231.066C161.348 228.254 162.248 225.3 163.623 222.32C165.755 217.7 167.162 217.051 169.217 211.5Z" fill="url(#paint24_linear_179_991)"/>
</g>
<path d="M158.883 178.557C156.594 189.074 151.716 205.133 140.537 221.897C132.261 234.307 123.167 243.15 116.035 249.057C115.528 249.209 114.663 249.396 113.603 249.266C112.814 249.169 112.19 248.931 111.77 248.731C112.26 245.766 113.296 241.386 115.753 236.655C120.248 227.998 124.253 228.276 128.768 220.635C132.074 215.041 133.149 209.097 135.297 197.213C136.956 188.035 136.957 185.842 139.23 183.21C143.828 177.89 152.461 177.828 158.883 178.557Z" fill="url(#paint25_linear_179_991)"/>
<g opacity="0.3">
<path d="M117.477 238.612C119.081 236.079 121.929 233.441 127.545 228.236C133.349 222.858 133.126 223.83 134.268 222.241C139.383 215.125 136.611 207.523 137.874 198.348C138.579 193.229 140.838 186.539 147.417 179.046C144.334 179.615 141.381 180.839 139.231 183.211C136.592 186.124 136.787 188.975 135.298 197.214C133.15 209.099 132.075 215.041 128.769 220.635C124.253 228.276 120.249 227.999 115.754 236.656C113.297 241.386 112.261 245.766 111.771 248.731C112.191 248.932 112.816 249.17 113.604 249.266C114.229 249.343 114.783 249.308 115.239 249.237C114.865 243.222 116.662 239.898 117.477 238.612Z" fill="url(#paint26_linear_179_991)"/>
</g>
<path d="M165.056 110.219C165.056 110.219 166.94 124.23 152.179 134.111L167.889 137.856C167.889 137.856 172.915 128.453 169.272 112.88L165.056 110.219Z" fill="url(#paint27_linear_179_991)"/>
<path d="M167.82 112.88C167.82 112.88 168.666 110.79 168.53 109.849C168.393 108.909 166.153 107.653 164.626 106.357C163.099 105.061 164.683 107.661 165.039 108.252C165.394 108.844 166.639 109.731 166.461 111.743L167.82 112.88Z" fill="url(#paint28_linear_179_991)"/>
<path d="M150.244 123.55C151.015 122.03 151.334 122.039 151.523 121.237C151.955 119.409 150.84 117.088 149.894 117.056C149.284 117.036 149.234 117.983 147.945 119.46C146.364 121.269 145.405 121.033 144.475 122.603C144.257 122.97 143.279 124.623 143.881 125.857C144.65 127.432 147.68 127.681 148.947 126.466C149.547 125.889 149.294 125.422 150.244 123.55Z" fill="url(#paint29_linear_179_991)"/>
<path d="M147.972 125.189C147.972 125.189 148.514 128.077 148.13 130.425C147.781 132.548 143.851 134.753 143.098 135.385C142.345 136.018 145.096 136.703 147.621 136.372C150.145 136.041 157.057 133.828 158.107 132.595C159.157 131.362 156.883 131.97 154.972 131.737C153.06 131.505 151.234 128.301 151.178 126.665C151.122 125.03 147.972 125.189 147.972 125.189Z" fill="url(#paint30_linear_179_991)"/>
<path d="M148.797 127.345C148.797 127.345 150.73 128.193 152.441 126.824C153.973 125.598 151.693 121.834 150.134 121.785C149.614 121.77 148.855 122.142 148.407 122.688C148.142 123.01 148.127 123.224 147.683 123.742C147.275 124.22 147.096 124.262 147.033 124.494C146.956 124.784 147.089 125.269 148.139 126.102C147.616 126.005 147.165 126.144 146.991 126.449C146.963 126.497 146.905 126.649 146.923 126.806C146.986 127.375 147.728 127.638 148.797 127.345Z" fill="url(#paint31_linear_179_991)"/>
<path d="M191.267 117.292C191.267 117.292 192.437 117.129 192.073 114.894C191.786 113.142 192.003 112.553 192.417 112.862C192.831 113.173 192.889 114.186 192.889 114.186C192.889 114.186 194.397 112.898 195.018 111.212C195.639 109.526 196.038 110.946 196.172 111.789C196.306 112.632 195.285 115.25 194.709 115.739C194.132 116.227 193.289 118.378 193.289 118.378L191.267 117.292Z" fill="url(#paint32_linear_179_991)"/>
<path d="M194.385 117.89C193.054 116.958 191.722 116.026 190.391 115.094C188.772 125.053 185.091 128.961 181.964 130.671C174.419 134.797 167.684 127.449 153.243 130.451C149.263 131.278 142.327 132.819 138.481 138.489C137.47 139.98 137.111 141.108 135.434 151.8C133.29 165.466 133.214 167.851 133.517 170.794C134.072 176.179 134.408 179.442 136.891 182.33C143.486 189.999 157.499 186.041 159.256 185.521C162.501 184.559 167.545 183.063 169.549 178.775C170.491 176.756 170.391 174.912 168.94 167.532C166.066 152.914 165.699 151.968 166.501 150.367C169.204 144.964 177.774 148.054 185.012 143.029C189.243 140.09 194.012 133.688 194.385 117.89Z" fill="url(#paint33_linear_179_991)"/>
<path opacity="0.3" d="M152.688 183.569C154.1 180.671 152.201 178 154.283 174.517C156.937 170.077 161.714 171.583 163.511 168.303C166.584 162.693 154.483 154.872 156.94 145.941C158.114 141.677 162.212 138.59 165.636 137.42C173.238 134.822 178.211 141.439 185.338 139.368C187.026 138.878 188.965 137.862 190.926 135.752C189.194 139.409 187.041 141.619 185.012 143.028C177.774 148.053 169.204 144.963 166.5 150.367C165.699 151.968 166.066 152.913 168.94 167.531C170.391 174.911 170.491 176.756 169.549 178.774C167.545 183.063 162.501 184.558 159.255 185.52C158.293 185.805 153.659 187.116 148.579 186.99C150.846 186.069 152.065 184.847 152.688 183.569Z" fill="url(#paint34_linear_179_991)"/>
<defs>
<linearGradient id="paint0_linear_179_991" x1="298.85" y1="229.714" x2="83.927" y2="207.554" gradientUnits="userSpaceOnUse">
<stop stop-color="#FFC444"/>
<stop offset="0.9964" stop-color="#F36F56"/>
</linearGradient>
<linearGradient id="paint1_linear_179_991" x1="293.648" y1="150.833" x2="211.524" y2="252.728" gradientUnits="userSpaceOnUse">
<stop stop-color="#AA80F9"/>
<stop offset="0.9964" stop-color="#6165D7"/>
</linearGradient>
<linearGradient id="paint2_linear_179_991" x1="166.165" y1="256.663" x2="150.094" y2="263.413" gradientUnits="userSpaceOnUse">
<stop stop-color="#40447E"/>
<stop offset="0.9964" stop-color="#3C3B6B"/>
</linearGradient>
<linearGradient id="paint3_linear_179_991" x1="144.705" y1="185.83" x2="127.263" y2="193.155" gradientUnits="userSpaceOnUse">
<stop stop-color="#40447E"/>
<stop offset="0.9964" stop-color="#3C3B6B"/>
</linearGradient>
<linearGradient id="paint4_linear_179_991" x1="69.5275" y1="189.795" x2="231.166" y2="189.795" gradientUnits="userSpaceOnUse">
<stop stop-color="#40447E"/>
<stop offset="0.9964" stop-color="#3C3B6B"/>
</linearGradient>
<linearGradient id="paint5_linear_179_991" x1="171.639" y1="150.617" x2="47.758" y2="353.135" gradientUnits="userSpaceOnUse">
<stop stop-color="#FFC444"/>
<stop offset="0.9964" stop-color="#F36F56"/>
</linearGradient>
<linearGradient id="paint6_linear_179_991" x1="69.5275" y1="249.568" x2="298.312" y2="249.568" gradientUnits="userSpaceOnUse">
<stop stop-color="#40447E"/>
<stop offset="0.9964" stop-color="#3C3B6B"/>
</linearGradient>
<linearGradient id="paint7_linear_179_991" x1="91.9636" y1="247.694" x2="259.593" y2="247.694" gradientUnits="userSpaceOnUse">
<stop stop-color="#40447E"/>
<stop offset="0.9964" stop-color="#3C3B6B"/>
</linearGradient>
<linearGradient id="paint8_linear_179_991" x1="194.107" y1="123.755" x2="153.774" y2="208.613" gradientUnits="userSpaceOnUse">
<stop stop-color="#FF9085"/>
<stop offset="1" stop-color="#FB6FBB"/>
</linearGradient>
<linearGradient id="paint9_linear_179_991" x1="130.82" y1="70.6433" x2="100.364" y2="129.118" gradientUnits="userSpaceOnUse">
<stop stop-color="#FF9085"/>
<stop offset="1" stop-color="#FB6FBB"/>
</linearGradient>
<linearGradient id="paint10_linear_179_991" x1="194.566" y1="101.154" x2="165.546" y2="135.38" gradientUnits="userSpaceOnUse">
<stop stop-color="#311944"/>
<stop offset="1" stop-color="#893976"/>
</linearGradient>
<linearGradient id="paint11_linear_179_991" x1="190.992" y1="98.123" x2="161.972" y2="132.348" gradientUnits="userSpaceOnUse">
<stop stop-color="#311944"/>
<stop offset="1" stop-color="#893976"/>
</linearGradient>
<linearGradient id="paint12_linear_179_991" x1="145.852" y1="76.8553" x2="169.277" y2="104.482" gradientUnits="userSpaceOnUse">
<stop offset="0.00359712" stop-color="#E38DDD"/>
<stop offset="1" stop-color="#9571F6"/>
</linearGradient>
<linearGradient id="paint13_linear_179_991" x1="207.967" y1="38.3528" x2="234.749" y2="186.49" gradientUnits="userSpaceOnUse">
<stop stop-color="#AA80F9"/>
<stop offset="0.9964" stop-color="#6165D7"/>
</linearGradient>
<linearGradient id="paint14_linear_179_991" x1="198.803" y1="38.6237" x2="225.919" y2="188.605" gradientUnits="userSpaceOnUse">
<stop stop-color="#AA80F9"/>
<stop offset="0.9964" stop-color="#6165D7"/>
</linearGradient>
<linearGradient id="paint15_linear_179_991" x1="242.237" y1="59.2377" x2="295.586" y2="122.155" gradientUnits="userSpaceOnUse">
<stop offset="0.00359712" stop-color="#E38DDD"/>
<stop offset="1" stop-color="#9571F6"/>
</linearGradient>
<linearGradient id="paint16_linear_179_991" x1="238.5" y1="89.9216" x2="289.93" y2="91.2319" gradientUnits="userSpaceOnUse">
<stop stop-color="#311944"/>
<stop offset="1" stop-color="#893976"/>
</linearGradient>
<linearGradient id="paint17_linear_179_991" x1="243.819" y1="43.0329" x2="261.305" y2="139.754" gradientUnits="userSpaceOnUse">
<stop stop-color="#FFC444"/>
<stop offset="0.9964" stop-color="#F36F56"/>
</linearGradient>
<linearGradient id="paint18_linear_179_991" x1="253.902" y1="55.493" x2="266.805" y2="126.859" gradientUnits="userSpaceOnUse">
<stop stop-color="#FFC444"/>
<stop offset="0.9964" stop-color="#F36F56"/>
</linearGradient>
<linearGradient id="paint19_linear_179_991" x1="161.527" y1="233.184" x2="165.953" y2="232.43" gradientUnits="userSpaceOnUse">
<stop offset="0.003597" stop-color="#F36F56"/>
<stop offset="1" stop-color="#FFC444"/>
</linearGradient>
<linearGradient id="paint20_linear_179_991" x1="160.756" y1="237.268" x2="167.923" y2="237.268" gradientUnits="userSpaceOnUse">
<stop stop-color="#B7C0CE"/>
<stop offset="1" stop-color="#EBEFF2"/>
</linearGradient>
<linearGradient id="paint21_linear_179_991" x1="175.662" y1="194.433" x2="137.6" y2="225.711" gradientUnits="userSpaceOnUse">
<stop stop-color="#AB316D"/>
<stop offset="1" stop-color="#792D3D"/>
</linearGradient>
<linearGradient id="paint22_linear_179_991" x1="109.327" y1="251.585" x2="117.719" y2="251.585" gradientUnits="userSpaceOnUse">
<stop stop-color="#B7C0CE"/>
<stop offset="1" stop-color="#EBEFF2"/>
</linearGradient>
<linearGradient id="paint23_linear_179_991" x1="110.577" y1="248.955" x2="115.851" y2="249.45" gradientUnits="userSpaceOnUse">
<stop offset="0.003597" stop-color="#F36F56"/>
<stop offset="1" stop-color="#FFC444"/>
</linearGradient>
<linearGradient id="paint24_linear_179_991" x1="193.143" y1="221.156" x2="146.111" y2="205.287" gradientUnits="userSpaceOnUse">
<stop stop-color="#AB316D"/>
<stop offset="1" stop-color="#792D3D"/>
</linearGradient>
<linearGradient id="paint25_linear_179_991" x1="144.363" y1="194.336" x2="117.225" y2="248.773" gradientUnits="userSpaceOnUse">
<stop stop-color="#AB316D"/>
<stop offset="1" stop-color="#792D3D"/>
</linearGradient>
<linearGradient id="paint26_linear_179_991" x1="140.966" y1="194.109" x2="114.392" y2="247.416" gradientUnits="userSpaceOnUse">
<stop stop-color="#AB316D"/>
<stop offset="1" stop-color="#792D3D"/>
</linearGradient>
<linearGradient id="paint27_linear_179_991" x1="161.192" y1="137.741" x2="162.203" y2="93.8953" gradientUnits="userSpaceOnUse">
<stop offset="0.003597" stop-color="#F36F56"/>
<stop offset="1" stop-color="#FFC444"/>
</linearGradient>
<linearGradient id="paint28_linear_179_991" x1="166.226" y1="108.616" x2="165.577" y2="118.082" gradientUnits="userSpaceOnUse">
<stop offset="0.003597" stop-color="#F36F56"/>
<stop offset="1" stop-color="#FFC444"/>
</linearGradient>
<linearGradient id="paint29_linear_179_991" x1="147.578" y1="125.233" x2="147.905" y2="114.058" gradientUnits="userSpaceOnUse">
<stop stop-color="#444B8C"/>
<stop offset="0.9964" stop-color="#26264F"/>
</linearGradient>
<linearGradient id="paint30_linear_179_991" x1="149.403" y1="114.872" x2="152.471" y2="160.756" gradientUnits="userSpaceOnUse">
<stop offset="0.003597" stop-color="#F36F56"/>
<stop offset="1" stop-color="#FFC444"/>
</linearGradient>
<linearGradient id="paint31_linear_179_991" x1="141.437" y1="119.992" x2="152.283" y2="126.643" gradientUnits="userSpaceOnUse">
<stop offset="0.003597" stop-color="#F36F56"/>
<stop offset="1" stop-color="#FFC444"/>
</linearGradient>
<linearGradient id="paint32_linear_179_991" x1="192.619" y1="117.439" x2="190.786" y2="123.297" gradientUnits="userSpaceOnUse">
<stop offset="0.003597" stop-color="#F36F56"/>
<stop offset="1" stop-color="#FFC444"/>
</linearGradient>
<linearGradient id="paint33_linear_179_991" x1="126.502" y1="198.933" x2="182.567" y2="117.009" gradientUnits="userSpaceOnUse">
<stop offset="0.003597" stop-color="#F36F56"/>
<stop offset="1" stop-color="#FFC444"/>
</linearGradient>
<linearGradient id="paint34_linear_179_991" x1="174.579" y1="136.205" x2="163.232" y2="195.37" gradientUnits="userSpaceOnUse">
<stop offset="0.003597" stop-color="#F36F56"/>
<stop offset="1" stop-color="#FFC444"/>
</linearGradient>
</defs>
</svg>
