<svg width="54" height="54" viewBox="0 0 54 54" fill="none" xmlns="http://www.w3.org/2000/svg">
<circle cx="27" cy="27" r="27" fill="white" fill-opacity="0.5"/>
<path d="M38.1004 18.0836C35.0817 15.0829 31.015 13.3729 26.7591 13.3145C22.5032 13.2562 18.3911 14.8541 15.2913 17.7709C12.1916 20.6876 10.3466 24.6949 10.1462 28.9465C9.94568 33.1981 11.4054 37.3612 14.217 40.5567L14.2293 40.5704C14.2518 40.5943 14.273 40.6189 14.2976 40.6422C14.3482 40.6996 14.4056 40.7645 14.4733 40.8322C14.7387 41.1143 15.0595 41.3386 15.4156 41.491C15.7716 41.6434 16.1553 41.7207 16.5427 41.718C16.93 41.7153 17.3126 41.6327 17.6665 41.4753C18.0204 41.318 18.338 41.0893 18.5995 40.8035C19.6055 39.7101 20.8274 38.8374 22.188 38.2404C23.5485 37.6434 25.0181 37.3352 26.5039 37.3352C27.9896 37.3352 29.4592 37.6434 30.8198 38.2404C32.1804 38.8374 33.4023 39.7101 34.4083 40.8035C34.6717 41.0908 34.9918 41.3202 35.3485 41.4773C35.7052 41.6344 36.0906 41.7157 36.4804 41.7161C36.8701 41.7165 37.2557 41.6359 37.6127 41.4795C37.9697 41.3232 38.2903 41.0943 38.5543 40.8076L38.7737 40.5683L38.786 40.5547C41.5563 37.4264 43.0282 33.3588 42.9011 29.1822C42.7741 25.0056 41.0577 21.0349 38.1024 18.0808L38.1004 18.0836ZM25.406 18.7501C25.406 18.46 25.5213 18.1818 25.7264 17.9767C25.9315 17.7716 26.2097 17.6563 26.4998 17.6563C26.7899 17.6563 27.0681 17.7716 27.2732 17.9767C27.4783 18.1818 27.5935 18.46 27.5935 18.7501V20.9376C27.5935 21.2277 27.4783 21.5059 27.2732 21.711C27.0681 21.9161 26.7899 22.0313 26.4998 22.0313C26.2097 22.0313 25.9315 21.9161 25.7264 21.711C25.5213 21.5059 25.406 21.2277 25.406 20.9376V18.7501ZM17.7498 30.7813H15.5623C15.2722 30.7813 14.994 30.6661 14.7889 30.461C14.5838 30.2559 14.4685 29.9777 14.4685 29.6876C14.4685 29.3975 14.5838 29.1193 14.7889 28.9142C14.994 28.7091 15.2722 28.5938 15.5623 28.5938H17.7498C18.0399 28.5938 18.3181 28.7091 18.5232 28.9142C18.7283 29.1193 18.8435 29.3975 18.8435 29.6876C18.8435 29.9777 18.7283 30.2559 18.5232 30.461C18.3181 30.6661 18.0399 30.7813 17.7498 30.7813ZM21.0857 24.2735C20.8806 24.4785 20.6025 24.5936 20.3126 24.5936C20.0226 24.5936 19.7445 24.4785 19.5394 24.2735L17.9925 22.7272C17.7873 22.5221 17.6721 22.2439 17.6721 21.9537C17.6721 21.6636 17.7873 21.3854 17.9925 21.1803C18.1976 20.9751 18.4758 20.8599 18.7659 20.8599C19.0561 20.8599 19.3343 20.9751 19.5394 21.1803L21.0857 22.7272C21.2907 22.9323 21.4058 23.2104 21.4058 23.5004C21.4058 23.7903 21.2907 24.0684 21.0857 24.2735ZM31.2918 25.8526L28.0447 31.0137C27.9119 31.1979 27.7503 31.3594 27.5662 31.4923C27.1217 31.8023 26.5729 31.9246 26.0389 31.8325C25.5048 31.7405 25.0286 31.4415 24.7136 31.0005C24.3986 30.5595 24.2703 30.0121 24.3564 29.4771C24.4425 28.942 24.7361 28.4625 25.1736 28.1427L30.3347 24.8956C30.4521 24.8138 30.5916 24.77 30.7346 24.77C30.8777 24.77 31.0172 24.8138 31.1345 24.8956C31.2819 25.002 31.3811 25.1623 31.4106 25.3417C31.4401 25.521 31.3973 25.7047 31.2918 25.8526ZM33.4601 24.2735C33.2533 24.47 32.978 24.5779 32.6928 24.5742C32.4076 24.5706 32.1351 24.4557 31.9334 24.254C31.7317 24.0523 31.6168 23.7798 31.6131 23.4946C31.6095 23.2094 31.7174 22.934 31.9138 22.7272L33.4601 21.1803C33.6653 20.9751 33.9435 20.8599 34.2336 20.8599C34.5237 20.8599 34.802 20.9751 35.0071 21.1803C35.2122 21.3854 35.3275 21.6636 35.3275 21.9537C35.3275 22.2439 35.2122 22.5221 35.0071 22.7272L33.4601 24.2735ZM37.4373 30.7813H35.2498C34.9597 30.7813 34.6815 30.6661 34.4764 30.461C34.2713 30.2559 34.156 29.9777 34.156 29.6876C34.156 29.3975 34.2713 29.1193 34.4764 28.9142C34.6815 28.7091 34.9597 28.5938 35.2498 28.5938H37.4373C37.7274 28.5938 38.0056 28.7091 38.2107 28.9142C38.4158 29.1193 38.531 29.3975 38.531 29.6876C38.531 29.9777 38.4158 30.2559 38.2107 30.461C38.0056 30.6661 37.7274 30.7813 37.4373 30.7813Z" fill="black"/>
</svg>
