<svg width="54" height="54" viewBox="0 0 54 54" fill="none" xmlns="http://www.w3.org/2000/svg">
<circle cx="27" cy="27" r="27" fill="white" fill-opacity="0.5"/>
<path d="M15.2222 17.25C13.445 17.25 12 18.7074 12 20.5V33.5C12 35.2926 13.445 36.75 15.2222 36.75H37.7778C39.555 36.75 41 35.2926 41 33.5V20.5C41 18.7074 39.555 17.25 37.7778 17.25H15.2222ZM25.6944 23.75H36.9722C37.4153 23.75 37.7778 24.1156 37.7778 24.5625C37.7778 25.0094 37.4153 25.375 36.9722 25.375H25.6944C25.2514 25.375 24.8889 25.0094 24.8889 24.5625C24.8889 24.1156 25.2514 23.75 25.6944 23.75ZM24.8889 29.4375C24.8889 28.9906 25.2514 28.625 25.6944 28.625H36.9722C37.4153 28.625 37.7778 28.9906 37.7778 29.4375C37.7778 29.8844 37.4153 30.25 36.9722 30.25H25.6944C25.2514 30.25 24.8889 29.8844 24.8889 29.4375ZM20.262 22.125V22.4449C20.5943 22.5059 21.0977 22.6074 21.3193 22.6684C21.858 22.8105 22.1752 23.3691 22.0342 23.9125C21.8932 24.4559 21.3394 24.7758 20.8007 24.6336C20.6094 24.5828 19.9247 24.4457 19.7082 24.4152C19.0939 24.3188 18.5905 24.4 18.2682 24.5473C17.951 24.6945 17.8705 24.8621 17.8554 24.9586C17.8252 25.1313 17.8554 25.1973 17.8604 25.2125C17.8755 25.2379 17.9108 25.3039 18.0417 25.3902C18.3488 25.6035 18.8321 25.7559 19.547 25.9691L19.5873 25.9793C20.1965 26.1672 21.0122 26.4109 21.6214 26.8629C21.9587 27.1117 22.2759 27.4418 22.4722 27.9039C22.6736 28.366 22.7139 28.8738 22.6233 29.3969C22.4571 30.3617 21.8227 31.0219 21.0323 31.3621C20.7856 31.4688 20.5288 31.5449 20.2569 31.5957V31.875C20.2569 32.4387 19.8038 32.8957 19.245 32.8957C18.6861 32.8957 18.233 32.4387 18.233 31.875V31.55C17.7547 31.4383 17.1304 31.225 16.7326 31.0879C16.647 31.0574 16.5715 31.032 16.5111 31.0117C15.9825 30.834 15.7005 30.2602 15.8717 29.727C16.0429 29.1938 16.6168 28.9094 17.1455 29.082C17.2462 29.1176 17.3519 29.1531 17.4677 29.1887C17.946 29.3512 18.4847 29.5391 18.7868 29.5898C19.4313 29.6914 19.9297 29.6254 20.2368 29.4934C20.5137 29.3766 20.6094 29.2242 20.6396 29.0465C20.6748 28.8434 20.6446 28.7469 20.6295 28.7063C20.6094 28.6605 20.5641 28.5945 20.4432 28.5031C20.1462 28.2848 19.6729 28.1223 18.9681 27.909L18.8573 27.8734C18.2682 27.6957 17.4979 27.4621 16.9139 27.0609C16.5816 26.8324 16.2493 26.5176 16.0429 26.0707C15.8314 25.6137 15.7811 25.116 15.8717 24.598C16.0328 23.6687 16.6873 23.0289 17.4375 22.6836C17.6892 22.5668 17.9561 22.4805 18.238 22.4246V22.1199C18.238 21.5562 18.6911 21.0992 19.25 21.0992C19.8089 21.0992 20.262 21.5562 20.262 22.1199V22.125Z" fill="black"/>
</svg>
