<svg width="30" height="30" viewBox="0 0 30 30" fill="none" xmlns="http://www.w3.org/2000/svg">
<circle cx="15" cy="15" r="15" fill="#151641"/>
<path d="M11.4998 6.66663H18.4998C21.1665 6.66663 23.3332 8.83329 23.3332 11.5V18.5C23.3332 19.7818 22.8239 21.0112 21.9175 21.9176C21.0111 22.8241 19.7817 23.3333 18.4998 23.3333H11.4998C8.83317 23.3333 6.6665 21.1666 6.6665 18.5V11.5C6.6665 10.2181 7.17573 8.9887 8.08215 8.08228C8.98858 7.17585 10.218 6.66663 11.4998 6.66663ZM11.3332 8.33329C10.5375 8.33329 9.77446 8.64936 9.21185 9.21197C8.64924 9.77458 8.33317 10.5376 8.33317 11.3333V18.6666C8.33317 20.325 9.67484 21.6666 11.3332 21.6666H18.6665C19.4622 21.6666 20.2252 21.3506 20.7878 20.7879C21.3504 20.2253 21.6665 19.4623 21.6665 18.6666V11.3333C21.6665 9.67496 20.3248 8.33329 18.6665 8.33329H11.3332ZM19.3748 9.58329C19.6511 9.58329 19.9161 9.69304 20.1114 9.88839C20.3068 10.0837 20.4165 10.3487 20.4165 10.625C20.4165 10.9012 20.3068 11.1662 20.1114 11.3615C19.9161 11.5569 19.6511 11.6666 19.3748 11.6666C19.0986 11.6666 18.8336 11.5569 18.6383 11.3615C18.4429 11.1662 18.3332 10.9012 18.3332 10.625C18.3332 10.3487 18.4429 10.0837 18.6383 9.88839C18.8336 9.69304 19.0986 9.58329 19.3748 9.58329ZM14.9998 10.8333C16.1049 10.8333 17.1647 11.2723 17.9461 12.0537C18.7275 12.8351 19.1665 13.8949 19.1665 15C19.1665 16.105 18.7275 17.1648 17.9461 17.9462C17.1647 18.7276 16.1049 19.1666 14.9998 19.1666C13.8948 19.1666 12.835 18.7276 12.0536 17.9462C11.2722 17.1648 10.8332 16.105 10.8332 15C10.8332 13.8949 11.2722 12.8351 12.0536 12.0537C12.835 11.2723 13.8948 10.8333 14.9998 10.8333ZM14.9998 12.5C14.3368 12.5 13.7009 12.7634 13.2321 13.2322C12.7632 13.701 12.4998 14.3369 12.4998 15C12.4998 15.663 12.7632 16.2989 13.2321 16.7677C13.7009 17.2366 14.3368 17.5 14.9998 17.5C15.6629 17.5 16.2988 17.2366 16.7676 16.7677C17.2364 16.2989 17.4998 15.663 17.4998 15C17.4998 14.3369 17.2364 13.701 16.7676 13.2322C16.2988 12.7634 15.6629 12.5 14.9998 12.5Z" fill="#E6E6E6"/>
</svg>
