<svg width="228" height="179" viewBox="0 0 228 179" fill="none" xmlns="http://www.w3.org/2000/svg">
<path d="M218 0H10C4.47715 0 0 4.47716 0 10V169C0 174.523 4.47716 179 10 179H218C223.523 179 228 174.523 228 169V10C228 4.47715 223.523 0 218 0Z" fill="white"/>
<path d="M179.428 79.6561C175.746 55.5543 160.649 25.9435 130.823 22.8445C130.823 22.8445 108.178 20.0901 85.8545 24.265C72.6056 26.7425 60.9885 34.1182 53.6374 44.7182C46.2864 55.3188 43.831 68.2444 46.8108 80.5675C48.7465 88.5713 50.054 96.855 49.6951 105.08C49.0703 119.394 49.4297 132.755 63.3213 141.291C75.7249 148.914 91.3345 155.636 106.227 156.813C116.347 157.613 127.697 156.319 137.451 153.684C187.161 140.255 183.11 103.758 179.428 79.6561Z" fill="#F4F7FA"/>
<path d="M108.459 113.459C115.228 117.182 124.551 115.922 129.835 108.417C132.795 104.214 134.675 98.2874 135.749 93.3091C142.425 62.3426 124.723 80.4371 125.276 61.4568C125.828 42.4765 125.192 29.8992 100.857 23.2931C100.857 23.2931 79.0407 16.687 86.1191 43.4854C87.416 48.3965 89.3551 53.2754 92.5183 57.2973C95.8426 61.5238 100.256 64.6937 104.374 68.0841C109.302 72.1413 105.872 78.8743 104.02 83.6373C101.718 89.5564 99.4563 95.5565 100.518 102.018C101.399 107.377 104.49 111.275 108.459 113.459Z" fill="url(#paint0_linear_179_1084)"/>
<g opacity="0.8">
<path d="M115.064 112.681C115.151 112.681 115.231 112.623 115.255 112.536C115.288 112.415 118.577 100.353 119.266 86.5183C119.67 78.3856 119.11 71.2387 117.601 65.2752C115.71 57.8002 112.314 52.1716 107.507 48.5457C107.42 48.4796 107.296 48.497 107.23 48.5848C107.163 48.6721 107.181 48.7966 107.269 48.8627C118.001 56.9587 119.501 73.7982 118.869 86.499C118.184 100.291 114.906 112.31 114.873 112.43C114.844 112.536 114.906 112.646 115.011 112.675C115.029 112.679 115.046 112.681 115.064 112.681Z" fill="white"/>
</g>
<path d="M124.4 130.834C125.325 130.704 126.175 130.065 126.886 128.719C129.84 123.132 124.32 114.672 124.202 108.804C124.083 102.904 125.377 97.1506 126.808 91.4756C128.285 85.6232 129.044 79.403 125.027 74.3524C121.565 69.9976 115.623 66.6791 110.222 69.9073C100.216 75.8858 100.48 65.8868 98.7506 59.1437C96.7599 51.3821 88.0656 42.365 79.4359 44.0238C71.6975 45.5108 68.5073 56.4756 68.5049 63.2747C68.5034 66.8248 69.8105 72.2459 72.535 74.7968C78.8058 80.6666 93.011 80.6266 87.5242 92.004C85.6744 95.8402 83.9356 99.9456 87.4456 103.445C91.0415 107.03 96.9862 107.344 101.481 109.141C106.594 111.184 110.054 115.38 113.153 119.748C114.658 121.873 120.276 131.414 124.4 130.834Z" fill="#BFC8D6"/>
<g opacity="0.8">
<path d="M124.938 129.059C124.956 129.058 124.975 129.054 124.994 129.047C125.097 129.01 125.15 128.896 125.113 128.793C125.068 128.67 120.575 116.329 113.757 102.255C109.751 93.9863 105.738 86.7458 101.83 80.7341C96.9378 73.2098 92.194 67.5971 87.7297 64.0509C87.6438 63.9829 87.5188 63.9968 87.4508 64.0827C87.3828 64.1686 87.3967 64.2936 87.4826 64.3616C97.5254 72.3384 107.119 89.4645 113.399 102.427C120.208 116.483 124.694 128.805 124.739 128.928C124.77 129.013 124.852 129.064 124.938 129.059Z" fill="white"/>
</g>
<path d="M110.175 32.5083L96.8269 143.459C96.6267 145.123 97.7735 146.614 99.3797 146.773L154.978 152.877C158.384 153.089 160.249 151.349 160.459 149.58L174.474 31.6211C174.683 29.8619 173.012 28.2688 169.592 28.2688L113.487 29.4504C111.862 29.4774 110.374 30.8534 110.175 32.5083Z" fill="#AABBCC"/>
<path d="M107.673 32.3172L94.2514 143.823C94.0502 145.494 95.2004 146.993 96.8129 147.154L154.453 152.893C156.26 153.073 157.916 151.765 158.127 149.987L172.221 31.4188C172.431 29.6505 171.104 28.2296 169.276 28.26L110.998 29.2433C109.367 29.2713 107.873 30.6541 107.673 32.3172Z" fill="#BFC8D6"/>
<path d="M108.767 38.4681L96.3265 141.856C96.1383 143.418 97.2162 144.816 98.7249 144.963L152.933 150.232C154.613 150.395 156.153 149.175 156.35 147.52L169.374 37.9905C169.57 36.3438 168.338 35.0116 166.641 35.03L111.876 35.6133C110.351 35.6287 108.954 36.9136 108.767 38.4681Z" fill="#EAEDF3"/>
<path d="M137.836 32.2409C137.765 32.8344 138.191 33.3096 138.788 33.3019C139.386 33.2942 139.928 32.8059 139.999 32.2115C140.071 31.6166 139.643 31.1418 139.045 31.1505C138.448 31.1587 137.907 31.647 137.836 32.2409Z" fill="white"/>
<path d="M118.139 107.868C129.236 87.3505 145.815 81.209 150.806 60.0629C153.504 48.6325 151.666 37.6923 148.57 28.6101L169.276 28.2607C171.103 28.2299 172.43 29.6513 172.22 31.4195L158.127 149.988C157.915 151.766 156.26 153.073 154.452 152.893L109.142 148.382C108.807 129.997 113.192 117.014 118.139 107.868Z" fill="white"/>
<path d="M126.789 83.2607L123.898 84.5822C123.438 84.7925 123.225 85.3281 123.422 85.7797L124.143 87.4269C123.43 87.906 122.768 88.4372 122.163 89.0171L120.724 87.9711C120.327 87.6826 119.764 87.7786 119.465 88.1848L117.595 90.7251C117.296 91.1314 117.371 91.6983 117.764 91.9921L119.182 93.0526C118.799 93.813 118.483 94.6062 118.234 95.422L116.471 95.2252C115.981 95.1707 115.532 95.5335 115.468 96.0367L115.062 99.1994C114.996 99.7074 115.342 100.169 115.834 100.23L117.593 100.447C117.63 101.304 117.746 102.167 117.935 103.027L116.282 103.747C115.82 103.948 115.6 104.5 115.792 104.981L116.999 108.015C117.194 108.504 117.732 108.739 118.202 108.539L119.878 107.821C120.35 108.586 120.879 109.302 121.465 109.96L120.36 111.465C120.049 111.889 120.131 112.502 120.543 112.836L123.148 114.945C123.569 115.286 124.166 115.215 124.481 114.785L125.609 113.248C126.403 113.681 127.233 114.045 128.09 114.333L127.878 116.296C127.818 116.845 128.203 117.358 128.737 117.443L132.112 117.976C132.656 118.062 133.144 117.681 133.2 117.125L133.403 115.127C134.304 115.101 135.21 114.99 136.112 114.797L136.943 116.698C137.174 117.226 137.773 117.487 138.282 117.281L141.478 115.987C141.992 115.779 142.215 115.181 141.977 114.653L141.11 112.732C141.885 112.233 142.605 111.671 143.26 111.052L144.964 112.326C145.433 112.676 146.079 112.6 146.405 112.153L148.448 109.363C148.775 108.917 148.655 108.275 148.181 107.931L146.444 106.668C146.834 105.849 147.151 104.996 147.388 104.119L149.498 104.379C150.071 104.45 150.572 104.058 150.616 103.506L150.889 100.066C150.932 99.5188 150.505 99.0242 149.936 98.961L147.836 98.7265C147.749 97.8383 147.577 96.951 147.327 96.0724L149.223 95.2614C149.733 95.0428 149.949 94.4643 149.705 93.9707L148.192 90.9104C147.952 90.4255 147.35 90.2108 146.847 90.4298L144.981 91.2433C144.452 90.5128 143.87 89.8369 143.237 89.2241L144.401 87.6387C144.714 87.2117 144.604 86.6211 144.155 86.321L141.378 84.4615C140.938 84.1672 140.332 84.2705 140.023 84.6917L138.876 86.2535C138.079 85.8916 137.255 85.5988 136.412 85.3768L136.602 83.4985C136.654 82.9924 136.27 82.5485 135.748 82.5075L132.506 82.2513C131.992 82.2108 131.532 82.5828 131.478 83.0831L131.279 84.9209C130.432 84.9908 129.587 85.1375 128.75 85.3551L127.999 83.6934C127.795 83.2418 127.253 83.0484 126.789 83.2607ZM136.323 108.749C131.316 110.838 125.582 108.394 123.502 103.423C121.471 98.5722 123.66 93.0294 128.401 90.9157C133.204 88.7744 138.964 90.8824 141.259 95.7554C143.612 100.751 141.398 106.631 136.323 108.749Z" fill="white"/>
<path d="M121.258 54.414L119.401 55.7205C119.105 55.929 119.017 56.3164 119.205 56.5861L119.89 57.5704C119.449 57.9954 119.048 58.448 118.692 58.9247L117.573 58.4485C117.264 58.3172 116.882 58.4663 116.719 58.7814L115.699 60.7567C115.535 61.0732 115.652 61.4384 115.96 61.5735L117.071 62.0598C116.889 62.6239 116.758 63.1999 116.676 63.7808L115.421 63.9241C115.071 63.9642 114.798 64.2754 114.81 64.6204L114.883 66.7877C114.895 67.136 115.189 67.3883 115.541 67.3507L116.795 67.2171C116.918 67.7796 117.096 68.334 117.325 68.8744L116.252 69.615C115.951 69.8224 115.86 70.2244 116.048 70.5129L117.234 72.3313C117.425 72.6242 117.826 72.6932 118.13 72.4843L119.215 71.7398C119.629 72.1697 120.077 72.5581 120.556 72.8987L119.958 74.0712C119.79 74.4012 119.915 74.7934 120.239 74.9469L122.277 75.9147C122.605 76.0706 123.009 75.9268 123.179 75.5924L123.785 74.3978C124.379 74.5546 124.99 74.6598 125.61 74.7109L125.682 76.0349C125.701 76.4049 126.022 76.6799 126.398 76.6481L128.762 76.4498C129.142 76.4179 129.433 76.0894 129.41 75.7169L129.328 74.3771C129.939 74.2149 130.543 73.9973 131.133 73.7267L131.905 74.8359C132.119 75.1428 132.553 75.2175 132.874 75.0014L134.891 73.6471C135.214 73.43 135.299 73.0054 135.082 72.6995L134.289 71.5859C134.757 71.1382 135.181 70.6596 135.554 70.1534L136.837 70.715C137.189 70.8694 137.614 70.7179 137.784 70.3768L138.849 68.2467C139.02 67.9065 138.87 67.509 138.517 67.3584L137.217 66.8055C137.391 66.2125 137.511 65.6094 137.575 65.003L139.014 64.8495C139.404 64.808 139.697 64.4775 139.666 64.1118L139.479 61.8369C139.449 61.4751 139.111 61.2179 138.723 61.2623L137.292 61.4259C137.137 60.8609 136.927 60.3084 136.664 59.7734L137.847 58.9623C138.165 58.7442 138.247 58.3356 138.031 58.0504L136.686 56.2797C136.473 55.9984 136.045 55.9473 135.731 56.1644L134.562 56.9711C134.126 56.5721 133.659 56.216 133.166 55.9082L133.779 54.6996C133.944 54.3744 133.806 54.0043 133.47 53.8731L131.387 53.0601C131.056 52.9313 130.656 53.0876 130.492 53.4095L129.884 54.6031C129.302 54.4825 128.707 54.4116 128.108 54.3894L128.031 53.1253C128.01 52.7846 127.699 52.5487 127.338 52.5974L125.087 52.9033C124.729 52.9521 124.455 53.2652 124.473 53.6039L124.54 54.8468C123.965 55.0185 123.399 55.2409 122.846 55.5092L122.143 54.5211C121.952 54.2523 121.556 54.2046 121.258 54.414ZM130.615 69.7385C127.434 71.9 123.227 71.2057 121.236 68.2568C119.285 65.3663 120.183 61.3569 123.226 59.2368C126.29 57.1024 130.452 57.6283 132.542 60.4773C134.674 63.3842 133.82 67.5616 130.615 69.7385Z" fill="white"/>
<path d="M162.289 44.311L152.908 139.992C152.729 141.813 151.096 143.163 149.272 143.002L91.908 137.932C90.2651 137.787 89.0932 136.271 89.2895 134.553L99.632 44.1315C99.8197 42.4925 101.284 41.1614 102.903 41.1614L159.342 41.1715C161.135 41.1715 162.459 42.5789 162.289 44.311Z" fill="url(#paint1_linear_179_1084)"/>
<path d="M161.456 44.3087L152.061 139.919C151.928 141.276 150.715 142.28 149.356 142.16L91.9995 137.133C90.7744 137.026 89.9016 135.899 90.0483 134.617L100.381 44.1331C100.52 42.9105 101.61 41.9199 102.818 41.9209L159.264 41.9696C160.599 41.9716 161.583 43.0185 161.456 44.3087Z" fill="url(#paint2_linear_179_1084)"/>
<path d="M161.457 44.3087L160.835 50.6393L99.6958 50.1322L100.381 44.134C100.52 42.9114 101.611 41.9209 102.818 41.9219L159.265 41.9706C160.6 41.9716 161.583 43.0186 161.457 44.3087Z" fill="url(#paint3_linear_179_1084)"/>
<path d="M105.887 45.6737C105.793 46.5084 105.048 47.1814 104.224 47.1771C103.401 47.1723 102.812 46.4939 102.906 45.6611C103 44.8289 103.742 44.1568 104.565 44.1592C105.388 44.1611 105.981 44.8395 105.887 45.6737Z" fill="white"/>
<path d="M111.508 45.6975C111.415 46.5365 110.663 47.213 109.831 47.2082C109 47.2033 108.403 46.5211 108.497 45.6845C108.591 44.8484 109.339 44.1724 110.169 44.1748C111.001 44.1777 111.601 44.859 111.508 45.6975Z" fill="white"/>
<path d="M117.185 45.7214C117.092 46.5647 116.335 47.2445 115.494 47.2397C114.655 47.2349 114.051 46.5493 114.144 45.7083C114.237 44.8678 114.991 44.1885 115.83 44.1909C116.67 44.1938 117.277 44.8785 117.185 45.7214Z" fill="white"/>
<path d="M135.977 65.0027L101.524 64.277C101.121 64.2683 100.756 64.5945 100.71 65.0056L97.9084 89.6936C97.8611 90.11 98.1506 90.4622 98.5549 90.4805L133.157 92.0326C133.587 92.0519 133.973 91.719 134.018 91.2887L136.673 65.7872C136.718 65.3631 136.406 65.0118 135.977 65.0027Z" fill="white"/>
<path d="M135.767 57.5379L101.313 57.0376L101.766 53.0562L136.197 53.4325L135.767 57.5379Z" fill="white"/>
<path d="M114.652 60.6537L100.93 60.4129L101.14 58.5708L114.857 58.7894L114.652 60.6537Z" fill="white"/>
<path d="M155.016 67.3467L140.265 67.0114L140.462 65.0969L155.209 65.4072L155.016 67.3467Z" fill="white"/>
<path d="M154.63 71.2308L139.868 70.8458L140.066 68.9275L154.823 69.2879L154.63 71.2308Z" fill="white"/>
<path d="M154.244 75.1228L139.472 74.6881L139.67 72.7659L154.437 73.176L154.244 75.1228Z" fill="white"/>
<path d="M153.5 82.6052L138.71 82.0735L138.91 80.144L153.695 80.6506L153.5 82.6052Z" fill="white"/>
<path d="M153.112 86.5201L138.312 85.9382L138.511 84.0049L153.306 84.5617L153.112 86.5201Z" fill="white"/>
<path d="M152.722 90.4432L137.913 89.8107L138.113 87.8735L152.918 88.481L152.722 90.4432Z" fill="white"/>
<path d="M152.153 96.1784C152.126 96.4505 151.88 96.6599 151.604 96.6469L97.5677 94.0463C97.3168 94.0343 97.1373 93.8147 97.1667 93.5556C97.1962 93.297 97.4234 93.0968 97.6743 93.1084L151.702 95.6626C151.978 95.6757 152.18 95.9068 152.153 96.1784Z" fill="white"/>
<path d="M148.349 134.462C148.322 134.739 148.074 134.945 147.796 134.923L93.432 130.493C93.1797 130.472 92.9992 130.242 93.0291 129.978C93.059 129.714 93.2877 129.518 93.5401 129.538L147.895 133.919C148.174 133.941 148.377 134.184 148.349 134.462Z" fill="white"/>
<path d="M156.171 55.7405L144.688 55.5948L144.899 53.5273L156.378 53.6523L156.171 55.7405Z" fill="white"/>
<path d="M155.556 55.2502L146.852 55.1431L146.965 54.0281L155.668 54.1265L155.556 55.2502Z" fill="url(#paint4_linear_179_1084)"/>
<path d="M119.081 128.804L93.6953 126.821L97.1315 96.5413L122.396 97.8145L119.081 128.804Z" fill="white"/>
<path d="M148.683 131.117L121.958 129.029L125.258 97.9587L151.843 99.2991L148.683 131.117Z" fill="white"/>
<path opacity="0.5" d="M153.09 138.129L152.907 139.992C152.729 141.814 151.096 143.164 149.271 143.002L91.9075 137.933C90.2646 137.788 89.0927 136.272 89.2891 134.553L99.6315 44.1323C99.8192 42.4933 101.284 41.1621 102.902 41.1621L109.804 41.1636C109.757 41.4188 109.713 41.6731 109.669 41.9283C109.528 42.762 109.401 43.5982 109.292 44.4372C109.182 45.2704 109.087 46.1061 109.013 46.9417C108.914 48.0312 108.847 49.1216 108.817 50.2081C108.753 52.3609 108.833 54.4983 109.091 56.5942C110.631 69.1136 127.621 71.1854 126.534 85.9415C125.972 93.5753 122.037 100.907 122.122 108.647C122.293 124.017 138.017 125.388 148.062 133.046C149.646 134.254 151.078 135.638 152.332 137.163C152.594 137.48 152.848 137.801 153.09 138.129Z" fill="white"/>
<path d="M101.922 88.571C101.922 89.8973 100.945 91.0784 99.8508 91.0784H61.8796C60.7854 91.0784 59.8701 89.8973 59.8701 88.571V65.357C59.8701 64.0306 60.7854 63.0439 61.8796 63.0439H99.8508C100.945 63.0439 101.922 64.0306 101.922 65.357V88.571Z" fill="url(#paint5_linear_179_1084)"/>
<path d="M102.973 65.3572V88.5707C102.973 89.4604 102.581 90.2884 101.989 90.7173C101.698 90.9286 101.367 91.0777 101.007 91.0777H63.0356C61.9409 91.0777 60.9219 89.8961 60.9219 88.5707V65.3572C60.9219 64.0299 61.9414 63.0432 63.0356 63.0432H101.007C102.101 63.0437 102.973 64.0299 102.973 65.3572Z" fill="url(#paint6_linear_179_1084)"/>
<path d="M96.9885 86.727L89.6258 76.3595C89.5515 76.2552 89.4261 76.1925 89.2915 76.192C89.1569 76.1916 89.0309 76.2548 88.9571 76.359L84.7234 82.319L77.7887 72.5541C77.7144 72.4499 77.5889 72.3872 77.4543 72.3867C77.3197 72.3867 77.1943 72.4494 77.12 72.5537L67.0535 86.7265C66.9725 86.8408 66.9652 87.0343 67.0352 87.1549C67.1051 87.2756 67.2407 87.3981 67.3879 87.3981H81.1829H88.2624H96.6536C96.8008 87.3981 96.9364 87.2756 97.0063 87.1549C97.0768 87.0348 97.0695 86.8413 96.9885 86.727Z" fill="white"/>
<path d="M88.4018 73.0258C90.1541 73.0258 91.5746 71.6052 91.5746 69.853C91.5746 68.1007 90.1541 66.6802 88.4018 66.6802C86.6495 66.6802 85.229 68.1007 85.229 69.853C85.229 71.6052 86.6495 73.0258 88.4018 73.0258Z" fill="white"/>
<g opacity="0.3">
<path d="M101.996 90.7175C101.705 90.9289 101.367 91.0779 101.007 91.0779H63.0356C61.9409 91.0779 60.9219 89.8963 60.9219 88.571V65.3574C60.9219 64.0301 61.9414 63.0435 63.0356 63.0435H63.4187C64.1255 64.2699 65.0003 65.9263 66.0868 67.394C76.0467 80.8455 91.7919 76.9649 100.889 89.1403C101.299 89.6903 101.666 90.209 101.996 90.7175Z" fill="url(#paint7_linear_179_1084)"/>
</g>
<path d="M60.9178 86.3981V84.0924C60.9178 84.0924 61.2493 83.6002 61.4235 82.3815C61.5977 81.1628 61.2812 81.6462 61.1263 82.1528C61.0829 82.2942 60.9931 82.4138 60.8865 82.5137C60.6177 82.7636 60.1768 82.6001 60.1246 82.2368L59.9066 80.7097C59.9066 80.7097 59.0212 81.6148 59.662 83.8796C59.8627 84.5884 59.662 86.2988 59.662 86.2988L60.9178 86.3981Z" fill="url(#paint8_linear_179_1084)"/>
<path d="M101.299 88.2333L101.88 85.9883C101.88 85.9883 101.321 85.1271 101.589 84.2475C101.858 83.368 101.696 83.6811 101.913 84.2475C102.129 84.814 102.556 83.8548 102.889 82.9815C103.222 82.1082 103.394 83.451 103.312 84.2475C103.231 85.0441 103.201 85.5184 102.725 86.0998C102.249 86.6812 102.344 88.7486 102.344 88.7486L101.299 88.2333Z" fill="url(#paint9_linear_179_1084)"/>
<path d="M68.3335 150.041C68.3151 149.546 67.1229 149.646 66.3418 149.72C65.5606 149.795 65.2166 150.109 65.0946 150.402C64.9725 150.695 65.0642 151.417 65.786 151.114C66.378 150.866 68.3499 150.478 68.3335 150.041Z" fill="#26264F"/>
<path d="M66.8965 148.125L66.3407 150.041C66.3407 150.041 65.7849 150.423 65.6021 150.233L65.809 148.024L66.8965 148.125Z" fill="url(#paint10_linear_179_1084)"/>
<path d="M70.8221 146.99L68.9824 147.793L69.2912 148.724L71.1338 148.245L70.8221 146.99Z" fill="url(#paint11_linear_179_1084)"/>
<path d="M70.9282 150.604C70.9282 150.604 69.7022 150.921 69.1599 150.197C68.8111 149.731 68.5211 148.94 68.358 148.434C68.2697 148.16 68.4087 147.865 68.6765 147.758C69.0654 147.603 69.5946 147.436 69.82 147.563C70.1973 147.775 69.8436 149.185 70.0086 149.553C70.1736 149.92 70.975 150.156 70.9282 150.604Z" fill="#26264F"/>
<path d="M73.7868 118.306C73.5093 122.752 72.8971 127.902 71.6783 133.547C70.4079 139.431 68.7569 144.56 67.1001 148.847C66.9404 148.924 66.6552 149.035 66.2847 149.045C65.8509 149.058 65.519 148.926 65.353 148.847C65.0519 146.556 64.8971 144.621 64.8107 143.185C64.583 139.391 64.4797 137.448 64.9965 135.191C65.4813 133.072 65.8707 133.238 66.3768 130.896C66.827 128.814 66.8366 127.212 66.8371 124.868C66.8376 123.258 66.7638 121.083 66.4531 118.502C68.8983 118.437 71.3425 118.372 73.7868 118.306Z" fill="url(#paint12_linear_179_1084)"/>
<path opacity="0.3" d="M66.8589 147.281C67.3462 145.712 66.3856 144.995 66.4976 143.004C66.6341 140.571 68.1322 140.498 68.606 137.763C68.9867 135.565 68.0603 135.375 68.3049 132.703C68.565 129.863 69.6839 129.287 69.4494 127.583C69.3191 126.635 68.7662 125.342 66.8285 123.934C66.8025 122.452 66.7084 120.616 66.4537 118.502C68.8979 118.436 71.3421 118.371 73.7869 118.306C73.5094 122.751 72.8972 127.901 71.6784 133.546C70.4081 139.43 68.757 144.559 67.1002 148.847C66.9405 148.923 66.6553 149.034 66.2848 149.044C66.0879 149.05 65.9162 149.025 65.7671 148.989C66.2293 148.542 66.6418 147.981 66.8589 147.281Z" fill="url(#paint13_linear_179_1084)"/>
<path d="M79.7505 117.523C79.8393 118.595 80.014 120.217 80.3893 122.165C81.2351 126.557 82.2054 127.964 82.4616 130.836C82.7602 134.185 81.8455 136.822 81.4976 137.824C79.1233 144.669 72.6031 147.855 70.8777 148.635C70.6828 148.004 70.4879 147.372 70.2935 146.74C70.7277 146.16 71.3704 145.225 71.9768 143.987C73.0117 141.874 73.0812 140.629 73.7876 138.548C75.0613 134.793 76.0292 135.325 76.2617 133.413C76.6303 130.384 74.1856 129.16 71.9802 123.368C71.3482 121.708 70.9791 120.311 70.7755 119.453C73.7668 118.808 76.7587 118.166 79.7505 117.523Z" fill="url(#paint14_linear_179_1084)"/>
<path d="M61.3175 85.4761C60.6951 85.3758 60.0727 85.2754 59.4503 85.175C58.6687 86.2741 56.417 89.749 56.8599 94.3914C56.9651 95.4919 57.4191 99.1424 60.505 102.047C62.7148 104.126 65.1716 104.78 66.2972 105.005C66.2991 110.413 66.1968 113.822 66.0111 115.863C65.9889 116.109 65.7969 118.173 66.0762 120.836C66.1611 121.648 66.206 122.058 66.317 122.282C67.8575 125.39 76.6884 122.927 79.0738 121.896C79.6937 121.627 80.3239 121.255 80.5936 120.595C80.94 119.747 80.608 118.978 80.4729 118.306C80.142 116.655 81.1233 115.409 83.0909 112.206C83.9232 110.852 85.1313 108.819 86.5425 106.18C88.1762 106.656 92.0259 107.51 95.7946 105.712C101.332 103.07 104.492 95.7539 102.882 87.8248C102.32 87.6642 101.757 87.5035 101.195 87.3428C100.823 88.8815 100.106 90.9532 98.6359 93.0428C97.7443 94.3108 97.0017 95.3665 95.7135 95.9565C93.6905 96.8834 91.8942 95.9425 89.2681 95.2941C85.1298 94.2727 81.67 94.6538 77.4666 95.117C72.8749 95.6232 71.6161 96.5664 68.2585 95.9319C66.7652 95.6502 64.8956 95.2724 63.3652 93.7883C60.3545 90.8693 61.1926 86.1275 61.3175 85.4761Z" fill="url(#paint15_linear_179_1084)"/>
<path d="M78.4745 91.5181C78.4745 91.5181 78.75 92.6201 78.3621 93.1141C77.9742 93.6082 76.6792 95.5014 76.2575 95.5941C76.0172 95.6467 75.4156 95.7378 74.9418 95.8063C74.6923 95.8425 74.6397 96.1856 74.8708 96.2859C75.3417 96.4905 76.1721 96.696 77.5983 96.6806C79.6595 96.6584 81.3177 95.8739 82.0405 95.4676C82.1433 95.4097 82.0945 95.2544 81.9773 95.2631L81.0495 95.333C80.2548 95.3929 79.602 94.7155 79.6903 93.9237L79.7478 93.4079L78.4745 91.5181Z" fill="url(#paint16_linear_179_1084)"/>
<path d="M79.3259 93.7372C79.4533 93.6672 80.4897 93.5413 80.6325 92.984C80.8264 92.2275 80.1466 91.3069 80.0617 91.1588C79.7071 90.5388 79.6178 90.4549 79.4528 90.3497L79.2241 90.2156C79.2241 90.2156 79.2111 90.2107 79.1971 90.2059C79.0509 90.1577 78.5569 90.1538 78.4575 90.1774C78.1395 90.2527 77.8288 91.5626 77.9673 93.4009C77.9557 93.4713 77.9446 93.5423 77.9335 93.6137C77.906 93.7999 79.3351 93.8028 79.3259 93.7372Z" fill="url(#paint17_linear_179_1084)"/>
<path d="M80.3 90.0989C80.3449 90.3237 79.75 90.7709 79.4957 90.9639C79.4648 90.9876 79.3756 91.0667 79.2945 91.1941C79.283 91.2129 79.2723 91.2341 79.2637 91.2621C79.1469 91.6245 79.7278 92.0341 79.6212 92.1976C79.544 92.3163 79.1522 92.1687 79.1083 92.2705C79.0668 92.3665 79.3939 92.5556 79.3471 92.67C79.3119 92.7564 79.1112 92.6825 78.9891 92.8171C78.9283 92.8837 78.9476 92.9354 78.8859 93.137C78.8511 93.2509 78.8014 93.3759 78.7624 93.4458C78.5727 93.785 78.0174 93.9201 77.9069 93.7884C77.876 93.7517 77.9011 93.7199 77.8678 93.5954C77.8678 93.5954 77.837 93.4796 77.753 93.3474C77.6333 93.1583 77.3516 93.027 77.0655 92.8311C76.5362 92.4678 76.3876 92.1518 76.3427 92.0447C76.3379 92.0326 76.3331 92.0215 76.3292 92.0114C76.3215 91.9931 76.3152 91.9752 76.3094 91.9569C76.1975 91.5921 76.6612 90.9581 76.6612 90.9581C77.0331 90.4578 77.5026 90.1225 77.878 89.9088C78.5645 89.7737 79.1232 89.7906 79.5107 89.8335C79.8257 89.8687 80.2643 89.9208 80.3 90.0989Z" fill="#26264F"/>
<path d="M80.5131 91.9909C80.5131 91.9909 80.0741 92.5178 79.4946 91.8853L79.2085 91.9697C79.2085 91.9697 79.9081 93.5093 80.0581 93.5093C80.2077 93.5093 80.6448 93.4099 80.6448 93.4099C80.8084 93.3414 80.901 93.1658 80.8634 92.9921C80.7944 92.6756 80.6144 92.2138 80.5131 91.9909Z" fill="#26264F"/>
<path d="M79.3563 92.0682C79.212 91.8791 78.9708 92.0653 78.9747 92.3138C78.979 92.5623 79.2255 92.8151 79.4576 92.7606C79.6907 92.7065 79.5503 92.3225 79.3563 92.0682Z" fill="url(#paint18_linear_179_1084)"/>
<path opacity="0.3" d="M68.6667 121.378C71.6586 122.432 75.145 120.891 76.0159 118.788C76.6595 117.233 75.2839 115.75 76.2566 114.149C77.1931 112.608 78.8847 113.299 80.0518 111.74C81.3236 110.041 79.827 108.536 80.9555 106.258C81.8046 104.544 83.8373 103.002 85.8348 103.005C88.2091 103.009 89.0959 105.194 91.1358 104.752C92.2016 104.521 92.1765 103.877 93.6659 102.824C96.2501 100.997 97.9832 101.763 100.111 100.475C100.737 100.097 101.435 99.5166 102.084 98.5845C100.812 101.814 98.6128 104.369 95.7951 105.713C92.0265 107.511 88.1768 106.657 86.5431 106.181C85.1318 108.82 83.9237 110.853 83.0914 112.207C81.1234 115.41 80.142 116.656 80.4735 118.307C80.6081 118.979 80.94 119.748 80.5941 120.596C80.3244 121.256 79.6948 121.629 79.0743 121.896C76.6889 122.928 67.8581 125.391 66.3175 122.282C66.2066 122.059 66.1617 121.648 66.0768 120.837C66.0237 120.331 65.988 119.848 65.9644 119.394C66.5795 120.182 67.4489 120.949 68.6667 121.378Z" fill="url(#paint19_linear_179_1084)"/>
<path d="M142.69 144.383C143.006 145.116 143.377 145.811 143.8 146.463C143.739 146.523 143.678 146.584 143.62 146.65C142.477 147.955 142.405 149.925 143.487 151.041C144.579 152.167 146.402 151.965 147.531 150.603C147.589 150.532 147.643 150.459 147.695 150.385C148.354 150.818 149.049 151.189 149.774 151.496C149.747 151.584 149.721 151.673 149.7 151.764C149.297 153.524 150.216 155.215 151.76 155.507C153.303 155.799 154.841 154.574 155.189 152.804C155.207 152.714 155.218 152.625 155.229 152.536C156.015 152.517 156.807 152.427 157.598 152.265C157.616 152.351 157.635 152.437 157.66 152.523C158.143 154.189 159.737 155.036 161.2 154.396C162.648 153.763 163.385 151.923 162.867 150.307C162.84 150.224 162.809 150.145 162.777 150.066C163.445 149.612 164.069 149.109 164.646 148.562C164.7 148.62 163.824 148.895 163.883 148.95C165.033 150.027 167.655 149.62 168.563 148.328C169.456 147.057 169.243 145.208 168.111 144.188C168.052 144.135 167.991 144.088 167.929 144.041C168.267 143.336 168.552 142.609 168.781 141.866C168.851 141.886 168.923 141.905 168.995 141.919C170.393 142.187 171.66 141.177 171.822 139.691C171.982 138.231 171.014 136.857 169.662 136.597C169.593 136.584 169.524 136.576 169.456 136.569C169.42 135.838 169.33 135.109 169.186 134.386C169.252 134.367 169.317 134.348 169.381 134.324C170.62 133.857 171.193 132.427 170.678 131.144C170.17 129.879 168.788 129.217 167.575 129.652C167.511 129.674 167.451 129.701 167.391 129.728C167.031 129.132 166.633 128.571 166.2 128.052C166.246 128.006 166.29 127.959 166.332 127.909C167.141 126.933 166.973 125.478 165.976 124.651C164.987 123.831 163.533 123.923 162.71 124.862C162.666 124.912 162.627 124.963 162.589 125.016C162.015 124.687 161.418 124.402 160.803 124.164C160.821 124.102 160.838 124.04 160.85 123.976C161.089 122.764 160.345 121.573 157.564 121.315C156.284 121.197 156.546 121.886 156.269 123.092C156.255 123.154 156.245 123.216 156.236 123.279C155.577 123.269 154.91 123.311 154.239 123.403C154.225 123.341 154.21 123.279 154.191 123.218C153.815 122.046 152.915 120.943 150.012 121.8C148.739 122.176 149.248 123.483 149.595 124.684C149.614 124.747 149.636 124.807 149.659 124.867C149.033 125.192 148.435 125.56 147.867 125.969C147.823 125.922 147.779 125.875 147.73 125.831C146.784 124.979 145.232 125.077 144.243 126.057C143.238 127.051 143.182 128.585 144.139 129.477C144.189 129.524 144.242 129.566 144.296 129.608C143.871 130.217 143.489 130.857 143.153 131.526C143.085 131.506 143.017 131.488 142.945 131.475C141.584 131.214 140.12 132.126 139.669 133.536C139.209 134.972 139.971 136.373 141.378 136.642C141.45 136.656 141.523 136.664 141.595 136.671C141.503 137.436 141.469 138.213 141.495 138.997C141.419 139.018 141.344 139.039 141.268 139.066C139.797 139.593 138.84 141.224 139.147 142.729C139.46 144.258 140.951 145.052 142.46 144.482C142.54 144.452 142.615 144.418 142.69 144.383ZM146.632 139.979C145.352 134.838 148.358 129.548 153.134 127.952C157.758 126.407 162.697 128.793 164.376 133.46C166.151 138.39 163.726 144.192 158.708 146.224C153.507 148.33 147.988 145.43 146.632 139.979Z" fill="url(#paint20_linear_179_1084)"/>
<path d="M141.38 136.641C139.973 136.372 139.211 134.97 139.671 133.535C140.122 132.125 141.586 131.212 142.947 131.473C143.018 131.487 143.087 131.505 143.155 131.525C143.491 130.857 143.873 130.216 144.298 129.607C144.244 129.565 144.191 129.523 144.141 129.476C143.184 128.585 142.273 126.607 143.378 125.7C145.431 124.015 146.786 124.978 147.732 125.83C147.781 125.874 147.825 125.921 147.869 125.968C148.436 125.559 149.035 125.191 149.661 124.866C149.637 124.806 149.615 124.746 149.597 124.683C149.407 124.027 149.547 123.347 149.916 122.802C150.572 124.645 151.226 126.536 151.872 128.477C147.853 130.498 145.469 135.303 146.632 139.979C147.667 144.139 151.156 146.828 155.121 146.898C155.207 147.39 155.291 147.887 155.391 148.38C155.667 149.734 156.022 151.086 156.382 152.456C155.997 152.499 155.613 152.526 155.231 152.535C155.22 152.624 155.208 152.713 155.19 152.803C154.843 154.573 153.573 156.021 150.75 155.606C149.186 155.375 149.298 153.524 149.702 151.763C149.722 151.671 149.748 151.583 149.775 151.495C149.05 151.188 148.355 150.816 147.696 150.384C147.644 150.458 147.59 150.531 147.532 150.602C146.403 151.964 143.444 152.331 142.355 151.202C141.276 150.084 142.477 147.954 143.62 146.65C143.678 146.584 143.739 146.522 143.8 146.462C143.377 145.81 143.006 145.115 142.69 144.383C142.615 144.418 142.54 144.452 142.462 144.482C140.953 145.051 139.461 144.258 139.149 142.729C138.841 141.224 139.799 139.592 141.269 139.066C141.345 139.039 141.421 139.017 141.496 138.997C141.47 138.213 141.504 137.436 141.596 136.671C141.525 136.663 141.453 136.655 141.38 136.641Z" fill="url(#paint21_linear_179_1084)"/>
<path d="M168.36 136.613C168.29 136.6 168.222 136.592 168.153 136.585C168.123 135.853 168.039 135.123 167.9 134.398C167.966 134.38 168.031 134.361 168.096 134.337C169.343 133.869 169.929 132.436 169.423 131.151C168.924 129.884 167.543 129.221 166.321 129.657C166.257 129.679 166.196 129.706 166.136 129.733C165.779 129.135 165.384 128.574 164.955 128.054C165 128.008 165.045 127.961 165.088 127.91C165.907 126.933 165.751 125.475 164.757 124.647C163.771 123.826 162.311 123.917 161.477 124.858C161.433 124.908 161.394 124.96 161.355 125.012C160.782 124.682 160.185 124.397 159.57 124.159C159.588 124.097 159.606 124.035 159.619 123.971C159.867 122.757 159.055 121.591 157.807 121.35C156.558 121.108 155.317 121.877 155.029 123.085C155.015 123.147 155.004 123.209 154.995 123.271C154.334 123.262 153.665 123.304 152.99 123.396C152.977 123.334 152.962 123.272 152.943 123.211C152.576 122.037 151.27 121.411 150.014 121.8C148.746 122.193 147.98 123.475 148.32 124.679C148.338 124.742 148.36 124.802 148.383 124.862C147.752 125.187 147.149 125.556 146.576 125.966C146.533 125.918 146.488 125.872 146.44 125.828C145.498 124.975 143.94 125.072 142.939 126.054C141.922 127.05 141.853 128.587 142.806 129.48C142.856 129.527 142.909 129.569 142.963 129.611C142.531 130.221 142.142 130.863 141.8 131.532C141.732 131.513 141.663 131.494 141.592 131.481C140.228 131.219 138.752 132.134 138.286 133.546C137.813 134.985 138.566 136.389 139.976 136.658C140.048 136.672 140.121 136.68 140.194 136.688C140.095 137.454 140.054 138.233 140.074 139.018C139.998 139.038 139.922 139.06 139.846 139.088C138.365 139.615 137.391 141.251 137.687 142.758C137.987 144.291 139.478 145.085 140.998 144.514C141.076 144.485 141.152 144.451 141.227 144.416C141.538 145.15 141.905 145.847 142.324 146.5C142.263 146.56 142.201 146.622 142.142 146.688C140.984 147.996 140.895 149.97 141.972 151.088C143.059 152.216 144.891 152.015 146.035 150.649C146.094 150.578 146.149 150.504 146.202 150.431C146.86 150.864 147.554 151.236 148.279 151.544C148.251 151.632 148.225 151.721 148.203 151.812C147.784 153.577 148.692 155.271 150.239 155.564C151.786 155.856 153.34 154.628 153.703 152.854C153.721 152.764 153.734 152.675 153.746 152.586C154.535 152.567 155.331 152.476 156.126 152.314C156.144 152.401 156.162 152.487 156.186 152.573C156.657 154.242 158.25 155.091 159.724 154.45C161.183 153.814 161.937 151.971 161.43 150.351C161.404 150.268 161.374 150.188 161.342 150.109C162.016 149.654 162.647 149.15 163.231 148.601C163.284 148.66 163.338 148.718 163.397 148.773C164.544 149.849 166.241 149.662 167.163 148.367C168.07 147.093 167.871 145.241 166.743 144.219C166.684 144.166 166.623 144.117 166.562 144.071C166.907 143.365 167.198 142.636 167.434 141.892C167.505 141.912 167.576 141.931 167.649 141.945C169.049 142.213 170.329 141.202 170.504 139.712C170.675 138.25 169.714 136.873 168.36 136.613ZM157.287 146.26C152.05 148.371 146.534 145.465 145.218 140.003C143.977 134.852 147.037 129.552 151.843 127.953C156.496 126.405 161.431 128.796 163.079 133.471C164.82 138.41 162.34 144.223 157.287 146.26Z" fill="url(#paint22_linear_179_1084)"/>
<defs>
<linearGradient id="paint0_linear_179_1084" x1="137.256" y1="69.0281" x2="84.7056" y2="69.0281" gradientUnits="userSpaceOnUse">
<stop stop-color="#FF9085"/>
<stop offset="1" stop-color="#FB6FBB"/>
</linearGradient>
<linearGradient id="paint1_linear_179_1084" x1="116.679" y1="17.2118" x2="121.693" y2="56.9996" gradientUnits="userSpaceOnUse">
<stop offset="0.00359712" stop-color="#E38DDD"/>
<stop offset="0.3555" stop-color="#C783E6"/>
<stop offset="1" stop-color="#9571F6"/>
</linearGradient>
<linearGradient id="paint2_linear_179_1084" x1="133.798" y1="40.2531" x2="104.05" y2="243.527" gradientUnits="userSpaceOnUse">
<stop offset="0.00359712" stop-color="#E38DDD"/>
<stop offset="0.3555" stop-color="#C783E6"/>
<stop offset="1" stop-color="#9571F6"/>
</linearGradient>
<linearGradient id="paint3_linear_179_1084" x1="134.417" y1="21.3484" x2="129.629" y2="54.0649" gradientUnits="userSpaceOnUse">
<stop offset="0.00359712" stop-color="#E38DDD"/>
<stop offset="0.3555" stop-color="#C783E6"/>
<stop offset="1" stop-color="#9571F6"/>
</linearGradient>
<linearGradient id="paint4_linear_179_1084" x1="148.692" y1="64.0579" x2="142.632" y2="86.2761" gradientUnits="userSpaceOnUse">
<stop offset="0.00359712" stop-color="#E38DDD"/>
<stop offset="0.3555" stop-color="#C783E6"/>
<stop offset="1" stop-color="#9571F6"/>
</linearGradient>
<linearGradient id="paint5_linear_179_1084" x1="87.351" y1="71.7925" x2="62.7313" y2="91.7031" gradientUnits="userSpaceOnUse">
<stop stop-color="#AB316D"/>
<stop offset="1" stop-color="#792D3D"/>
</linearGradient>
<linearGradient id="paint6_linear_179_1084" x1="78.5404" y1="79.6714" x2="131.747" y2="38.9404" gradientUnits="userSpaceOnUse">
<stop stop-color="#FFC444"/>
<stop offset="0.9964" stop-color="#F36F56"/>
</linearGradient>
<linearGradient id="paint7_linear_179_1084" x1="60.9217" y1="77.0606" x2="101.996" y2="77.0606" gradientUnits="userSpaceOnUse">
<stop stop-color="#FFC444"/>
<stop offset="0.9964" stop-color="#F36F56"/>
</linearGradient>
<linearGradient id="paint8_linear_179_1084" x1="60.0251" y1="85.2927" x2="58.3385" y2="97.2803" gradientUnits="userSpaceOnUse">
<stop stop-color="#FFC444"/>
<stop offset="0.9964" stop-color="#F36F56"/>
</linearGradient>
<linearGradient id="paint9_linear_179_1084" x1="101.481" y1="91.1256" x2="99.7948" y2="103.113" gradientUnits="userSpaceOnUse">
<stop stop-color="#FFC444"/>
<stop offset="0.9964" stop-color="#F36F56"/>
</linearGradient>
<linearGradient id="paint10_linear_179_1084" x1="67.5608" y1="144.611" x2="65.0119" y2="152.197" gradientUnits="userSpaceOnUse">
<stop stop-color="#FFC444"/>
<stop offset="0.9964" stop-color="#F36F56"/>
</linearGradient>
<linearGradient id="paint11_linear_179_1084" x1="70.8254" y1="145.735" x2="68.2954" y2="153.265" gradientUnits="userSpaceOnUse">
<stop stop-color="#FFC444"/>
<stop offset="0.9964" stop-color="#F36F56"/>
</linearGradient>
<linearGradient id="paint12_linear_179_1084" x1="60.5276" y1="140.721" x2="72.495" y2="127.228" gradientUnits="userSpaceOnUse">
<stop stop-color="#444B8C"/>
<stop offset="0.9964" stop-color="#3E4177"/>
</linearGradient>
<linearGradient id="paint13_linear_179_1084" x1="60.5272" y1="140.721" x2="72.4946" y2="127.227" gradientUnits="userSpaceOnUse">
<stop stop-color="#444B8C"/>
<stop offset="0.9964" stop-color="#3E4177"/>
</linearGradient>
<linearGradient id="paint14_linear_179_1084" x1="75.5766" y1="133.03" x2="93.2466" y2="129.737" gradientUnits="userSpaceOnUse">
<stop stop-color="#444B8C"/>
<stop offset="0.9964" stop-color="#3E4177"/>
</linearGradient>
<linearGradient id="paint15_linear_179_1084" x1="84.0367" y1="78.356" x2="73.0331" y2="118.756" gradientUnits="userSpaceOnUse">
<stop stop-color="#FF9085"/>
<stop offset="1" stop-color="#FB6FBB"/>
</linearGradient>
<linearGradient id="paint16_linear_179_1084" x1="79.0075" y1="93.9413" x2="77.0196" y2="99.8046" gradientUnits="userSpaceOnUse">
<stop stop-color="#FFC444"/>
<stop offset="0.9964" stop-color="#F36F56"/>
</linearGradient>
<linearGradient id="paint17_linear_179_1084" x1="53.9617" y1="166.83" x2="51.9738" y2="172.693" gradientUnits="userSpaceOnUse">
<stop stop-color="#FFC444"/>
<stop offset="0.9964" stop-color="#F36F56"/>
</linearGradient>
<linearGradient id="paint18_linear_179_1084" x1="11.0924" y1="202.325" x2="5.97222" y2="210.578" gradientUnits="userSpaceOnUse">
<stop stop-color="#FFC444"/>
<stop offset="0.9964" stop-color="#F36F56"/>
</linearGradient>
<linearGradient id="paint19_linear_179_1084" x1="91.7919" y1="80.4681" x2="80.7883" y2="120.868" gradientUnits="userSpaceOnUse">
<stop stop-color="#FF9085"/>
<stop offset="1" stop-color="#FB6FBB"/>
</linearGradient>
<linearGradient id="paint20_linear_179_1084" x1="134.525" y1="148.031" x2="155.594" y2="138.093" gradientUnits="userSpaceOnUse">
<stop stop-color="#311944"/>
<stop offset="1" stop-color="#893976"/>
</linearGradient>
<linearGradient id="paint21_linear_179_1084" x1="162.333" y1="135.377" x2="157.128" y2="137.18" gradientUnits="userSpaceOnUse">
<stop stop-color="#311944"/>
<stop offset="1" stop-color="#893976"/>
</linearGradient>
<linearGradient id="paint22_linear_179_1084" x1="166.744" y1="154.784" x2="119.417" y2="94.8357" gradientUnits="userSpaceOnUse">
<stop stop-color="#FF9085"/>
<stop offset="1" stop-color="#FB6FBB"/>
</linearGradient>
</defs>
</svg>
