<svg width="261" height="261" viewBox="0 0 261 261" fill="none" xmlns="http://www.w3.org/2000/svg">
<path d="M122.363 211.77C116.639 198.406 110.199 177.802 113.533 154.007C117.36 126.684 130.575 120.124 140.35 90.4188C154.303 48.015 131.853 20.1565 148.915 6.07275C157.236 -0.795245 171.16 -2.02253 180.281 3.33887C206.307 18.6342 206.263 95.2142 170.004 128.279C153.606 143.233 138.129 142.989 126.463 161.501C116.155 177.859 118.844 198.009 122.363 211.77Z" fill="url(#paint0_linear_191_1150)"/>
<mask id="mask0_191_1150" style="mask-type:luminance" maskUnits="userSpaceOnUse" x="112" y="0" width="87" height="212">
<path d="M122.361 211.77C116.637 198.406 110.197 177.802 113.531 154.007C117.358 126.684 130.573 120.124 140.348 90.4188C154.301 48.015 131.851 20.1565 148.913 6.07275C157.234 -0.795245 171.158 -2.02253 180.279 3.33887C206.305 18.6342 206.261 95.2142 170.002 128.279C153.604 143.233 138.127 142.989 126.461 161.501C116.153 177.859 118.842 198.009 122.361 211.77Z" fill="white"/>
</mask>
<g mask="url(#mask0_191_1150)">
<g opacity="0.5">
<path d="M116.668 177.407L116.019 177.3C116.988 171.352 118.477 165.461 120.442 159.79C124.965 146.742 130.554 139.307 137.63 129.895C142.221 123.788 147.425 116.866 153.277 107.09C164.223 88.8062 167.557 82.433 170.156 72.4306C175.304 52.622 172.743 35.4927 170.757 27.046C167.942 15.0626 162.855 3.87001 155.639 -6.22111L156.175 -6.604C163.441 3.55741 168.562 14.8277 171.398 26.8953C173.397 35.4012 175.976 52.6498 170.792 72.5962C168.172 82.678 164.825 89.0799 153.841 107.427C147.971 117.234 142.755 124.17 138.154 130.29C131.112 139.656 125.55 147.054 121.062 160.004C119.11 165.641 117.632 171.496 116.668 177.407Z" fill="white"/>
<path d="M172.757 58.8162L172.7 58.277C171.212 44.1952 161.393 35.8511 153.418 31.3313C144.743 26.4157 136.307 24.8268 136.223 24.8111L136.342 24.1637C136.427 24.1794 144.956 25.7831 153.726 30.7486C161.737 35.2851 171.578 43.6208 173.291 57.6528C174.902 56.4837 180.576 52.0768 185.41 44.751C190.634 36.8333 195.918 23.7798 191.43 6.55807L192.067 6.3916C196.62 23.8594 191.252 37.1015 185.946 45.1348C180.201 53.8331 173.278 58.4694 173.21 58.5156L172.757 58.8162Z" fill="white"/>
<path d="M170.728 104.588C170.673 104.588 170.618 104.588 170.564 104.588C162.513 104.559 156.559 102.468 156.499 102.448L156.239 102.355L156.286 102.082C158.704 87.9033 154.659 77.9703 150.838 72.1345C146.696 65.8047 141.915 62.7879 141.867 62.7583L142.215 62.1987C142.264 62.2293 147.148 65.3053 151.371 71.747C155.24 77.6466 159.338 87.6582 156.98 101.915C158.202 102.309 163.589 103.909 170.588 103.93C177.891 103.94 188.524 102.207 197.61 93.7604L198.058 94.2423C188.878 102.778 178.16 104.588 170.728 104.588Z" fill="white"/>
<path d="M156.781 132.621C154.185 132.621 151.928 132.38 150.036 132.039C143.174 130.802 139.568 128.097 139.418 127.982L139.23 127.839L139.305 127.615C141.866 119.99 140.154 110.299 138.266 103.512C136.215 96.1386 133.523 90.5136 133.495 90.4572L134.088 90.1714C134.196 90.3961 144.813 112.72 140.005 127.592C140.831 128.155 144.335 130.35 150.195 131.398C156.403 132.509 166.599 132.522 179.924 126.285L180.203 126.882C170.75 131.308 162.84 132.621 156.781 132.621Z" fill="white"/>
</g>
</g>
<path d="M77.0432 227.514C75.495 216.029 74.941 198.149 84.7195 182.465C101.779 155.103 131.084 165.223 160.288 136.234C183.842 112.854 177.203 93.9377 202.985 78.7025C207.3 76.1518 230.119 62.0902 246.497 71.459C255.727 76.7381 258.818 87.103 259.399 89.048C268.172 118.455 237.151 163.16 197.87 182.858C175.302 194.176 168.253 190.046 128.749 202.853C105.536 210.377 87.9759 220.435 77.0432 227.514Z" fill="url(#paint1_linear_191_1150)"/>
<mask id="mask1_191_1150" style="mask-type:luminance" maskUnits="userSpaceOnUse" x="76" y="68" width="185" height="160">
<path d="M77.0432 227.514C75.495 216.029 74.941 198.149 84.7195 182.465C101.779 155.103 131.084 165.223 160.288 136.234C183.842 112.854 177.203 93.9377 202.985 78.7025C207.3 76.1518 230.119 62.0902 246.497 71.459C255.727 76.7381 258.818 87.103 259.399 89.048C268.172 118.455 237.151 163.16 197.87 182.858C175.302 194.176 168.253 190.046 128.749 202.853C105.536 210.377 87.9759 220.435 77.0432 227.514Z" fill="white"/>
</mask>
<g mask="url(#mask1_191_1150)">
<g opacity="0.5">
<path d="M73.4095 241.188L72.7695 241.035C79.2796 213.854 90.6341 195.796 106.518 187.365C114.298 183.235 120.406 182.727 126.872 182.191C133.799 181.615 140.962 181.021 150.55 175.606C159.865 170.345 163.308 165.111 167.665 158.486C171.597 152.508 176.49 145.069 187.265 135.285C196.71 126.711 203.518 122.769 209.525 119.293C216.015 115.535 221.141 112.568 227.193 105.109C237.084 92.9196 242.536 77.0713 243.398 58.0044L244.056 58.034C243.187 77.2451 237.685 93.223 227.704 105.524C221.576 113.077 216.404 116.072 209.855 119.863C203.876 123.323 197.101 127.246 187.708 135.773C176.994 145.501 172.127 152.9 168.216 158.847C163.809 165.548 160.329 170.84 150.875 176.178C141.161 181.663 133.925 182.265 126.927 182.845C120.531 183.377 114.489 183.878 106.826 187.946C91.1159 196.286 79.8734 214.199 73.4095 241.188Z" fill="white"/>
<path d="M211.749 121.57C210.215 121.57 208.652 121.523 207.058 121.427L206.618 121.4L206.768 120.986C206.802 120.892 210.211 111.413 211.901 100.067C213.455 89.6362 213.834 75.448 206.819 67.0882L207.323 66.6655C211.282 71.3842 215.403 81.0286 212.55 100.175C211.05 110.238 208.206 118.84 207.532 120.796C228.187 121.926 243.791 114.556 253.269 108.145C263.61 101.153 269.077 93.7787 269.13 93.7056L269.661 94.095C269.607 94.1699 264.071 101.634 253.637 108.691C244.738 114.71 230.482 121.57 211.749 121.57Z" fill="white"/>
<path d="M212.76 153.927C208.494 153.927 204.579 153.63 201.123 153.193C186.616 151.358 176.873 146.714 176.776 146.667L176.521 146.544L176.604 146.274C182.645 126.696 178.672 98.4472 178.631 98.1642L179.282 98.0698C179.323 98.3528 183.281 126.484 177.317 146.193C178.938 146.928 188.121 150.889 201.229 152.544C214.514 154.221 234.667 153.804 255.232 142.294L255.554 142.868C240.176 151.476 225.023 153.927 212.76 153.927Z" fill="white"/>
<path d="M194.342 199.55C173.903 199.381 158.304 194.663 148.817 190.734C138.526 186.472 132.99 182.185 132.936 182.143L132.663 181.929L132.891 181.667C148.412 163.833 143.475 133.441 143.424 133.136L144.073 133.026C144.086 133.103 145.371 140.84 144.698 150.696C144.083 159.721 141.656 172.41 133.619 181.831C134.851 182.734 140.165 186.441 149.097 190.136C158.526 194.037 174.03 198.723 194.348 198.891L194.342 199.55Z" fill="white"/>
</g>
</g>
<path d="M90.7598 230.096C96.1748 224.44 105.197 216.033 118.051 208.594C140.916 195.361 153.086 198.393 161.523 186.116C170.257 173.407 161.346 164.15 171.962 149.798C172.855 148.591 184.316 133.513 197.658 135.851C206.992 137.486 212.235 146.768 214.694 151.122C224.242 168.023 225.762 196.2 209.028 213.351C193.162 229.612 168.904 227.784 161.192 227.151C147.663 226.041 143.678 221.59 129.998 220.852C113.361 219.955 99.5848 225.476 90.7598 230.096Z" fill="url(#paint2_linear_191_1150)"/>
<path d="M129.835 21.8161L156.336 242.091C156.734 245.394 154.457 248.354 151.269 248.671L40.8874 260.789C34.1258 261.21 30.4236 257.755 30.0055 254.243L2.18118 20.0542C1.76592 16.5619 5.08338 13.3989 11.8746 13.3989L123.261 15.7453C126.486 15.7989 129.44 18.531 129.835 21.8161Z" fill="url(#paint3_linear_191_1150)"/>
<path d="M134.804 21.437L161.451 242.814C161.851 246.133 159.566 249.109 156.366 249.427L41.9307 260.821C38.3432 261.178 35.0553 258.582 34.6355 255.052L6.65574 19.6539C6.23863 16.1431 8.87354 13.3214 12.5008 13.3833L128.204 15.3357C131.44 15.3893 134.406 18.1352 134.804 21.437Z" fill="url(#paint4_linear_191_1150)"/>
<path d="M132.632 33.6475L157.33 238.908C157.703 242.009 155.565 244.784 152.568 245.076L44.9463 255.537C41.6112 255.861 38.5546 253.438 38.1643 250.152L12.3062 32.6986C11.9177 29.4302 14.364 26.7851 17.7332 26.8212L126.46 27.9791C129.487 28.0105 132.26 30.5613 132.632 33.6475Z" fill="#D8DEE8"/>
<path d="M74.9188 21.2855C75.0603 22.4637 74.214 23.4071 73.0284 23.3923C71.8418 23.3775 70.7643 22.4082 70.6228 21.2272C70.4813 20.0461 71.3303 19.1028 72.5179 19.1204C73.7035 19.137 74.7782 20.1063 74.9188 21.2855Z" fill="url(#paint5_linear_191_1150)"/>
<path d="M114.023 171.431C91.9903 130.696 59.0774 118.503 49.1676 76.5205C43.8108 53.8273 47.4603 32.107 53.6069 14.076L12.4979 13.3823C8.87061 13.3213 6.2357 16.143 6.65281 19.6529L34.6325 255.052C35.0524 258.582 38.3403 261.178 41.9278 260.821L131.885 251.864C132.551 215.364 123.844 189.589 114.023 171.431Z" fill="white"/>
<path d="M137.975 36.3677L30.8404 37.743C27.0873 37.7911 24.4034 40.8866 24.8529 44.6563L26.9726 62.4394C27.4221 66.2092 30.8321 69.1974 34.5805 69.1132L141.594 66.7206C145.095 66.642 147.578 63.6334 147.144 60.0006L145.101 42.8639C144.667 39.2311 141.48 36.3224 137.975 36.3677Z" fill="url(#paint6_linear_191_1150)"/>
<path d="M151.954 68.7675L44.9699 71.4024C41.2223 71.4949 38.5421 74.6256 38.9916 78.3953L41.1114 96.1784C41.5608 99.9482 44.9662 102.9 48.71 102.773L155.573 99.1204C159.07 99.0011 161.547 95.9592 161.114 92.3264L159.071 75.1897C158.638 71.5569 155.454 68.6815 151.954 68.7675Z" fill="url(#paint7_linear_191_1150)"/>
<path d="M153.618 167.585L47.0075 173.358C43.2729 173.561 40.6038 176.781 41.0533 180.551L47.6577 235.943C48.1072 239.713 51.4977 242.541 55.223 242.261L161.567 234.254C165.046 233.992 167.511 230.834 167.077 227.202L160.713 173.822C160.279 170.189 157.106 167.397 153.618 167.585Z" fill="url(#paint8_linear_191_1150)"/>
<path d="M46.0147 165.03L89.4969 162.786C93.126 162.599 95.7045 159.443 95.2624 155.738L91.1385 121.148C90.6964 117.443 87.3974 114.547 83.7618 114.681L40.2029 116.28C36.4609 116.418 33.7844 119.586 34.2338 123.355L38.4299 158.553C38.8803 162.323 42.2792 165.223 46.0147 165.03Z" fill="url(#paint9_linear_191_1150)"/>
<path d="M147.035 112.359L105.166 113.896C101.57 114.029 99.0057 117.131 99.4468 120.826L103.561 155.328C104.001 159.024 107.275 161.869 110.864 161.684L152.659 159.527C156.149 159.347 158.621 156.256 158.187 152.623L154.144 118.705C153.71 115.072 150.53 112.231 147.035 112.359Z" fill="url(#paint10_linear_191_1150)"/>
<path d="M139.286 35.5049L32.1509 36.8802C28.3979 36.9283 25.7139 40.0238 26.1634 43.7935L28.2832 61.5766C28.7327 65.3464 32.1426 68.3346 35.8911 68.2504L142.904 65.8578C146.406 65.7792 148.888 62.7706 148.455 59.1378L146.412 42.0011C145.978 38.3683 142.791 35.4596 139.286 35.5049Z" fill="url(#paint11_linear_191_1150)"/>
<path d="M153.264 67.9047L46.2804 70.5396C42.5329 70.6321 39.8527 73.7628 40.3021 77.5325L42.4219 95.3156C42.8714 99.0854 46.2767 102.038 50.0205 101.91L156.883 98.2576C160.38 98.1383 162.858 95.0964 162.425 91.4636L160.382 74.3269C159.948 70.6941 156.765 67.8187 153.264 67.9047Z" fill="url(#paint12_linear_191_1150)"/>
<path d="M154.928 166.723L48.3181 172.496C44.5835 172.698 41.9144 175.919 42.3638 179.688L48.9682 235.081C49.4177 238.851 52.8083 241.679 56.5336 241.399L162.877 233.391C166.357 233.13 168.821 229.972 168.388 226.339L162.024 172.959C161.59 169.326 158.417 166.534 154.928 166.723Z" fill="url(#paint13_linear_191_1150)"/>
<path d="M47.3262 164.167L90.8084 161.923C94.4375 161.735 97.016 158.581 96.5739 154.876L92.45 120.285C92.0079 116.58 88.709 113.684 85.0733 113.818L41.5144 115.418C37.7724 115.555 35.0959 118.723 35.5454 122.493L39.7414 157.69C40.1918 161.46 43.5907 164.36 47.3262 164.167Z" fill="url(#paint14_linear_191_1150)"/>
<path opacity="0.5" d="M47.3262 164.167L90.8084 161.923C94.4375 161.735 97.016 158.581 96.5739 154.876L92.45 120.285C92.0079 116.58 88.709 113.684 85.0733 113.818L41.5144 115.418C37.7724 115.555 35.0959 118.723 35.5454 122.493L39.7414 157.69C40.1918 161.46 43.5907 164.36 47.3262 164.167Z" fill="white"/>
<path d="M148.345 111.496L106.476 113.033C102.88 113.165 100.315 116.268 100.756 119.963L104.87 154.465C105.31 158.16 108.584 161.005 112.174 160.82L153.969 158.664C157.458 158.483 159.931 155.392 159.497 151.76L155.453 117.841C155.02 114.209 151.84 111.367 148.345 111.496Z" fill="url(#paint15_linear_191_1150)"/>
<g opacity="0.5">
<path d="M46.2785 70.5396C42.5309 70.6321 39.8507 73.7628 40.3002 77.5325L42.42 95.3156C42.8694 99.0853 46.2748 102.037 50.0186 101.91L125.116 99.3434C117.044 88.1406 106.563 79.4821 100.128 69.2134L46.2785 70.5396Z" fill="white"/>
</g>
<g opacity="0.5">
<path d="M110.021 169.156L48.3198 172.497C44.5852 172.7 41.9161 175.92 42.3646 179.69L48.969 235.082C49.4185 238.852 52.809 241.68 56.5344 241.4L104.358 237.799C100.867 229.049 98.6246 219.49 98.5007 209.239C98.2954 192.099 104.092 180.151 110.021 169.156Z" fill="white"/>
</g>
<g opacity="0.5">
<path d="M121.705 125.804C120.936 120.977 119.575 116.622 117.811 112.617L106.477 113.033C102.881 113.166 100.316 116.269 100.757 119.963L104.871 154.465C105.311 158.161 108.585 161.006 112.175 160.821L114.568 160.697C119.901 150.424 123.971 140.013 121.705 125.804Z" fill="white"/>
</g>
<g opacity="0.5">
<path d="M80.2333 48.7868C80.582 44.2643 81.7316 40.0682 83.3658 36.2227L32.15 36.8802C28.3969 36.9283 25.7129 40.0238 26.1624 43.7935L28.2822 61.5767C28.7317 65.3464 32.1416 68.3346 35.8901 68.2505L83.9734 67.1758C81.2201 61.7607 79.6913 55.813 80.2333 48.7868Z" fill="white"/>
</g>
<path d="M202.758 248.919C203.693 250.482 203.527 251.201 203.353 251.526C202.845 252.478 201.371 251.742 197.744 252.482C197.318 252.569 196.508 252.748 195.464 252.593C194.57 252.46 193.498 252.08 193.522 251.841C193.531 251.754 193.684 251.707 193.742 251.689C194.741 251.388 200.942 248.903 200.942 248.903L202.758 248.919Z" fill="url(#paint16_linear_191_1150)"/>
<path d="M202.946 245.298L202.682 248.987C202.682 248.987 201.21 250.224 200.687 248.916C200.311 247.975 200.102 245.372 200.102 245.372L202.946 245.298Z" fill="url(#paint17_linear_191_1150)"/>
<path d="M184.626 248.643L186.512 252.708L188.714 252.166L187.872 248.327L184.626 248.643Z" fill="url(#paint18_linear_191_1150)"/>
<path d="M187.401 254.96C188.374 253.589 189.348 253.624 189.47 252.727C189.565 252.022 189.07 251.208 188.403 250.939C187.466 250.561 186.437 251.36 186.205 251.54C184.625 252.765 185.222 254.426 183.708 255.294C183.403 255.469 182.914 255.668 182.426 256.209C182.219 256.438 181.705 257.007 181.865 257.355C182.051 257.759 183.043 257.662 183.986 257.569C185.118 257.458 185.684 257.403 186.2 257.017C186.916 256.482 186.65 256.019 187.401 254.96Z" fill="url(#paint19_linear_191_1150)"/>
<path d="M207.614 157.189C207.909 165.694 207.3 173.027 206.413 179.037C205.458 185.503 204.74 186.654 204.592 191.092C204.272 200.752 207.451 201.934 208.691 212.753C210.061 224.7 207.465 234.423 206.437 238.134C205.538 241.379 204.551 244.015 203.799 245.85C202.759 246.876 201.057 246.613 199.263 246.362C197.936 235.532 196.489 225.352 195.163 214.521C192.045 198.298 188.927 182.075 185.81 165.852C193.078 162.965 200.346 160.077 207.614 157.189Z" fill="url(#paint20_linear_191_1150)"/>
<path opacity="0.3" d="M199.262 246.363C197.935 235.533 196.488 225.353 195.162 214.522C192.044 198.299 188.926 182.076 185.809 165.853C193.076 162.965 200.345 160.077 207.612 157.189C207.632 157.752 207.637 158.296 207.649 158.849C197.801 168.532 196.208 175.818 196.612 180.696C197.102 186.611 200.523 189.347 200.422 197.975C200.35 204.144 198.572 205.34 198.916 210.882C199.359 218.017 202.67 221.839 204.417 225.87C206.106 229.765 206.967 235.378 204.68 243.579C204.366 244.431 204.066 245.194 203.797 245.849C202.758 246.876 201.056 246.613 199.262 246.363Z" fill="url(#paint21_linear_191_1150)"/>
<path d="M194.985 166.181C190.101 175.729 187.522 183.165 186.154 187.743C185.319 190.536 184.587 193.436 184.605 197.179C184.63 201.764 185.771 205.463 186.707 207.818C188.045 210.827 189.303 214.355 190.205 218.374C193.128 231.404 190.728 242.609 188.709 249.092C187.421 249.662 186.132 250.232 184.844 250.802C181.341 242.633 176.949 231.008 173.417 216.557C171.487 208.663 170.004 202.471 169.501 194.52C168.97 186.133 169.341 172.793 175.222 156.518C181.811 159.739 188.398 162.96 194.985 166.181Z" fill="url(#paint22_linear_191_1150)"/>
<path d="M187.441 93.7696C179.146 95.7293 172.856 97.6234 170.277 102.191C167.554 107.016 172.556 110.211 174.488 120.306C177.446 135.763 168.848 142.138 172.398 157.666C173.594 162.898 175.644 166.875 177.031 169.228C179.877 171.27 184.371 174.019 190.34 175.701C199.026 178.148 203.112 176.16 214.592 176.105C233.367 176.015 236.504 181.268 244.75 177.407C253.084 173.505 258.703 164.01 256.65 160.228C255.419 157.963 252.087 159.631 247 157.072C240.445 153.774 241.196 148.673 235.795 144.67C228.037 138.921 221.333 145.627 214.691 140.622C207.974 135.558 206.391 122.332 208.612 114.263C210.064 108.992 209.749 103.377 210.735 97.9998C210.817 97.5531 210.86 96.8456 210.537 96.0669C209.303 93.0879 203.697 92.8484 199.462 92.7069C193.005 92.4905 188.123 93.6086 187.441 93.7696Z" fill="url(#paint23_linear_191_1150)"/>
<path opacity="0.3" d="M243.403 171.558C240.706 169.993 241.806 165.012 237.808 162.652C234.097 160.462 231.516 163.787 226.169 162.503C219.31 160.857 219.261 154.354 212.682 152.686C207.952 151.486 206.735 154.534 200.053 155.076C193.382 155.618 184.457 153.403 178.474 146.667C175.931 143.804 174.416 140.676 173.516 137.754C172.088 143.634 170.494 149.332 172.399 157.666C173.595 162.898 175.645 166.875 177.033 169.228C179.879 171.27 184.372 174.019 190.341 175.7C199.027 178.147 203.114 176.159 214.593 176.104C233.369 176.014 236.506 181.267 244.752 177.406C250.078 174.913 254.283 170.138 256.097 166.026C249.035 171.863 245.36 172.694 243.403 171.558Z" fill="url(#paint24_linear_191_1150)"/>
<path d="M181.698 79.5591C181.698 79.5591 179.656 84.04 179.699 87.0921C179.742 90.1441 183.163 89.7103 183.163 89.7103L183.153 91.6377C183.145 93.284 182.169 94.7702 180.662 95.4324L179.337 96.0151C179.337 96.0151 188.301 97.3607 192.919 93.6484L191.519 93.5984C189.536 93.5272 187.878 92.0687 187.554 90.1108L187.419 89.2941C187.419 89.296 188.366 79.7145 181.698 79.5591Z" fill="url(#paint25_linear_191_1150)"/>
<path d="M171.665 128.723L158.711 105.264C158.551 104.974 158.221 104.823 157.897 104.892L139.005 108.894C138.501 109 138.251 109.572 138.515 110.015L153.588 135.272C153.769 135.577 154.138 135.713 154.474 135.6L171.122 129.977L171.665 128.723Z" fill="url(#paint26_linear_191_1150)"/>
<path d="M168.415 126.023L157.926 107.028C157.797 106.793 157.529 106.671 157.267 106.727L141.969 109.967C141.561 110.053 141.359 110.517 141.573 110.875L153.778 131.326C153.925 131.572 154.224 131.682 154.496 131.591L167.976 127.037L168.415 126.023Z" fill="white"/>
<path d="M154.711 107.177L153.879 105.654C153.763 105.442 153.523 105.331 153.287 105.378L145.42 106.977C145.055 107.051 144.867 107.459 145.049 107.784L145.976 109.44C146.094 109.652 146.338 109.762 146.576 109.709L154.349 107.977C154.705 107.899 154.887 107.498 154.711 107.177Z" fill="url(#paint27_linear_191_1150)"/>
<path d="M144.319 113.417C144.331 113.416 144.343 113.413 144.355 113.411L158.208 110.445C158.379 110.408 158.489 110.24 158.452 110.069C158.415 109.897 158.24 109.791 158.075 109.825L144.222 112.791C144.051 112.828 143.941 112.996 143.978 113.167C144.013 113.327 144.161 113.433 144.319 113.417Z" fill="url(#paint28_linear_191_1150)"/>
<path d="M145.157 114.772C145.17 114.771 145.184 114.768 145.196 114.765L158.967 111.669C159.138 111.631 159.245 111.461 159.207 111.289C159.169 111.118 159.001 111.011 158.828 111.049L145.057 114.146C144.886 114.184 144.778 114.354 144.816 114.526C144.852 114.683 145 114.787 145.157 114.772Z" fill="url(#paint29_linear_191_1150)"/>
<path d="M152.352 116.408C152.368 116.407 152.385 116.404 152.4 116.4L159.892 114.5C160.062 114.458 160.165 114.285 160.121 114.114C160.079 113.945 159.903 113.841 159.736 113.884L152.243 115.784C152.073 115.827 151.97 116.001 152.014 116.171C152.054 116.324 152.2 116.423 152.352 116.408Z" fill="url(#paint30_linear_191_1150)"/>
<path d="M153.384 118.296C153.399 118.294 153.416 118.291 153.432 118.288L160.923 116.388C161.093 116.346 161.196 116.173 161.152 116.001C161.11 115.832 160.934 115.729 160.767 115.772L153.274 117.672C153.104 117.714 153.002 117.888 153.045 118.058C153.085 118.212 153.231 118.311 153.384 118.296Z" fill="url(#paint31_linear_191_1150)"/>
<path d="M149.899 129.091C149.899 129.091 146.611 127.235 146.124 125.774C145.637 124.312 145.493 121.498 145.493 121.498L147.637 125.301C147.637 125.301 148.492 124.976 148.761 123.642C149.03 122.307 149.767 123.448 149.592 124.454C149.416 125.458 149.899 129.091 149.899 129.091Z" fill="url(#paint32_linear_191_1150)"/>
<path d="M171.643 100.597C170.083 101.735 167.752 103.699 165.799 106.717C160.241 115.304 163.388 123.695 158.488 127.165C157.086 128.157 154.558 129.08 149.748 127.817L148.037 128.919C148.037 128.919 146.779 140.225 160.321 139.513C173.863 138.802 179.191 121.447 179.191 121.447L171.643 100.597Z" fill="url(#paint33_linear_191_1150)"/>
<path d="M183.35 83.7865C183.805 83.7208 184.146 83.1169 184.47 83.2704C184.809 83.4304 184.825 84.2776 184.577 84.8889C184.373 85.3902 184.008 85.688 183.803 85.8295C184.186 86.2966 184.683 87.0281 184.932 88.0103C185.482 90.1837 184.423 92.0242 184.002 93.0887C182.099 97.8896 185.965 105.054 189.937 108.546C193.164 111.385 194.507 110.08 196.475 112.439C200.306 117.033 195.758 122.625 197.986 128.989C201.374 138.666 217.107 140.632 217.759 140.706C218.016 140.736 218.188 140.752 218.455 140.778C225.501 141.454 236.178 142.479 243.27 136.292C248.576 131.663 250.67 124.047 249.84 117.507C249.622 115.787 248.693 109.261 243.018 104.24C242.117 103.442 236.784 98.735 229.994 99.0947C226.397 99.2852 225.751 100.597 222.954 99.9835C219.124 99.1447 216.594 95.866 215.024 93.8332C212.137 90.0931 213.161 89.1923 211.138 87.3907C207.176 83.8596 202.983 87.0855 198.795 84.0112C194.666 80.9823 196.759 76.3959 192.794 73.798C188.704 71.1187 181.288 72.6022 179.909 76.1795C178.725 79.2538 181.955 83.989 183.35 83.7865Z" fill="url(#paint34_linear_191_1150)"/>
<path d="M71.7408 231.215C74.9797 232.859 79.0481 231.349 80.8285 227.843C82.6088 224.336 81.4268 220.161 78.188 218.516C78.0206 218.431 77.8495 218.359 77.6775 218.291C78.2795 216.35 78.7327 214.395 79.037 212.438C79.2229 212.437 79.4088 212.434 79.5984 212.418C83.2932 212.089 86.2259 208.693 86.1482 204.834C86.0705 200.975 83.013 198.114 79.3182 198.443C79.1249 198.461 78.9353 198.491 78.7466 198.525C78.3609 196.612 77.8319 194.744 77.1651 192.937C77.3353 192.837 77.5045 192.734 77.6691 192.618C80.8303 190.404 81.8412 186.033 79.9267 182.856C78.0123 179.679 73.8976 178.898 70.7364 181.112C70.5746 181.226 70.422 181.348 70.2712 181.473C69.0227 180.093 67.6529 178.814 66.1722 177.646C66.2767 177.475 66.3785 177.302 66.471 177.121C68.2513 173.614 70.5783 169.784 67.3144 168.19C59.7639 164.505 56.5241 167.659 54.7438 171.166C54.6513 171.348 54.5718 171.533 54.4959 171.718C52.6795 171.211 50.8381 170.859 48.9875 170.666C48.9995 170.471 49.0078 170.276 49.0041 170.078C48.9264 166.219 50.0714 164.131 46.3627 164.059C38.2748 163.902 35.5465 167.412 35.6242 171.271C35.6279 171.472 35.6455 171.669 35.6649 171.866C33.8115 172.394 31.9914 173.07 30.2193 173.886C30.1352 173.714 30.0482 173.543 29.9474 173.377C28.033 170.2 23.9183 169.419 20.7571 171.634C17.5959 173.849 16.5851 178.22 18.4995 181.397C18.5976 181.56 18.7049 181.712 18.814 181.862C17.4137 183.263 16.1032 184.782 14.8917 186.414C14.7354 186.316 14.5763 186.219 14.408 186.134C11.1691 184.49 7.10066 186 5.32031 189.506C3.53996 193.012 4.72193 197.188 7.96078 198.833C8.12818 198.918 8.3002 198.99 8.4713 199.058C7.86922 200.999 7.41604 202.954 7.11176 204.911C6.92586 204.912 6.73997 204.914 6.55038 204.931C2.85557 205.26 -0.0771561 208.655 0.00053194 212.515C0.07822 216.373 3.1358 219.235 6.83061 218.906C7.0239 218.888 7.2135 218.858 7.40217 218.824C7.78783 220.737 8.31685 222.605 8.98368 224.413C8.8135 224.513 8.64425 224.616 8.47963 224.731C5.31846 226.945 4.30759 231.317 6.22205 234.494C8.1365 237.671 14.4746 239.147 17.6357 236.933C17.7976 236.819 15.7268 236.001 15.8776 235.877C17.1261 237.257 18.4958 238.536 19.9775 239.704C19.8729 239.875 19.7712 240.048 19.6787 240.229C17.8984 243.735 19.0803 247.911 22.3192 249.555C25.558 251.2 29.6265 249.69 31.4068 246.183C31.4993 246.002 31.5789 245.817 31.6547 245.632C33.4711 246.139 35.3125 246.49 37.1632 246.684C37.1521 246.879 37.1428 247.074 37.1465 247.272C37.2242 251.13 40.2818 253.992 43.9766 253.663C47.6714 253.333 50.6041 249.938 50.5264 246.079C50.5227 245.877 50.5051 245.68 50.4857 245.484C52.3391 244.956 54.1593 244.281 55.9313 243.463C56.0154 243.635 56.1033 243.806 56.2032 243.973C58.1177 247.15 62.2323 247.93 65.3935 245.715C68.5547 243.5 69.5655 239.129 67.6511 235.953C67.5531 235.79 67.4458 235.638 67.3366 235.487C68.7369 234.087 70.0474 232.568 71.259 230.936C71.4143 231.033 71.5725 231.129 71.7408 231.215ZM31.3698 231.727C19.6121 225.757 15.3199 210.597 21.7846 197.865C28.2485 185.134 43.0212 179.652 54.7789 185.622C66.5366 191.592 70.8289 206.752 64.3641 219.484C57.9003 232.215 43.1285 237.697 31.3698 231.727Z" fill="url(#paint35_linear_191_1150)"/>
<path d="M79.5981 212.418C83.2929 212.089 86.2256 208.693 86.1479 204.834C86.0703 200.975 83.0127 198.114 79.3179 198.443C79.1246 198.461 78.935 198.491 78.7463 198.525C78.3606 196.612 77.8316 194.744 77.1648 192.937C77.335 192.838 77.5042 192.734 77.6688 192.618C80.83 190.404 84.7403 185.053 82.5105 182.089C78.2774 176.463 73.8973 178.898 70.7361 181.113C70.5743 181.227 70.4217 181.349 70.2709 181.474C69.0224 180.094 67.6526 178.815 66.171 177.648C66.2755 177.477 66.3773 177.304 66.4697 177.122C67.439 175.214 67.5241 173.109 66.8841 171.321C63.8311 176.694 60.8189 182.091 57.8603 187.517C67.2402 194.39 70.2265 207.936 64.3638 219.485C59.3955 229.271 49.519 234.766 39.8745 234.077C39.4445 235.192 39.0218 236.314 38.5612 237.419C37.3108 240.418 35.8912 243.354 34.4688 246.287C35.3631 246.455 36.2611 246.588 37.1619 246.683C37.1508 246.878 37.1416 247.073 37.1453 247.271C37.223 251.13 39.5656 254.408 46.2616 254.053C49.9657 253.857 50.602 249.937 50.5252 246.078C50.5215 245.876 50.5039 245.679 50.4845 245.483C52.3379 244.955 54.158 244.279 55.9301 243.462C56.0142 243.634 56.1021 243.806 56.202 243.972C58.1164 247.15 64.7578 248.499 67.919 246.284C71.0802 244.069 69.5643 239.129 67.6499 235.952C67.5518 235.789 67.4445 235.636 67.3354 235.486C68.7356 234.086 70.0462 232.567 71.2577 230.935C71.414 231.033 71.5731 231.129 71.7414 231.215C74.9803 232.859 79.0487 231.349 80.8291 227.843C82.6094 224.336 81.4275 220.161 78.1886 218.516C78.0203 218.431 77.8492 218.359 77.6781 218.291C78.2802 216.35 78.7334 214.395 79.0376 212.439C79.2226 212.438 79.4094 212.435 79.5981 212.418Z" fill="url(#paint36_linear_191_1150)"/>
<path d="M75.2242 231.61C78.463 233.255 82.5314 231.745 84.3118 228.238C86.0921 224.732 84.9102 220.557 81.6713 218.912C81.5039 218.827 81.3319 218.755 81.1608 218.687C81.7629 216.746 82.2161 214.791 82.5203 212.834C82.7062 212.833 82.8922 212.83 83.0817 212.814C86.7766 212.484 89.7093 209.089 89.6316 205.23C89.5539 201.37 86.4963 198.51 82.8015 198.839C82.6082 198.857 82.4186 198.887 82.23 198.92C81.8443 197.008 81.3153 195.14 80.6484 193.332C80.8186 193.232 80.9879 193.129 81.1525 193.013C84.3137 190.799 85.3245 186.427 83.4101 183.251C81.4956 180.074 77.3809 179.293 74.2198 181.508C74.0579 181.622 73.9053 181.744 73.7546 181.869C72.506 180.489 71.1363 179.21 69.6556 178.042C69.7601 177.871 69.8618 177.698 69.9543 177.516C71.7347 174.01 70.5527 169.835 67.3139 168.19C64.075 166.546 60.0065 168.056 58.2262 171.562C58.1337 171.744 58.0542 171.928 57.9783 172.113C56.1619 171.607 54.3205 171.255 52.4699 171.062C52.481 170.867 52.4902 170.672 52.4865 170.474C52.4088 166.615 49.3513 163.754 45.6565 164.083C41.9617 164.412 39.0289 167.807 39.1066 171.667C39.1103 171.868 39.1279 172.065 39.1473 172.261C37.2939 172.79 35.4738 173.466 33.7017 174.282C33.6176 174.11 33.5307 173.939 33.4298 173.773C31.5154 170.596 27.4007 169.815 24.2395 172.03C21.0784 174.245 20.0675 178.616 21.982 181.793C22.08 181.956 22.1873 182.108 22.2964 182.258C20.8962 183.658 19.5856 185.178 18.3741 186.809C18.2178 186.711 18.0587 186.615 17.8904 186.53C14.6515 184.886 10.5831 186.396 8.80274 189.902C7.02239 193.408 8.20435 197.584 11.4432 199.228C11.6106 199.314 11.7826 199.386 11.9537 199.454C11.3516 201.394 10.8985 203.35 10.5942 205.307C10.4083 205.308 10.2224 205.31 10.0328 205.327C6.33799 205.656 3.40527 209.051 3.48295 212.911C3.56064 216.769 6.61822 219.631 10.313 219.302C10.5063 219.284 10.6959 219.254 10.8846 219.22C11.2703 221.133 11.7993 223.001 12.4661 224.809C12.2959 224.908 12.1267 225.012 11.962 225.127C8.80088 227.341 7.79002 231.713 9.70447 234.89C11.6189 238.067 15.7336 238.847 18.8948 236.633C19.0566 236.52 19.2092 236.398 19.36 236.273C20.6085 237.653 21.9783 238.932 23.4599 240.1C23.3554 240.271 23.2536 240.444 23.1611 240.625C21.3808 244.131 22.5628 248.307 25.8016 249.951C29.0405 251.596 33.1089 250.085 34.8893 246.579C34.9818 246.398 35.0613 246.213 35.1371 246.028C36.9535 246.535 38.7949 246.886 40.6456 247.08C40.6345 247.275 40.6252 247.47 40.6289 247.668C40.7066 251.526 43.7642 254.388 47.459 254.059C51.1538 253.729 54.0865 250.334 54.0089 246.475C54.0051 246.273 53.9876 246.076 53.9682 245.88C55.8216 245.352 57.6417 244.676 59.4137 243.859C59.4979 244.031 59.5857 244.202 59.6856 244.368C61.6001 247.545 65.7148 248.325 68.8759 246.111C72.0371 243.896 73.048 239.525 71.1335 236.349C71.0355 236.186 70.9282 236.034 70.8191 235.883C72.2193 234.483 73.5298 232.964 74.7414 231.332C74.8977 231.429 75.0568 231.525 75.2242 231.61ZM34.8541 232.123C23.0964 226.153 18.8041 210.993 25.2689 198.261C31.7327 185.529 46.5055 180.048 58.2632 186.018C70.0209 191.988 74.3132 207.148 67.8484 219.88C61.3837 232.611 46.6118 238.093 34.8541 232.123Z" fill="url(#paint37_linear_191_1150)"/>
<defs>
<linearGradient id="paint0_linear_191_1150" x1="185.105" y1="28.3537" x2="120.806" y2="131.893" gradientUnits="userSpaceOnUse">
<stop offset="0.00359712" stop-color="#E38DDD"/>
<stop offset="1" stop-color="#9571F6"/>
</linearGradient>
<linearGradient id="paint1_linear_191_1150" x1="193.587" y1="81.0541" x2="141.347" y2="236.92" gradientUnits="userSpaceOnUse">
<stop stop-color="#AA80F9"/>
<stop offset="0.9964" stop-color="#6165D7"/>
</linearGradient>
<linearGradient id="paint2_linear_191_1150" x1="221.895" y1="161.676" x2="36.3027" y2="273.034" gradientUnits="userSpaceOnUse">
<stop offset="0.003597" stop-color="#F36F56"/>
<stop offset="1" stop-color="#FFC444"/>
</linearGradient>
<linearGradient id="paint3_linear_191_1150" x1="77.8925" y1="131.415" x2="34.3917" y2="136.16" gradientUnits="userSpaceOnUse">
<stop stop-color="#444B8C"/>
<stop offset="0.9964" stop-color="#26264F"/>
</linearGradient>
<linearGradient id="paint4_linear_191_1150" x1="116.222" y1="21.7623" x2="8.65697" y2="387.958" gradientUnits="userSpaceOnUse">
<stop stop-color="#444B8C"/>
<stop offset="0.9964" stop-color="#26264F"/>
</linearGradient>
<linearGradient id="paint5_linear_191_1150" x1="75.9141" y1="12.7427" x2="-50.504" y2="355.125" gradientUnits="userSpaceOnUse">
<stop stop-color="#FFC444"/>
<stop offset="0.9964" stop-color="#F36F56"/>
</linearGradient>
<linearGradient id="paint6_linear_191_1150" x1="98.4426" y1="21.0934" x2="22.9068" y2="210.673" gradientUnits="userSpaceOnUse">
<stop stop-color="#311944"/>
<stop offset="1" stop-color="#6B3976"/>
</linearGradient>
<linearGradient id="paint7_linear_191_1150" x1="125.012" y1="22.7165" x2="49.476" y2="212.296" gradientUnits="userSpaceOnUse">
<stop stop-color="#311944"/>
<stop offset="1" stop-color="#6B3976"/>
</linearGradient>
<linearGradient id="paint8_linear_191_1150" x1="166.146" y1="48.0689" x2="90.6101" y2="237.649" gradientUnits="userSpaceOnUse">
<stop stop-color="#311944"/>
<stop offset="1" stop-color="#6B3976"/>
</linearGradient>
<linearGradient id="paint9_linear_191_1150" x1="110.096" y1="25.737" x2="34.5608" y2="215.316" gradientUnits="userSpaceOnUse">
<stop stop-color="#311944"/>
<stop offset="1" stop-color="#6B3976"/>
</linearGradient>
<linearGradient id="paint10_linear_191_1150" x1="164.416" y1="47.38" x2="88.8807" y2="236.96" gradientUnits="userSpaceOnUse">
<stop stop-color="#311944"/>
<stop offset="1" stop-color="#6B3976"/>
</linearGradient>
<linearGradient id="paint11_linear_191_1150" x1="17.0222" y1="326.753" x2="52.5682" y2="187.531" gradientUnits="userSpaceOnUse">
<stop offset="0.003597" stop-color="#F36F56"/>
<stop offset="1" stop-color="#FFC444"/>
</linearGradient>
<linearGradient id="paint12_linear_191_1150" x1="126.322" y1="21.8535" x2="50.7865" y2="211.433" gradientUnits="userSpaceOnUse">
<stop stop-color="#FF9085"/>
<stop offset="1" stop-color="#FB6FBB"/>
</linearGradient>
<linearGradient id="paint13_linear_191_1150" x1="70.3091" y1="340.359" x2="105.855" y2="201.137" gradientUnits="userSpaceOnUse">
<stop offset="0.003597" stop-color="#F36F56"/>
<stop offset="1" stop-color="#FFC444"/>
</linearGradient>
<linearGradient id="paint14_linear_191_1150" x1="17.9806" y1="326.999" x2="53.5267" y2="187.776" gradientUnits="userSpaceOnUse">
<stop offset="0.003597" stop-color="#F36F56"/>
<stop offset="1" stop-color="#FFC444"/>
</linearGradient>
<linearGradient id="paint15_linear_191_1150" x1="77.4492" y1="342.182" x2="112.995" y2="202.96" gradientUnits="userSpaceOnUse">
<stop offset="0.003597" stop-color="#F36F56"/>
<stop offset="1" stop-color="#FFC444"/>
</linearGradient>
<linearGradient id="paint16_linear_191_1150" x1="196.376" y1="262.115" x2="201.665" y2="235.656" gradientUnits="userSpaceOnUse">
<stop stop-color="#444B8C"/>
<stop offset="0.9964" stop-color="#26264F"/>
</linearGradient>
<linearGradient id="paint17_linear_191_1150" x1="202.607" y1="256.456" x2="198.582" y2="215.167" gradientUnits="userSpaceOnUse">
<stop stop-color="#FFC444"/>
<stop offset="0.9964" stop-color="#F36F56"/>
</linearGradient>
<linearGradient id="paint18_linear_191_1150" x1="187.404" y1="257.938" x2="183.38" y2="216.649" gradientUnits="userSpaceOnUse">
<stop stop-color="#FFC444"/>
<stop offset="0.9964" stop-color="#F36F56"/>
</linearGradient>
<linearGradient id="paint19_linear_191_1150" x1="184.686" y1="259.779" x2="189.976" y2="233.319" gradientUnits="userSpaceOnUse">
<stop stop-color="#444B8C"/>
<stop offset="0.9964" stop-color="#26264F"/>
</linearGradient>
<linearGradient id="paint20_linear_191_1150" x1="197.495" y1="167.015" x2="209.602" y2="251.962" gradientUnits="userSpaceOnUse">
<stop stop-color="#311944"/>
<stop offset="1" stop-color="#893976"/>
</linearGradient>
<linearGradient id="paint21_linear_191_1150" x1="197.495" y1="167.015" x2="209.602" y2="251.962" gradientUnits="userSpaceOnUse">
<stop stop-color="#311944"/>
<stop offset="1" stop-color="#893976"/>
</linearGradient>
<linearGradient id="paint22_linear_191_1150" x1="143.226" y1="208.944" x2="212.437" y2="199.008" gradientUnits="userSpaceOnUse">
<stop stop-color="#311944"/>
<stop offset="1" stop-color="#893976"/>
</linearGradient>
<linearGradient id="paint23_linear_191_1150" x1="247.892" y1="217.131" x2="188.331" y2="116.606" gradientUnits="userSpaceOnUse">
<stop stop-color="#FF9085"/>
<stop offset="1" stop-color="#FB6FBB"/>
</linearGradient>
<linearGradient id="paint24_linear_191_1150" x1="162.332" y1="106.358" x2="220.968" y2="172.602" gradientUnits="userSpaceOnUse">
<stop stop-color="#FF9085"/>
<stop offset="1" stop-color="#FB6FBB"/>
</linearGradient>
<linearGradient id="paint25_linear_191_1150" x1="180.253" y1="85.7805" x2="190.548" y2="99.2984" gradientUnits="userSpaceOnUse">
<stop stop-color="#FFC444"/>
<stop offset="0.9964" stop-color="#F36F56"/>
</linearGradient>
<linearGradient id="paint26_linear_191_1150" x1="149.306" y1="111.279" x2="170.056" y2="138.527" gradientUnits="userSpaceOnUse">
<stop stop-color="#444B8C"/>
<stop offset="0.9964" stop-color="#26264F"/>
</linearGradient>
<linearGradient id="paint27_linear_191_1150" x1="150.957" y1="109.241" x2="145.828" y2="100.809" gradientUnits="userSpaceOnUse">
<stop offset="0.003597" stop-color="#F36F56"/>
<stop offset="1" stop-color="#FFC444"/>
</linearGradient>
<linearGradient id="paint28_linear_191_1150" x1="158.534" y1="111.007" x2="143.897" y2="112.23" gradientUnits="userSpaceOnUse">
<stop stop-color="#444B8C"/>
<stop offset="0.9964" stop-color="#26264F"/>
</linearGradient>
<linearGradient id="paint29_linear_191_1150" x1="159.295" y1="112.299" x2="144.729" y2="113.516" gradientUnits="userSpaceOnUse">
<stop stop-color="#444B8C"/>
<stop offset="0.9964" stop-color="#26264F"/>
</linearGradient>
<linearGradient id="paint30_linear_191_1150" x1="160.184" y1="114.798" x2="151.953" y2="115.486" gradientUnits="userSpaceOnUse">
<stop stop-color="#444B8C"/>
<stop offset="0.9964" stop-color="#26264F"/>
</linearGradient>
<linearGradient id="paint31_linear_191_1150" x1="161.215" y1="116.686" x2="152.984" y2="117.374" gradientUnits="userSpaceOnUse">
<stop stop-color="#444B8C"/>
<stop offset="0.9964" stop-color="#26264F"/>
</linearGradient>
<linearGradient id="paint32_linear_191_1150" x1="146.631" y1="123.107" x2="151.61" y2="129.645" gradientUnits="userSpaceOnUse">
<stop stop-color="#FFC444"/>
<stop offset="0.9964" stop-color="#F36F56"/>
</linearGradient>
<linearGradient id="paint33_linear_191_1150" x1="226.777" y1="229.638" x2="167.218" y2="129.115" gradientUnits="userSpaceOnUse">
<stop stop-color="#FF9085"/>
<stop offset="1" stop-color="#FB6FBB"/>
</linearGradient>
<linearGradient id="paint34_linear_191_1150" x1="283.92" y1="222.921" x2="187.618" y2="60.3857" gradientUnits="userSpaceOnUse">
<stop stop-color="#444B8C"/>
<stop offset="0.9964" stop-color="#26264F"/>
</linearGradient>
<linearGradient id="paint35_linear_191_1150" x1="158.575" y1="256.745" x2="-21.7983" y2="180.821" gradientUnits="userSpaceOnUse">
<stop stop-color="#444B8C"/>
<stop offset="0.9964" stop-color="#26264F"/>
</linearGradient>
<linearGradient id="paint36_linear_191_1150" x1="158.71" y1="256.426" x2="-21.663" y2="180.503" gradientUnits="userSpaceOnUse">
<stop stop-color="#444B8C"/>
<stop offset="0.9964" stop-color="#26264F"/>
</linearGradient>
<linearGradient id="paint37_linear_191_1150" x1="46.1311" y1="174.597" x2="47.7125" y2="302.292" gradientUnits="userSpaceOnUse">
<stop stop-color="#AA80F9"/>
<stop offset="0.9964" stop-color="#6165D7"/>
</linearGradient>
</defs>
</svg>
