<svg width="20" height="20" viewBox="0 0 20 20" fill="none" xmlns="http://www.w3.org/2000/svg">
<path d="M12.9169 11.6669H12.2586L12.0252 11.4419C12.546 10.8369 12.9266 10.1242 13.1398 9.3549C13.3531 8.5856 13.3936 7.77868 13.2586 6.99189C12.8669 4.67522 10.9336 2.82522 8.60022 2.54189C7.7799 2.43811 6.94671 2.52337 6.16441 2.79113C5.38211 3.0589 4.67143 3.50207 4.08675 4.08675C3.50207 4.67143 3.0589 5.38211 2.79113 6.16441C2.52337 6.94671 2.43811 7.7799 2.54189 8.60022C2.82522 10.9336 4.67522 12.8669 6.99189 13.2586C7.77868 13.3936 8.5856 13.3531 9.3549 13.1398C10.1242 12.9266 10.8369 12.546 11.4419 12.0252L11.6669 12.2586V12.9169L15.2086 16.4586C15.5502 16.8002 16.1086 16.8002 16.4502 16.4586C16.7919 16.1169 16.7919 15.5586 16.4502 15.2169L12.9169 11.6669ZM7.91689 11.6669C5.84189 11.6669 4.16689 9.99189 4.16689 7.91689C4.16689 5.84189 5.84189 4.16689 7.91689 4.16689C9.99189 4.16689 11.6669 5.84189 11.6669 7.91689C11.6669 9.99189 9.99189 11.6669 7.91689 11.6669Z" fill="#E6E6E6"/>
</svg>
